<?xml version="1.0" encoding="utf-8"?>
<!-- Generator: Adobe Illustrator 23.0.3, SVG Export Plug-In . SVG Version: 6.00 Build 0)  -->
<svg version="1.1" xmlns="http://www.w3.org/2000/svg" xmlns:xlink="http://www.w3.org/1999/xlink" x="0px" y="0px"
	 viewBox="0 0 500 500" style="enable-background:new 0 0 500 500;" xml:space="preserve">
<style type="text/css">
	.st0{display:none;}
	.st1{display:inline;}
	.st2{fill:#FFFFFF;}
	.st3{fill:#E0D536;}
	.st4{fill:#BF2DFF;}
	.st5{fill:#2EFFCE;}
	.st6{fill:#2BBCE3;}
	.st7{fill:#F99B06;}
	.st8{fill:#F06367;}
	.st9{fill:#EADA30;stroke:#231F20;stroke-miterlimit:10;}
	.st10{fill:#F06367;stroke:#231F20;stroke-miterlimit:10;}
	.st11{stroke:#000000;stroke-width:14;stroke-miterlimit:10;}
	.st12{stroke:#000000;stroke-width:12;stroke-miterlimit:10;}
	.st13{stroke:#000000;stroke-width:8;stroke-miterlimit:10;}
	.st14{fill:#FFFF00;}
	.st15{fill:#FF00FE;}
	.st16{fill:#00FFFF;}
	.st17{fill:#FE0000;}
	.st18{fill:#00FF01;}
	.st19{fill:#0000FE;}
	.st20{fill:#D68AED;}
	.st21{fill:#42FFED;}
	.st22{fill:none;stroke:#000000;stroke-width:7;stroke-miterlimit:10;}
	.st23{fill:none;stroke:#000000;stroke-width:20;stroke-miterlimit:10;}
</style>
<g id="Layer_2" class="st0">
	<g class="st1">
		<rect width="500" height="500"/>
	</g>
</g>
<g id="white_layer">
	<circle class="st2" cx="250.06" cy="250.1" r="170"/>
</g>
<g id="Layer_1">
	<g>
		<path d="M209.28,290.7c-1.31,0-2.29,0-3.26,0c-19.5,0-38.99,0.01-58.49,0c-12.16-0.01-19.44-7.29-19.44-19.43
			c0-14.25-0.01-28.5,0-42.74c0.01-11.82,7.35-19.21,19.15-19.23c19.58-0.03,39.16-0.01,58.74-0.01c0.98,0,1.96,0,3.3,0
			c0-1.22,0-2.19,0-3.16c0-19.5,0.25-39-0.09-58.49c-0.21-11.79,8.44-19.89,19.67-19.63c14.24,0.33,28.49,0.07,42.74,0.08
			c11.64,0.01,19.07,7.4,19.09,19.03c0.02,19.58,0.01,39.16,0.01,58.74c0,0.99,0,1.98,0,3.42c1.13,0,2.08,0,3.04,0
			c19.83,0,39.66-0.02,59.49,0.01c8.93,0.01,15.75,4.95,17.94,13.02c0.49,1.82,0.7,3.78,0.71,5.67c0.06,14.66,0.05,29.33,0.02,43.99
			c-0.02,11.15-7.51,18.68-18.66,18.71c-19.91,0.04-39.83,0.06-59.74-0.04c-2.37-0.01-2.88,0.72-2.87,2.95
			c0.08,19.58-0.21,39.17,0.14,58.74c0.21,11.63-8.25,19.9-19.65,19.66c-14.24-0.31-28.49-0.06-42.74-0.08
			c-11.64-0.01-19.09-7.42-19.11-19.02c-0.02-19.58-0.01-39.16-0.01-58.74C209.28,293.16,209.28,292.17,209.28,290.7z"/>
	</g>
</g>
<g id="spider_diagram">
</g>
<g id="text">
</g>
</svg>
