<?xml version="1.0" encoding="utf-8"?>
<!-- Generator: Adobe Illustrator 23.0.3, SVG Export Plug-In . SVG Version: 6.00 Build 0)  -->
<svg version="1.1" xmlns="http://www.w3.org/2000/svg" xmlns:xlink="http://www.w3.org/1999/xlink" x="0px" y="0px"
	 viewBox="0 0 500 500" style="enable-background:new 0 0 500 500;" xml:space="preserve">
<style type="text/css">
	.st0{display:none;}
	.st1{display:inline;}
	.st2{fill:#FFFFFF;}
	.st3{fill:#E0D536;}
	.st4{fill:#BF2DFF;}
	.st5{fill:#2EFFCE;}
	.st6{fill:#2BBCE3;}
	.st7{fill:#F99B06;}
	.st8{fill:#F06367;}
	.st9{fill:#EADA30;stroke:#231F20;stroke-miterlimit:10;}
	.st10{fill:#F06367;stroke:#231F20;stroke-miterlimit:10;}
	.st11{stroke:#000000;stroke-width:14;stroke-miterlimit:10;}
	.st12{stroke:#000000;stroke-width:12;stroke-miterlimit:10;}
	.st13{stroke:#000000;stroke-width:8;stroke-miterlimit:10;}
	.st14{fill:#FFFF00;}
	.st15{fill:#FF00FE;}
	.st16{fill:#00FFFF;}
	.st17{fill:#FE0000;}
	.st18{fill:#00FF01;}
	.st19{fill:#0000FE;}
	.st20{fill:#D68AED;}
	.st21{fill:#42FFED;}
	.st22{fill:none;stroke:#000000;stroke-width:7;stroke-miterlimit:10;}
	.st23{fill:none;stroke:#000000;stroke-width:20;stroke-miterlimit:10;}
</style>
<g id="Layer_2" class="st0">
	<g class="st1">
		<rect x="0.06" y="0.1" width="500" height="500"/>
	</g>
</g>
<g id="white_layer">
</g>
<g id="Layer_1">
	<g>
		<circle class="st6" cx="249.04" cy="250.13" r="170.39"/>
		<g>
			<path d="M226.18,230.3c-3.06,9.65-6.13,19.29-9.18,28.94c-1.44,4.55-4.05,7.65-8.33,8.83c-8,2.19-15.72-6.05-13.4-14.92
				c2.63-10,6.38-19.62,9.03-29.61c2.9-10.94,7.87-20.05,15.14-28.11c7.52-8.36,14.63-17.23,21.53-26.3
				c5-6.57,13.95-7.96,20.77-3.72c6.94,4.32,10.69,13.61,8.07,22c-5.58,17.92-7.93,36.51-9.9,55.21c-0.31,2.9-0.29,5.85-0.62,8.74
				c-0.48,4.21,1.84,7.44,2.66,11.28c3.4,15.96,14.28,27.94,21.54,41.83c2.77,5.3,4.14,11.15,5.92,16.84
				c4.99,15.92,9.91,31.87,14.71,47.87c3.25,10.83-3.72,21.29-13.63,20.5c-5.6-0.45-9.59-3.78-11.75-9.65
				c-6.44-17.5-12.85-35-19.25-52.52c-0.89-2.45-1.97-4.76-3.29-6.96c-9.3-15.57-18.53-31.19-27.85-46.74
				c-2.27-3.78-3.38-7.76-3.39-12.35c-0.02-9.67,0.44-19.3,1.56-28.88c0.09-0.76,0.08-1.54,0.11-2.32
				C226.48,230.28,226.33,230.29,226.18,230.3z"/>
			<path d="M194.49,373.68c-0.05-3.51,1.04-6.49,2.49-9.38c8.15-16.16,16.14-32.46,24.47-48.47c2.26-4.35,1.97-8.92,2.28-13.48
				c0.38-5.7,0.39-11.45,0.58-17.17c0.02-0.68-0.23-1.64,0.47-1.92c0.72-0.3,0.96,0.67,1.24,1.24
				c6.72,13.47,13.42,26.94,20.12,40.42c0.89,1.79,1.14,3.44,0,5.44c-9.83,17.28-19.55,34.65-29.37,51.93
				c-3.06,5.39-7.39,7.46-12.55,6.14c-4.86-1.24-7.94-5.13-9.29-11.06C194.65,376.19,194.62,374.92,194.49,373.68z"/>
			<path d="M267.31,114.64c11.11,0.03,19.91,9.09,19.9,20.5c-0.01,11.39-9.17,20.68-20.27,20.55c-10.87-0.12-20.05-9.59-20.04-20.67
				C246.9,123.71,256.01,114.61,267.31,114.64z"/>
			<path d="M305.51,254.41c0.18,5.21-3.49,9.74-9.28,11.66c-5.56,1.85-12.54,0.97-16.26-2.75c-4.84-4.85-9.09-10.07-13.56-15.16
				c-1.08-1.23-0.8-2.71-0.68-4.08c0.87-9.94,2.07-19.86,4.19-29.7c0.15-0.71-0.09-1.71,0.94-1.97c1.31-0.33,1.66,0.81,2.2,1.42
				c9.89,11.23,19.74,22.48,29.58,33.73C304.47,249.68,305.6,251.99,305.51,254.41z"/>
		</g>
	</g>
</g>
<g id="spider_diagram">
</g>
<g id="text">
</g>
</svg>
