<?xml version="1.0" encoding="utf-8"?>
<!-- Generator: Adobe Illustrator 23.0.3, SVG Export Plug-In . SVG Version: 6.00 Build 0)  -->
<svg version="1.1" xmlns="http://www.w3.org/2000/svg" xmlns:xlink="http://www.w3.org/1999/xlink" x="0px" y="0px"
	 viewBox="0 0 500 500" style="enable-background:new 0 0 500 500;" xml:space="preserve">
<style type="text/css">
	.st0{display:none;}
	.st1{display:inline;}
	.st2{fill:#FFFFFF;}
	.st3{fill:#E0D536;}
	.st4{fill:#BF2DFF;}
	.st5{fill:#2EFFCE;}
	.st6{fill:#2BBCE3;}
	.st7{fill:#F99B06;}
	.st8{fill:#F06367;}
	.st9{fill:#EADA30;stroke:#231F20;stroke-miterlimit:10;}
	.st10{fill:#F06367;stroke:#231F20;stroke-miterlimit:10;}
	.st11{stroke:#000000;stroke-width:14;stroke-miterlimit:10;}
	.st12{stroke:#000000;stroke-width:12;stroke-miterlimit:10;}
	.st13{stroke:#000000;stroke-width:8;stroke-miterlimit:10;}
	.st14{fill:#FFFF00;}
	.st15{fill:#FF00FE;}
	.st16{fill:#00FFFF;}
	.st17{fill:#FE0000;}
	.st18{fill:#00FF01;}
	.st19{fill:#0000FE;}
	.st20{fill:#D68AED;}
	.st21{fill:#42FFED;}
	.st22{fill:none;stroke:#000000;stroke-width:7;stroke-miterlimit:10;}
	.st23{fill:none;stroke:#000000;stroke-width:20;stroke-miterlimit:10;}
</style>
<g id="Layer_2" class="st0">
	<g class="st1">
		<rect x="0.06" y="0.1" width="500" height="500"/>
	</g>
</g>
<g id="white_layer">
</g>
<g id="Layer_1">
	<g>
		<circle class="st5" cx="250" cy="250" r="170.17"/>
		<g>
			<path d="M314.85,140.52c11.48-0.33,22.05,8.02,24.79,19.3c2.84,11.65-2.99,23.91-13.86,28.98c-6.23,2.91-12.65,3.28-19.19,1.04
				c-0.52-0.18-1.04-0.35-1.54-0.56c-1.73-0.74-3.14-0.36-3.87,1.4c-0.76,1.84,0.25,3.02,1.89,3.68c8.35,3.37,16.66,3.22,24.84-0.53
				c6.33-2.91,11.11-7.51,14.35-13.69c0.36-0.68,0.72-1.37,1.21-2.29c7.96,4.43,12.65,11.03,13.58,19.94
				c0.97,9.31-2.49,16.95-9.87,22.95c-4.84-5.24-10.53-8.6-17.37-9.96c-6.09-1.21-11.98-0.58-17.74,1.68
				c-1.82,0.71-3,1.79-2.33,3.91c0.53,1.66,2.08,2.04,4.35,1.18c15.8-6.01,31.94,3.06,34.88,19.59
				c3.23,18.22-15.31,34.12-32.8,28.06c-0.79-0.28-1.65-1.35-1.86-2.2c-3.36-13.87-13.53-22.95-27.73-24.59
				c-0.85-0.1-1.73-0.17-2.58-0.1c-1.62,0.13-2.65,1.02-2.68,2.69c-0.02,1.68,1.01,2.57,2.61,2.77c2.01,0.26,4.08,0.26,6.04,0.73
				c12.55,3,20.62,14.79,19.22,27.93c-1.3,12.15-12.27,22-24.7,22.18c-12.93,0.19-23.88-9.13-25.65-21.85
				c-0.19-1.39-0.32-2.8-0.32-4.21c-0.02-42.3-0.04-84.6-0.02-126.9c0.01-13.05,9.39-24.11,21.64-25.65
				c13.22-1.67,24.93,5.99,28.37,18.54c4.13,15.07-6.59,30.51-22.12,31.85c-0.86,0.07-1.72,0.12-2.58,0.22
				c-1.67,0.19-2.59,1.16-2.5,2.82c0.09,1.66,1.15,2.73,2.78,2.5c3.69-0.54,7.59-0.72,10.98-2.1c12.21-5,18.76-14.35,19.75-27.54
				C314.89,141.74,314.85,141.2,314.85,140.52z"/>
			<path d="M152.83,220.78c-7.38-6.08-10.83-13.65-9.9-22.88c0.9-8.93,5.56-15.55,13.58-20.01c0.45,0.84,0.82,1.5,1.17,2.17
				c7.15,13.71,23.33,20.06,37.85,14.85c0.66-0.24,1.33-0.49,1.94-0.82c1.44-0.8,2-2.04,1.28-3.55c-0.7-1.46-1.89-1.77-3.54-1.39
				c-3.55,0.81-7.16,1.96-10.75,1.97c-13.17,0.05-24.32-10.96-24.74-24.01c-0.46-13.91,9.67-25.55,23.14-26.6
				c0.68-0.05,1.37-0.01,1.45-0.01c1.27,4.71,1.88,9.38,3.77,13.47c5.03,10.9,13.87,16.84,25.85,17.94c3.3,0.3,4.6-0.49,4.74-2.42
				c0.15-1.97-1.01-2.74-4.33-3.06c-10.88-1.02-18.51-6.62-22.17-16.86c-3.49-9.77-1.49-18.83,5.8-26.23
				c7.28-7.39,16.32-9.57,26.14-6.25c9.7,3.28,15.41,10.35,17.04,20.54c0.22,1.38,0.33,2.8,0.33,4.21
				c0.01,42.21,0.02,84.43,0,126.64c-0.01,12.41-7.67,22.53-19.41,25.33c-10.04,2.4-18.72-0.43-25.38-8.24
				c-6.75-7.91-8.03-17.11-3.87-26.58c4.11-9.38,11.67-14.42,21.96-15.17c0.31-0.02,0.63,0,0.94-0.03c1.82-0.13,3.03-1.01,2.93-2.93
				c-0.09-1.8-1.38-2.81-3.03-2.52c-3.98,0.69-8.15,1.09-11.81,2.63c-9.66,4.04-15.6,11.52-17.92,21.74
				c-0.37,1.65-1.11,2.33-2.6,2.76c-10.57,3.04-21.96-1.03-28.13-10.1c-6.25-9.19-5.84-21.31,1.02-30.03
				c6.78-8.63,18.43-11.94,28.74-8.16c0.51,0.19,1.01,0.43,1.52,0.61c1.6,0.57,3.07,0.36,3.75-1.31c0.69-1.71,0.01-3-1.75-3.75
				c-6.49-2.76-13.15-3.28-19.98-1.54C162.37,212.73,157.24,215.9,152.83,220.78z"/>
			<path d="M167.24,310.14c0,10.02,0,20.04-0.01,30.05c0,0.78,0.19,1.77-0.2,2.28c-0.63,0.83-1.67,1.86-2.55,1.87
				c-0.87,0-1.88-1.04-2.56-1.85c-0.37-0.44-0.21-1.35-0.21-2.05c-0.01-20.27-0.01-40.54-0.01-60.81c0-0.47-0.03-0.94,0.02-1.41
				c0.17-1.72,1.09-2.84,2.85-2.79c1.63,0.05,2.5,1.15,2.64,2.76c0.06,0.7,0.02,1.41,0.02,2.11
				C167.24,290.26,167.24,300.2,167.24,310.14z"/>
			<path d="M332.77,310.14c0-10.1,0-20.19,0-30.29c0-0.63-0.23-1.43,0.08-1.84c0.72-0.97,1.58-2.25,2.6-2.49
				c1.54-0.35,2.55,0.88,2.81,2.47c0.07,0.46,0.04,0.94,0.04,1.41c0,20.35,0,40.7,0,61.04c0,0.62,0.18,1.46-0.14,1.83
				c-0.74,0.86-1.75,2.06-2.64,2.05c-0.89,0-1.92-1.19-2.62-2.07c-0.35-0.44-0.13-1.36-0.13-2.06
				C332.77,330.17,332.77,320.16,332.77,310.14z"/>
			<path d="M283.89,338.56c0-9.63,0-19.25,0.01-28.88c0-0.78-0.2-1.77,0.19-2.29c0.62-0.84,1.65-1.88,2.53-1.9
				c0.87-0.01,1.93,1,2.57,1.82c0.4,0.51,0.23,1.5,0.23,2.28c0.01,19.33,0.01,38.66,0,57.99c0,0.7,0.22,1.61-0.13,2.06
				c-0.69,0.9-1.77,2.22-2.58,2.14c-0.99-0.1-1.98-1.34-2.72-2.29c-0.35-0.45-0.1-1.36-0.1-2.07
				C283.89,357.82,283.89,348.19,283.89,338.56z"/>
			<path d="M216.11,338.53c0,9.7,0,19.41-0.01,29.11c0,0.78,0.18,1.77-0.21,2.28c-0.64,0.84-1.69,1.9-2.56,1.89
				c-0.87,0-1.91-1.07-2.55-1.91c-0.39-0.52-0.2-1.51-0.2-2.29c-0.01-19.33-0.01-38.66,0-57.99c0-0.7-0.22-1.62,0.14-2.06
				c0.71-0.88,1.74-2.06,2.63-2.05c0.89,0,1.92,1.19,2.62,2.08c0.35,0.45,0.13,1.36,0.13,2.06
				C216.11,319.28,216.11,328.91,216.11,338.53z"/>
			<path d="M186.15,328.42c0-8.53,0-17.05,0-25.58c0-0.7-0.22-1.6,0.13-2.07c0.68-0.91,1.74-2.25,2.54-2.18
				c0.99,0.09,1.97,1.33,2.75,2.25c0.32,0.37,0.1,1.21,0.1,1.83c0,17.29,0,34.58,0,51.87c0,0.62,0.2,1.45-0.11,1.83
				c-0.72,0.88-1.75,2.2-2.56,2.14c-0.98-0.08-2-1.29-2.74-2.22c-0.35-0.44-0.11-1.36-0.11-2.06
				C186.14,345.64,186.15,337.03,186.15,328.42z"/>
			<path d="M313.86,328.71c0,8.53,0,17.06,0,25.58c0,0.7,0.23,1.63-0.12,2.06c-0.76,0.92-1.8,2.11-2.78,2.17
				c-0.81,0.05-1.85-1.27-2.51-2.19c-0.34-0.47-0.11-1.37-0.11-2.07c0-17.13,0-34.27,0-51.4c0-0.63-0.23-1.43,0.08-1.84
				c0.72-0.97,1.58-2.25,2.6-2.48c1.55-0.36,2.56,0.88,2.81,2.47c0.1,0.61,0.05,1.25,0.05,1.87
				C313.86,311.5,313.86,320.1,313.86,328.71z"/>
			<path d="M240.55,328.46c0,8.45,0,16.89-0.01,25.34c0,0.78,0.22,1.79-0.18,2.28c-0.69,0.87-1.76,1.92-2.72,1.97
				c-0.81,0.04-1.86-1.11-2.46-1.97c-0.38-0.54-0.17-1.51-0.17-2.29c-0.01-16.97-0.01-33.94,0-50.92c0-0.7-0.23-1.6,0.11-2.07
				c0.67-0.92,1.72-2.27,2.52-2.21c0.99,0.07,2.02,1.29,2.77,2.22c0.35,0.43,0.12,1.36,0.12,2.06
				C240.55,311.41,240.55,319.93,240.55,328.46z"/>
			<path d="M264.99,328.48c0,8.52,0.01,17.05-0.01,25.57c0,0.77,0.15,1.78-0.26,2.27c-0.67,0.8-1.73,1.72-2.65,1.75
				c-0.79,0.03-1.8-0.98-2.37-1.78c-0.39-0.54-0.23-1.51-0.23-2.28c-0.01-17.13-0.01-34.26-0.01-51.38c0-0.55-0.2-1.27,0.07-1.61
				c0.76-0.95,1.6-2.24,2.62-2.47c1.55-0.35,2.55,0.89,2.79,2.48c0.09,0.61,0.04,1.25,0.04,1.87
				C264.99,311.43,264.99,319.95,264.99,328.48z"/>
			<path d="M161.71,362.55c0-2.04-0.03-4.07,0.01-6.11c0.04-1.8,0.82-3.09,2.78-3.07c1.95,0.02,2.72,1.33,2.73,3.12
				c0.02,4.07,0.01,8.15,0.01,12.22c0,1.82-0.79,3.16-2.68,3.2c-2.02,0.05-2.85-1.33-2.85-3.26
				C161.71,366.63,161.71,364.59,161.71,362.55z"/>
			<path d="M332.78,362.61c0-2.11-0.05-4.23,0.01-6.34c0.05-1.71,0.89-2.88,2.7-2.9c1.83-0.03,2.74,1.14,2.77,2.83
				c0.07,4.31,0.07,8.61,0,12.92c-0.03,1.72-1.05,2.86-2.82,2.8c-1.75-0.06-2.64-1.23-2.66-2.97
				C332.75,366.84,332.78,364.73,332.78,362.61z"/>
		</g>
	</g>
</g>
<g id="spider_diagram">
</g>
<g id="text">
</g>
</svg>
