<?xml version="1.0" encoding="utf-8"?>
<!-- Generator: Adobe Illustrator 23.0.3, SVG Export Plug-In . SVG Version: 6.00 Build 0)  -->
<svg version="1.1" xmlns="http://www.w3.org/2000/svg" xmlns:xlink="http://www.w3.org/1999/xlink" x="0px" y="0px"
	 viewBox="0 0 500 500" style="enable-background:new 0 0 500 500;" xml:space="preserve">
<style type="text/css">
	.st0{display:none;}
	.st1{display:inline;}
	.st2{fill:#FFFFFF;}
	.st3{fill:#E0D536;}
	.st4{fill:#BF2DFF;}
	.st5{fill:#2EFFCE;}
	.st6{fill:#2BBCE3;}
	.st7{fill:#F99B06;}
	.st8{fill:#F06367;}
	.st9{fill:#EADA30;stroke:#231F20;stroke-miterlimit:10;}
	.st10{fill:#F06367;stroke:#231F20;stroke-miterlimit:10;}
	.st11{stroke:#000000;stroke-width:14;stroke-miterlimit:10;}
	.st12{stroke:#000000;stroke-width:12;stroke-miterlimit:10;}
	.st13{stroke:#000000;stroke-width:8;stroke-miterlimit:10;}
	.st14{fill:#FFFF00;}
	.st15{fill:#FF00FE;}
	.st16{fill:#00FFFF;}
	.st17{fill:#FE0000;}
	.st18{fill:#00FF01;}
	.st19{fill:#0000FE;}
	.st20{fill:#D68AED;}
	.st21{fill:#42FFED;}
	.st22{fill:none;stroke:#000000;stroke-width:7;stroke-miterlimit:10;}
	.st23{fill:none;stroke:#000000;stroke-width:20;stroke-miterlimit:10;}
</style>
<g id="Layer_2" class="st0">
	<g class="st1">
		<rect x="0.06" y="0.1" width="500" height="500"/>
	</g>
</g>
<g id="white_layer">
</g>
<g id="Layer_1">
	<g>
		<circle class="st7" cx="249" cy="250" r="169"/>
		<g>
			<path d="M179.89,227.18c3.49-5.57,6.69-11.4,10.58-16.73c3.93-5.37,5.76-11.01,4.95-17.59c-0.23-1.89-0.04-3.83-0.04-6.01
				c-2.93,0-5.58,0.02-8.23,0c-5.9-0.06-10-3.89-9.94-9.27c0.06-5.25,4.15-8.98,9.96-9c8.41-0.03,16.82-0.01,25.23,0
				c5.86,0.01,9.76,3.23,10.28,8.45c0.46,4.68-2.72,8.49-8.18,9.77c-0.23,0.06-0.46,0.14-0.78,0.23c0,2.86,0,5.74,0,8.87
				c1.07,0,2.02,0,2.97,0c23.13,0,46.26-0.04,69.39,0.06c2.31,0.01,3.19-0.73,3.83-2.87c1.77-5.87,3.81-11.66,5.76-17.48
				c1.62-4.82,4.69-7.03,9.8-7.04c5.5-0.02,11-0.02,16.5,0c5.75,0.03,9.88,3.82,9.94,9.06c0.05,5.31-4.14,9.17-10.05,9.21
				c-2.91,0.02-5.83,0.1-8.73-0.03c-1.59-0.07-2.24,0.53-2.7,2.01c-1.39,4.47-2.99,8.87-4.4,13.34c-0.26,0.82-0.29,2,0.12,2.68
				c4.54,7.44,9.2,14.82,13.71,22.04c4.68-1.08,9.16-2.45,13.74-3.13c27.7-4.07,54.45,14.44,60.52,41.71
				c7.05,31.65-13.72,61.72-45.92,66.45c-29.56,4.35-58.12-17.67-61.41-47.41c-2-18.04,3.56-33.46,16.46-46.2
				c1.04-1.02,1.31-1.71,0.44-3.03c-2.79-4.24-5.43-8.58-8.26-13.11c-4.61,7.39-9.05,14.51-13.5,21.62
				c-7.83,12.54-15.73,25.05-23.47,37.64c-2.36,3.84-5.49,5.56-10,5.51c-10.92-0.13-21.84-0.04-32.75-0.04c-0.88,0-1.76,0-2.78,0
				c-3.78,18.33-13.69,32.01-30.54,40.15c-13.26,6.41-27.08,7.11-41.03,2.4c-27.93-9.44-43.1-39.39-34.59-67.72
				C115.09,234.19,146.75,214.37,179.89,227.18z M314.68,252.84c-12.82,12.7-13.34,34.56-1.41,48.5
				c12.39,14.48,33.71,17.07,49.04,5.96c15.48-11.22,19.66-32.37,9.67-48.63c-10.26-16.69-30.46-20.11-41.67-15.31
				c0.45,0.77,0.88,1.53,1.34,2.27c5.56,8.91,11.15,17.81,16.69,26.74c2.96,4.77,1.88,10.21-2.49,13
				c-4.47,2.85-9.88,1.47-12.95-3.39c-4.31-6.83-8.58-13.7-12.86-20.55C318.28,258.62,316.54,255.82,314.68,252.84z M169.85,243.26
				c-12.38-4.96-29.17-0.13-38.44,10.84c-10.29,12.18-11.67,29.22-3.44,42.68c8.14,13.31,24.01,20,39.09,16.48
				c13.4-3.13,25.85-15.28,26.87-26.34c-0.89,0-1.78,0-2.66,0c-10.67,0-21.34,0.03-32.01-0.01c-5.97-0.03-10.1-4.71-9.18-10.5
				c0.24-1.53,1.03-3.05,1.86-4.4C157.84,262.46,163.8,252.96,169.85,243.26z M221,214.23c9.73,15.57,19.28,30.83,29.01,46.4
				c9.78-15.66,19.31-30.9,28.99-46.4C259.58,214.23,240.54,214.23,221,214.23z M204.51,222.19c-3.02,4.81-5.88,9.29-8.59,13.86
				c-0.25,0.43,0.22,1.63,0.71,2.11c8.16,7.95,13.5,17.46,15.83,28.6c0.32,1.52,0.88,1.97,2.36,1.95c4.93-0.07,9.86-0.03,14.79-0.03
				c1.15,0,2.31,0,3.96,0C223.75,252.96,214.25,237.77,204.51,222.19z M185.38,252.74c-3.35,5.38-6.52,10.47-9.82,15.76
				c6.43,0,12.43,0,18.62,0C192.55,262.48,189.74,257.42,185.38,252.74z"/>
		</g>
	</g>
</g>
<g id="spider_diagram">
</g>
<g id="text">
</g>
</svg>
