<?xml version="1.0" encoding="utf-8"?>
<!-- Generator: Adobe Illustrator 23.0.3, SVG Export Plug-In . SVG Version: 6.00 Build 0)  -->
<svg version="1.1" xmlns="http://www.w3.org/2000/svg" xmlns:xlink="http://www.w3.org/1999/xlink" x="0px" y="0px"
	 viewBox="0 0 500 500" style="enable-background:new 0 0 500 500;" xml:space="preserve">
<style type="text/css">
	.st0{display:none;}
	.st1{display:inline;}
	.st2{fill:#FFFFFF;}
	.st3{fill:#E0D536;}
	.st4{fill:#BF2DFF;}
	.st5{fill:#2EFFCE;}
	.st6{fill:#2BBCE3;}
	.st7{fill:#F99B06;}
	.st8{fill:#F06367;}
	.st9{fill:#EADA30;stroke:#231F20;stroke-miterlimit:10;}
	.st10{fill:#F06367;stroke:#231F20;stroke-miterlimit:10;}
	.st11{stroke:#000000;stroke-width:14;stroke-miterlimit:10;}
	.st12{stroke:#000000;stroke-width:12;stroke-miterlimit:10;}
	.st13{stroke:#000000;stroke-width:8;stroke-miterlimit:10;}
	.st14{fill:#FFFF00;}
	.st15{fill:#FF00FE;}
	.st16{fill:#00FFFF;}
	.st17{fill:#FE0000;}
	.st18{fill:#00FF01;}
	.st19{fill:#0000FE;}
	.st20{fill:#D68AED;}
	.st21{fill:#42FFED;}
	.st22{fill:none;stroke:#000000;stroke-width:7;stroke-miterlimit:10;}
	.st23{fill:none;stroke:#000000;stroke-width:20;stroke-miterlimit:10;}
</style>
<g id="Layer_2" class="st0">
	<g class="st1">
		<rect x="0.06" y="0.1" width="500" height="500"/>
	</g>
</g>
<g id="white_layer">
</g>
<g id="Layer_1">
	<g>
		<circle class="st8" cx="250" cy="250" r="171"/>
		<g>
			<path d="M158.44,226.36c-1.23-0.12-1.97-0.25-2.72-0.25c-5.39-0.03-10.78,0.03-16.17-0.06c-5.41-0.09-7.96-2.73-8.03-8.16
				c-0.04-2.69-0.06-5.39,0.03-8.08c0.14-4.2,2.86-6.69,7.01-7.16c9.27-1.07,15.42,3.34,19.95,10.86c0.52,0.86,1.09,1.7,1.91,2.97
				c0.64-2.33,1.21-4.24,1.69-6.17c3.24-12.96,8.74-24.89,15.65-36.31c5.66-9.37,13.86-14.09,24.32-15.85
				c12.61-2.13,25.32-2.92,38.07-2.9c13.4,0.03,26.82,0.09,40.18,0.91c8.23,0.5,16.44,2.07,24.52,3.83
				c6.7,1.46,11.74,5.74,15.63,11.49c8.71,12.88,14.66,26.91,18.24,41.99c0.2,0.83,0.46,1.65,0.83,3c0.79-1.22,1.29-2.14,1.93-2.94
				c1.91-2.36,3.72-4.85,5.88-6.96c4.45-4.36,10.08-4.51,15.76-3.65c3,0.45,5.15,3.22,5.29,6.43c0.14,3.27,0.14,6.56,0.01,9.83
				c-0.17,4.01-2.91,6.72-7.07,6.83c-5.68,0.16-11.36,0.07-17.04,0.11c-0.75,0-1.5,0.12-2.43,0.21c2.21,2.32,4.28,4.31,6.13,6.48
				c8.37,9.8,12.72,21.17,12.49,34.07c-0.22,12.45-0.9,24.91-3.5,37.13c-0.88,4.16-2.58,8.16-4.13,12.15
				c-1.15,2.97-3.19,5.11-6.48,5.99c-0.69,0.18-1.48,1.54-1.51,2.38c-0.16,3.63-0.04,7.28-0.07,10.92
				c-0.04,6.26-3.02,9.27-9.24,9.32c-4.37,0.03-8.74,0.05-13.11,0c-6.16-0.08-9.04-3.03-9.08-9.22c-0.02-2.9,0-5.81,0-8.43
				c-21.21,0.58-42.28,1.6-63.35,1.61c-21.03,0-42.07-1.02-63.39-1.6c0,2.31,0.01,5.12,0,7.94c-0.02,6.86-2.83,9.67-9.7,9.7
				c-4.3,0.02-8.6,0.05-12.89-0.01c-5.7-0.08-8.74-3.12-8.83-8.84c-0.06-3.79-0.02-7.58,0-11.36c0.01-1.29-0.24-2.27-1.74-2.57
				c-3.06-0.61-4.86-2.74-6.17-5.39c-3.13-6.34-4.94-13.07-5.65-20.06c-0.83-8.11-1.39-16.25-2.03-24.37
				c-1.3-16.65,3.79-30.98,15.56-42.89C156.04,228.38,157,227.63,158.44,226.36z M173.34,221.61c51.2-4.45,102.09-4.44,153.22-0.01
				c-0.17-1.03-0.25-1.8-0.43-2.55c-2.96-12.76-7.79-24.78-13.9-36.37c-2.31-4.39-5.47-6.79-10.15-7.97
				c-10.51-2.66-21.22-3.67-31.98-4.25c-18.5-0.99-37.01-0.93-55.41,1.34c-6.82,0.84-13.53,2.65-20.27,4.11
				c-2.41,0.52-3.96,2.16-5.2,4.3c-6.66,11.55-11.62,23.76-14.86,36.68C174,218.35,173.72,219.82,173.34,221.61z M249.96,297.53
				c10.7,0,21.41,0.01,32.11-0.02c1.15,0,2.34-0.07,3.46-0.36c3.46-0.88,5.27-4.71,3.39-7.72c-2.44-3.9-5.39-7.47-9.46-9.79
				c-1.38-0.79-3.16-1.21-4.76-1.22c-16.46-0.09-32.91-0.11-49.37,0.02c-1.92,0.02-4.25,0.59-5.65,1.78
				c-3.07,2.62-5.94,5.58-8.38,8.8c-2.41,3.19-0.44,7.34,3.52,8.21c0.98,0.22,2.02,0.27,3.03,0.27
				C228.56,297.54,239.26,297.53,249.96,297.53z M161.16,262.16c-0.03,9.26,7.27,16.66,16.51,16.73
				c9.35,0.07,16.83-7.31,16.85-16.62c0.02-9.25-7.32-16.68-16.52-16.74C168.62,245.48,161.19,252.82,161.16,262.16z M338.82,262.31
				c0.05-9.26-7.26-16.71-16.47-16.78c-9.37-0.07-16.85,7.27-16.89,16.58c-0.04,9.27,7.25,16.68,16.47,16.77
				C331.3,278.98,338.77,271.65,338.82,262.31z"/>
		</g>
	</g>
</g>
<g id="spider_diagram">
</g>
<g id="text">
</g>
</svg>
