<?xml version="1.0" encoding="utf-8"?>
<!-- Generator: Adobe Illustrator 23.0.3, SVG Export Plug-In . SVG Version: 6.00 Build 0)  -->
<svg version="1.1" id="Layer_1" xmlns="http://www.w3.org/2000/svg" xmlns:xlink="http://www.w3.org/1999/xlink" x="0px" y="0px"
	 viewBox="0 0 500 500" style="enable-background:new 0 0 500 500;" xml:space="preserve">
<style type="text/css">
	.st0{fill:#F99B06;}
	.st1{fill:#FFFFFF;}
	.st2{fill:none;stroke:#000000;stroke-width:12;stroke-miterlimit:10;}
</style>
<title>210617ICONS</title>
<g id="white_layer">
	<circle class="st0" cx="252.06" cy="250.1" r="170"/>
</g>
<g>
	<circle cx="175.47" cy="171.63" r="37.7"/>
	<path class="st1" d="M168.07,167.24c-0.68,2.14-1.36,4.27-2,6.41c-0.22,0.93-0.92,1.68-1.84,1.95c-1.4,0.29-2.77-0.61-3.06-2.01
		c-0.09-0.43-0.07-0.87,0.06-1.29c0.58-2.21,1.41-4.34,2-6.56c0.59-2.32,1.74-4.45,3.35-6.22c1.66-1.84,3.24-3.81,4.76-5.81
		c1.08-1.43,3.08-1.79,4.6-0.83c1.6,1.05,2.33,3.03,1.79,4.87c-1.13,3.99-1.87,8.08-2.2,12.22c-0.06,0.64-0.06,1.29-0.13,1.93
		c0.05,0.86,0.24,1.71,0.58,2.5c0.76,3.53,3.16,6.18,4.77,9.26c0.55,1.2,0.99,2.44,1.31,3.72c1.1,3.52,2.18,7.05,3.25,10.59
		c0.72,2.4-0.82,4.71-3,4.54c-1.23-0.1-2.27-0.95-2.6-2.14c-1.43-3.87-2.85-7.75-4.26-11.62c-0.2-0.53-0.44-1.05-0.73-1.54
		c-2.06-3.44-4.1-6.9-6.16-10.34c-0.5-0.82-0.76-1.77-0.75-2.73c-0.01-2.13,0.11-4.27,0.34-6.39c0-0.17,0-0.35,0-0.52L168.07,167.24
		z"/>
	<path class="st1" d="M161.06,199c0-0.73,0.19-1.45,0.55-2.08c1.8-3.57,3.57-7.18,5.41-10.72c0.38-0.95,0.56-1.98,0.5-3
		c0.09-1.26,0.09-2.53,0.13-3.8c0-0.15-0.05-0.36,0.11-0.42s0.21,0.15,0.27,0.27c1.49,2.98,2.98,5.98,4.45,9
		c0.23,0.37,0.23,0.83,0,1.2c-2.17,3.82-4.32,7.67-6.5,11.49c-0.45,1.08-1.64,1.67-2.77,1.36c-1.11-0.33-1.92-1.29-2.06-2.44
		C161.1,199.58,161.07,199.29,161.06,199z"/>
	<path class="st1" d="M177.17,141.65c2.45,0.02,4.42,2.03,4.4,4.48c0,0.02,0,0.03,0,0.05c0.03,2.49-1.96,4.52-4.45,4.55
		c-0.01,0-0.02,0-0.03,0c-2.47-0.09-4.43-2.1-4.44-4.57c-0.01-2.49,2-4.5,4.49-4.51C177.15,141.65,177.16,141.65,177.17,141.65z"/>
	<path class="st1" d="M185.62,172.58c-0.02,1.22-0.86,2.28-2.05,2.58c-1.22,0.44-2.59,0.21-3.6-0.61c-1.07-1.07-2-2.23-3-3.36
		c-0.18-0.26-0.24-0.59-0.15-0.9c0.17-2.21,0.48-4.4,0.92-6.57c0-0.16,0-0.38,0.21-0.44s0.37,0.18,0.49,0.32l6.55,7.46
		C185.38,171.47,185.61,172.01,185.62,172.58z"/>
	<circle cx="175.47" cy="252.94" r="37.4"/>
	<path class="st1" d="M159.79,247.89c0.77-1.23,1.48-2.52,2.34-3.7c0.87-1.1,1.26-2.5,1.09-3.89c-0.03-0.44-0.03-0.89,0-1.33h-1.82
		c-1.12,0-2.02-0.91-2.02-2.02c0-1.12,0.91-2.03,2.02-2.03h5.6c1.1-0.13,2.11,0.66,2.24,1.76s-0.66,2.11-1.76,2.24h-0.17v2h0.66
		c5.11,0,10.23,0,15.35,0c0.4,0.07,0.78-0.2,0.84-0.59c0-0.01,0-0.02,0.01-0.04c0.39-1.3,0.84-2.58,1.27-3.87
		c0.25-0.98,1.16-1.64,2.17-1.56h3.65c1.12,0,2.03,0.91,2.03,2.03c0,1.12-0.91,2.02-2.03,2.02c-0.65,0-1.29,0-1.93,0
		c-0.28-0.05-0.55,0.15-0.6,0.43c0,0.01,0,0.01,0,0.02c-0.31,1-0.66,2-1,3c-0.08,0.19-0.08,0.4,0,0.59c1,1.65,2,3.28,3,4.88
		c1-0.24,2-0.54,3-0.69c6.61-0.89,12.69,3.74,13.58,10.34c0.89,6.61-3.74,12.69-10.34,13.58s-12.69-3.74-13.58-10.34
		c-0.01-0.05-0.01-0.09-0.02-0.14c-0.5-3.8,0.86-7.6,3.65-10.22c0.22-0.23,0.28-0.38,0.09-0.67c-0.61-0.94-1.2-1.9-1.83-2.9l-3,4.78
		c-1.74,2.78-3.48,5.54-5.2,8.33c-0.44,0.8-1.3,1.28-2.21,1.22c-2.41,0-4.83,0-7.25,0H167c-0.66,3.89-3.18,7.21-6.76,8.88
		c-2.83,1.4-6.11,1.6-9.08,0.53c-6.34-2.1-9.78-8.95-7.68-15.29c2.1-6.34,8.95-9.78,15.29-7.68c0.31,0.1,0.61,0.21,0.9,0.34
		L159.79,247.89z M189.61,253.57c-3.01,3.23-2.84,8.29,0.39,11.31s8.29,2.84,11.31-0.39c2.45-2.62,2.85-6.56,0.98-9.62
		c-1.91-3.14-5.73-4.55-9.22-3.39c0.1,0.17,0.19,0.34,0.3,0.51l3.69,5.91c0.59,0.94,0.3,2.19-0.65,2.77
		c-0.94,0.59-2.19,0.3-2.77-0.64l0,0l-2.84-4.55L189.61,253.57z M157.61,251.45c-3.06-0.98-6.41-0.04-8.51,2.4
		c-2.94,3.3-2.65,8.35,0.64,11.3c1.97,1.76,4.69,2.43,7.26,1.79c3-0.69,5.72-3.38,5.94-5.83h-7.67c-1.1,0.01-2.01-0.87-2.03-1.97
		c0-0.12,0.01-0.23,0.03-0.35c0.07-0.36,0.21-0.69,0.41-1c1.23-2.09,2.55-4.19,3.89-6.34H157.61z M168.88,245l6.42,10.27l6.42-10.27
		H168.88z M165.24,246.76c-0.67,1.07-1.3,2.06-1.9,3.07c-0.06,0.09,0,0.36,0.15,0.46c1.78,1.71,3.01,3.91,3.51,6.33
		c0.07,0.34,0.19,0.44,0.52,0.44c1.09,0,2.18,0,3.27,0h0.88L165.24,246.76z M161,253.55l-2.17,3.45H163
		C162.64,255.7,161.95,254.51,161,253.55z"/>
	<circle cx="175.47" cy="333.26" r="37.84"/>
	<path class="st1" d="M155.21,328c-0.27,0-0.44-0.06-0.6-0.06c-1.19,0-2.39,0-3.58,0c-0.88,0.11-1.68-0.52-1.78-1.39
		c-0.02-0.14-0.02-0.28,0-0.42c0-0.6,0-1.19,0-1.79c-0.01-0.86,0.69-1.57,1.55-1.58c1.84-0.24,3.62,0.73,4.42,2.4
		c0.11,0.19,0.24,0.37,0.42,0.66c0.14-0.52,0.27-0.94,0.37-1.37c0.75-2.83,1.92-5.52,3.47-8c1.15-1.94,3.14-3.24,5.38-3.51
		c2.78-0.45,5.6-0.67,8.42-0.64c3,0,5.94,0,8.89,0.2c1.83,0.15,3.64,0.43,5.43,0.84c1.44,0.36,2.69,1.28,3.46,2.55
		c1.89,2.83,3.24,5.98,4,9.29c0.05,0.18,0.1,0.36,0.19,0.66c0.17-0.27,0.28-0.47,0.42-0.65c0.43-0.52,0.83-1.07,1.3-1.54
		c0.96-0.83,2.27-1.13,3.49-0.8c0.68,0.13,1.17,0.73,1.17,1.42c0,0.72,0,1.45,0,2.17c0.01,0.83-0.67,1.51-1.5,1.52
		c-0.02,0-0.04,0-0.06,0c-1.26,0-2.51,0-3.77,0c-0.17,0-0.33,0-0.54,0c0.49,0.52,0.95,1,1.36,1.44c1.84,2.08,2.82,4.77,2.76,7.54
		c0,2.75-0.25,5.5-0.77,8.21c-0.24,0.92-0.55,1.82-0.92,2.69c-0.22,0.66-0.76,1.16-1.43,1.33c-0.19,0.11-0.32,0.3-0.34,0.52
		c0,0.81,0,1.61,0,2.42c0.14,1-0.56,1.91-1.55,2.05c-0.15,0.02-0.3,0.02-0.45,0.01h-2.9c-0.98,0.12-1.88-0.57-2-1.55
		c-0.02-0.15-0.02-0.3,0-0.45v-1.86c-4.69,0.12-9.35,0.35-14,0.35s-9.3-0.22-14-0.35v1.75c0,1.52-0.63,2.14-2.15,2.15h-2.85
		c-0.97,0.13-1.87-0.55-2-1.53c-0.02-0.16-0.02-0.31,0-0.47c0-0.83,0-1.67,0-2.51c0-0.29-0.06-0.5-0.39-0.57
		c-0.62-0.15-1.13-0.59-1.36-1.19c-0.69-1.39-1.11-2.9-1.26-4.44c-0.18-1.8-0.3-3.6-0.44-5.39c-0.36-3.52,0.9-7.02,3.44-9.49
		C154.68,328.47,154.89,328.31,155.21,328z M158.51,326.94c11.28-0.98,22.62-0.98,33.9,0c0-0.23,0-0.4-0.09-0.56
		c-0.68-2.8-1.71-5.51-3.08-8.05c-0.44-0.89-1.27-1.53-2.24-1.73c-2.32-0.55-4.69-0.86-7.08-0.94c-4.09-0.26-8.19-0.17-12.26,0.29
		c-1.51,0.19-3,0.59-4.49,0.91c-0.5,0.14-0.92,0.48-1.15,0.95c-1.47,2.54-2.57,5.27-3.29,8.12c-0.08,0.32-0.14,0.65-0.22,1.07
		L158.51,326.94z M175.51,343.74h7.11c0.26,0,0.51-0.02,0.76-0.08c0.62-0.13,1.02-0.74,0.89-1.36c-0.02-0.12-0.07-0.23-0.13-0.34
		c-0.51-0.89-1.23-1.64-2.1-2.17c-0.32-0.17-0.68-0.27-1.05-0.27c-3.64,0-7.29,0-10.93,0c-0.45,0-0.89,0.14-1.25,0.4
		c-0.69,0.58-1.31,1.23-1.85,1.95c-0.37,0.52-0.25,1.23,0.26,1.6c0.15,0.11,0.33,0.18,0.52,0.21c0.22,0.05,0.45,0.07,0.67,0.06
		H175.51z M155.81,336c-0.01,2.04,1.64,3.69,3.68,3.7c2.04,0.01,3.69-1.64,3.7-3.68c0.01-2.03-1.62-3.68-3.65-3.7
		c-2.03-0.03-3.7,1.58-3.73,3.61C155.81,335.95,155.81,335.98,155.81,336z M195.13,336c0.02-2.04-1.63-3.71-3.67-3.73
		c-2.04-0.02-3.71,1.63-3.73,3.67c-0.02,2.04,1.62,3.71,3.66,3.73c2.02,0.04,3.69-1.56,3.74-3.58
		C195.13,336.06,195.13,336.03,195.13,336z"/>
	<path class="st2" d="M220.06,169.1h123.17"/>
	<polygon points="337.97,187.05 369.06,169.1 337.97,151.15 	"/>
	<path class="st2" d="M220.06,253.1h123.17"/>
	<polygon points="337.97,271.05 369.06,253.1 337.97,235.15 	"/>
	<path class="st2" d="M220.06,337.1h123.17"/>
	<polygon points="337.97,355.05 369.06,337.1 337.97,319.14 	"/>
</g>
</svg>
