<?xml version="1.0" encoding="utf-8"?>
<!-- Generator: Adobe Illustrator 23.0.3, SVG Export Plug-In . SVG Version: 6.00 Build 0)  -->
<svg version="1.1" xmlns="http://www.w3.org/2000/svg" xmlns:xlink="http://www.w3.org/1999/xlink" x="0px" y="0px"
	 viewBox="0 0 500 500" style="enable-background:new 0 0 500 500;" xml:space="preserve">
<style type="text/css">
	.st0{display:none;}
	.st1{display:inline;}
	.st2{fill:#FFFFFF;}
	.st3{fill:#E0D536;}
	.st4{fill:#BF2DFF;}
	.st5{fill:#2EFFCE;}
	.st6{fill:#2BBCE3;}
	.st7{fill:#F99B06;}
	.st8{fill:#F06367;}
	.st9{fill:#EADA30;stroke:#231F20;stroke-miterlimit:10;}
	.st10{fill:#F06367;stroke:#231F20;stroke-miterlimit:10;}
	.st11{stroke:#000000;stroke-width:14;stroke-miterlimit:10;}
	.st12{stroke:#000000;stroke-width:12;stroke-miterlimit:10;}
	.st13{stroke:#000000;stroke-width:8;stroke-miterlimit:10;}
	.st14{fill:#FFFF00;}
	.st15{fill:#FF00FE;}
	.st16{fill:#00FFFF;}
	.st17{fill:#FE0000;}
	.st18{fill:#00FF01;}
	.st19{fill:#0000FE;}
	.st20{fill:#D68AED;}
	.st21{fill:#42FFED;}
	.st22{fill:none;stroke:#000000;stroke-width:7;stroke-miterlimit:10;}
	.st23{fill:none;stroke:#000000;stroke-width:20;stroke-miterlimit:10;}
</style>
<g id="Layer_2" class="st0">
	<g class="st1">
		<rect x="0.06" y="0.1" width="500" height="500"/>
	</g>
</g>
<g id="white_layer">
</g>
<g id="Layer_1">
	<g>
		<circle class="st3" cx="249.7" cy="248.68" r="171.58"/>
		<g>
			<path d="M212.05,212.02c16.45-1.48,27.73-14.35,28.3-32.11c0.37-11.54,0.07-23.1,0.15-34.65c0.05-7.59,3.76-12.36,9.5-11.72
				c6.94,0.77,8.69,5.63,8.62,11.89c-0.13,11.55-0.31,23.11,0.09,34.65c0.6,17.44,12.08,30.34,28.46,32.01
				c0-8.8,0.49-17.57-0.09-26.28c-1.54-23.19,21.13-30.48,36.22-20.63c9.68,6.33,18.57,14.71,25.83,23.76
				c19.68,24.55,26.68,54.08,29.89,84.64c1.1,10.47,1.57,21.05,1.48,31.57c-0.05,5.38-1.23,11.04-3.22,16.05
				c-6.79,17.08-17.75,22.48-35.28,17.16c-21.58-6.55-38.42-19.69-48.94-39.69c-3.47-6.6-5.17-14.69-5.62-22.22
				c-0.86-14.49-0.25-29.07-0.25-44.02c-14.55-3.85-27.72-9.64-37.64-23.1c-9.25,13.38-22.63,19.21-37.43,23.12
				c0,14.15-0.33,27.95,0.1,41.73c0.38,12.15-3.34,22.74-10.49,32.23c-12.81,17.01-29.09,28.75-50.29,33.3
				c-10.73,2.3-19.3-0.9-24.58-9.99c-3.8-6.55-7.66-14.25-7.83-21.53c-0.78-32.84,3.01-65.14,16.72-95.54
				c8.09-17.94,19.4-33.6,35.81-44.65c5.51-3.71,12.81-6.08,19.45-6.47c12.52-0.74,20.68,7.88,21.01,20.49
				C212.26,192,212.05,201.98,212.05,212.02z"/>
		</g>
	</g>
</g>
<g id="spider_diagram">
</g>
<g id="text">
</g>
</svg>
