<svg xmlns="http://www.w3.org/2000/svg" viewBox="0 0 500 500"><defs><style>.cls-1{fill:#fff;}.cls-2{fill:none;stroke:#000;stroke-miterlimit:10;stroke-width:12px;}</style></defs><title>combined flows</title><g id="white_layer" data-name="white layer"><circle class="cls-1" cx="252.06" cy="250.1" r="170"/></g><g id="Layer_1" data-name="Layer 1"><circle cx="175.47" cy="171.63" r="37.7"/><path class="cls-1" d="M168.07,167.24c-.68,2.14-1.36,4.27-2,6.41a2.68,2.68,0,0,1-1.84,1.95,2.59,2.59,0,0,1-3-3.3c.58-2.21,1.41-4.34,2-6.56a14.65,14.65,0,0,1,3.35-6.22c1.66-1.84,3.24-3.81,4.76-5.81a3.45,3.45,0,0,1,4.6-.83,4.36,4.36,0,0,1,1.79,4.87,63,63,0,0,0-2.2,12.22c-.06.64-.06,1.29-.13,1.93a7.36,7.36,0,0,0,.58,2.5c.76,3.53,3.16,6.18,4.77,9.26a21.88,21.88,0,0,1,1.31,3.72q1.65,5.28,3.25,10.59c.72,2.4-.82,4.71-3,4.54a2.94,2.94,0,0,1-2.6-2.14q-2.14-5.81-4.26-11.62a9.44,9.44,0,0,0-.73-1.54c-2.06-3.44-4.1-6.9-6.16-10.34a5.17,5.17,0,0,1-.75-2.73,56.75,56.75,0,0,1,.34-6.39c0-.17,0-.35,0-.52Z"/><path class="cls-1" d="M161.06,199a4.19,4.19,0,0,1,.55-2.08c1.8-3.57,3.57-7.18,5.41-10.72a7,7,0,0,0,.5-3c.09-1.26.09-2.53.13-3.8,0-.15-.05-.36.11-.42s.21.15.27.27q2.24,4.47,4.45,9a1.15,1.15,0,0,1,0,1.2c-2.17,3.82-4.32,7.67-6.5,11.49a2.34,2.34,0,0,1-2.77,1.36,2.91,2.91,0,0,1-2.06-2.44A7.61,7.61,0,0,1,161.06,199Z"/><path class="cls-1" d="M177.17,141.65a4.44,4.44,0,0,1,4.4,4.53,4.5,4.5,0,0,1-4.48,4.55,4.6,4.6,0,0,1-4.44-4.57A4.5,4.5,0,0,1,177.17,141.65Z"/><path class="cls-1" d="M185.62,172.58a2.71,2.71,0,0,1-2.05,2.58,3.7,3.7,0,0,1-3.6-.61c-1.07-1.07-2-2.23-3-3.36a1.07,1.07,0,0,1-.15-.9,54.35,54.35,0,0,1,.92-6.57c0-.16,0-.38.21-.44s.37.18.49.32l6.55,7.46A2.25,2.25,0,0,1,185.62,172.58Z"/><circle cx="175.47" cy="252.94" r="37.4"/><path class="cls-1" d="M159.79,247.89c.77-1.23,1.48-2.52,2.34-3.7a5.22,5.22,0,0,0,1.09-3.89,11.79,11.79,0,0,1,0-1.33H161.4a2,2,0,1,1,0-4.05H167a2,2,0,1,1,.47,4l-.17,0v2h.66c5.11,0,10.23,0,15.35,0a.73.73,0,0,0,.85-.63c.39-1.3.84-2.58,1.27-3.87a2.07,2.07,0,0,1,2.17-1.56h3.65a2,2,0,1,1,0,4.05c-.65,0-1.29,0-1.93,0a.52.52,0,0,0-.6.45c-.31,1-.66,2-1,3a.8.8,0,0,0,0,.59c1,1.65,2,3.28,3,4.88,1-.24,2-.54,3-.69a12.07,12.07,0,1,1-10.36,13.44,11.87,11.87,0,0,1,3.65-10.22c.22-.23.28-.38.09-.67-.61-.94-1.2-1.9-1.83-2.9l-3,4.78c-1.74,2.78-3.48,5.54-5.2,8.33a2.34,2.34,0,0,1-2.21,1.22c-2.41,0-4.83,0-7.25,0h-.61a12,12,0,0,1-6.76,8.88,11.61,11.61,0,0,1-9.08.53,12.1,12.1,0,1,1,8.52-22.63Zm29.82,5.68a8,8,0,1,0,12.68,1.29,7.88,7.88,0,0,0-9.22-3.39c.1.17.19.34.3.51l3.69,5.91a2,2,0,1,1-3.42,2.13l-2.84-4.55Zm-32-2.12a8,8,0,0,0-8.51,2.4A8,8,0,0,0,157,266.94c3-.69,5.72-3.38,5.94-5.83h-7.67a2,2,0,0,1-2-2.32,3,3,0,0,1,.41-1C154.91,255.7,156.23,253.6,157.57,251.45ZM168.88,245l6.42,10.27L181.72,245Zm-3.64,1.76c-.67,1.07-1.3,2.06-1.9,3.07-.06.09,0,.36.15.46a12.17,12.17,0,0,1,3.51,6.33c.07.34.19.44.52.44,1.09,0,2.18,0,3.27,0h.88ZM161,253.55,158.83,257H163A8,8,0,0,0,161,253.55Z"/><circle cx="175.47" cy="333.26" r="37.84"/><path class="cls-1" d="M155.21,328c-.27,0-.44-.06-.6-.06-1.19,0-2.39,0-3.58,0a1.6,1.6,0,0,1-1.78-1.81c0-.6,0-1.19,0-1.79a1.57,1.57,0,0,1,1.55-1.58,4.28,4.28,0,0,1,4.42,2.4c.11.19.24.37.42.66.14-.52.27-.94.37-1.37a29.07,29.07,0,0,1,3.47-8,7.25,7.25,0,0,1,5.38-3.51,49.52,49.52,0,0,1,8.42-.64c3,0,5.94,0,8.89.2a37.13,37.13,0,0,1,5.43.84,5.65,5.65,0,0,1,3.46,2.55,28,28,0,0,1,4,9.29c.05.18.1.36.19.66.17-.27.28-.47.42-.65.43-.52.83-1.07,1.3-1.54a3.81,3.81,0,0,1,3.49-.8,1.44,1.44,0,0,1,1.17,1.42c0,.72,0,1.45,0,2.17a1.51,1.51,0,0,1-1.56,1.52c-1.26,0-2.51,0-3.77,0-.17,0-.33,0-.54,0,.49.52.95,1,1.36,1.44a11,11,0,0,1,2.76,7.54,43.49,43.49,0,0,1-.77,8.21,18.56,18.56,0,0,1-.92,2.69,2.06,2.06,0,0,1-1.43,1.33.66.66,0,0,0-.34.52c0,.81,0,1.61,0,2.42a1.82,1.82,0,0,1-2,2.06h-2.9a1.79,1.79,0,0,1-2-2v-1.86c-4.69.12-9.35.35-14,.35s-9.3-.22-14-.35v1.75c0,1.52-.63,2.14-2.15,2.15h-2.85a1.78,1.78,0,0,1-2-2c0-.83,0-1.67,0-2.51,0-.29-.06-.5-.39-.57a1.92,1.92,0,0,1-1.36-1.19,12.77,12.77,0,0,1-1.26-4.44c-.18-1.8-.3-3.6-.44-5.39a11.58,11.58,0,0,1,3.44-9.49C154.68,328.47,154.89,328.31,155.21,328Zm3.3-1.06a195.81,195.81,0,0,1,33.9,0c0-.23,0-.4-.09-.56a33.56,33.56,0,0,0-3.08-8.05A3.24,3.24,0,0,0,187,316.6a36.08,36.08,0,0,0-7.08-.94,69.73,69.73,0,0,0-12.26.29c-1.51.19-3,.59-4.49.91a1.81,1.81,0,0,0-1.15.95,31.83,31.83,0,0,0-3.29,8.12C158.65,326.25,158.59,326.58,158.51,327Zm17,16.8h7.11a3.22,3.22,0,0,0,.76-.08,1.15,1.15,0,0,0,.76-1.7,6.07,6.07,0,0,0-2.1-2.17,2.25,2.25,0,0,0-1.05-.27c-3.64,0-7.29,0-10.93,0a2.09,2.09,0,0,0-1.25.4,12.21,12.21,0,0,0-1.85,1.95,1.15,1.15,0,0,0,.78,1.81,2.93,2.93,0,0,0,.67.06ZM155.81,336a3.69,3.69,0,1,0,3.73-3.68A3.67,3.67,0,0,0,155.81,336Zm39.32,0a3.7,3.7,0,1,0-3.74,3.67A3.66,3.66,0,0,0,195.13,336Z"/><path class="cls-2" d="M220.06,169.1H343.23"/><polygon points="337.97 187.05 369.06 169.1 337.97 151.15 337.97 187.05"/><path class="cls-2" d="M220.06,253.1H343.23"/><polygon points="337.97 271.05 369.06 253.1 337.97 235.15 337.97 271.05"/><path class="cls-2" d="M220.06,337.1H343.23"/><polygon points="337.97 355.05 369.06 337.1 337.97 319.14 337.97 355.05"/></g></svg>