<?xml version="1.0" encoding="utf-8"?>
<!-- Generator: Adobe Illustrator 23.0.3, SVG Export Plug-In . SVG Version: 6.00 Build 0)  -->
<svg version="1.1" xmlns="http://www.w3.org/2000/svg" xmlns:xlink="http://www.w3.org/1999/xlink" x="0px" y="0px"
	 viewBox="0 0 500 500" style="enable-background:new 0 0 500 500;" xml:space="preserve">
<style type="text/css">
	.st0{display:none;}
	.st1{display:inline;}
	.st2{fill:#FFFFFF;}
	.st3{fill:#E0D536;}
	.st4{fill:#BF2DFF;}
	.st5{fill:#2EFFCE;}
	.st6{fill:#2BBCE3;}
	.st7{fill:#F99B06;}
	.st8{fill:#F06367;}
	.st9{fill:#EADA30;stroke:#231F20;stroke-miterlimit:10;}
	.st10{fill:#F06367;stroke:#231F20;stroke-miterlimit:10;}
	.st11{stroke:#000000;stroke-width:14;stroke-miterlimit:10;}
	.st12{stroke:#000000;stroke-width:12;stroke-miterlimit:10;}
	.st13{stroke:#000000;stroke-width:8;stroke-miterlimit:10;}
	.st14{fill:#FFFF00;}
	.st15{fill:#FF00FE;}
	.st16{fill:#00FFFF;}
	.st17{fill:#FE0000;}
	.st18{fill:#00FF01;}
	.st19{fill:#0000FE;}
	.st20{fill:#D68AED;}
	.st21{fill:#42FFED;}
	.st22{fill:none;stroke:#000000;stroke-width:7;stroke-miterlimit:10;}
	.st23{fill:none;stroke:#000000;stroke-width:20;stroke-miterlimit:10;}
</style>
<g id="Layer_2" class="st0">
	<g class="st1">
		<rect x="0.06" y="0.1" width="500" height="500"/>
	</g>
</g>
<g id="white_layer">
</g>
<g id="Layer_1">
	<g>
		<circle class="st4" cx="250" cy="250" r="171.73"/>
		<g>
			<path d="M335.45,306c-24.15,8.1-43.84,2.01-59.6-18.05c-8.67,4.86-17.46,9.79-26.24,14.72c13.08,28.88-3.74,59.22-29.7,67.44
				c-25.29,8.01-52.45-5.74-61.14-30.91c-9.7-28.1,8.32-58.37,36.78-63.82c-0.72-6.41-1.44-12.83-2.17-19.35
				c-18.78,0.03-34.77-6.37-47.75-19.73c-10.89-11.21-16.88-24.75-17.91-40.32c-1.98-30.18,17.24-56.64,44.76-65.38
				c29.75-9.44,63.39,3.98,77.6,34.24c4.96-1.35,9.96-2.71,14.96-4.07c3.64-0.99,7.27-2.02,10.93-2.91
				c1.48-0.36,1.98-0.94,1.97-2.58c-0.08-8.31,5.35-15.38,13.01-17.24c7.88-1.92,16.06,1.72,19.78,8.81
				c4.07,7.76,1.63,17.54-5.62,22.52c-7.37,5.07-17.59,3.78-23.36-3.08c-1.11-1.32-2.01-1.54-3.61-1.1
				c-8.27,2.31-16.58,4.47-25.12,6.76c5.26,16.39,3.97,32.25-3.29,47.89c8.68,4.71,17.27,9.36,25.96,14.07
				c10.4-14.51,24.27-22.42,42.15-22.17c14.52,0.2,26.65,6.12,36.14,17.09c18.95,21.92,15.18,56.33-11.45,73.45
				c0.58,1.53,1.17,3.13,1.8,4.7c2.11,5.33,4.26,10.64,6.32,15.99c0.5,1.29,1.01,1.79,2.59,1.59c9.35-1.2,18.31,6.18,19.09,15.57
				c0.83,9.89-6.49,18.61-16.07,19.17c-7.73,0.45-14.48-3.45-17.49-10.09c-3.12-6.88-1.54-14.51,4.08-20.17
				c0.48-0.48,0.95-1.5,0.75-2.02C340.96,319.96,338.18,312.96,335.45,306z M136.81,191.78c-0.04,30.22,24.65,54.95,54.9,55
				c30.09,0.05,55.01-24.84,55.03-54.95c0.01-30.13-24.84-54.99-54.98-54.98C161.51,136.85,136.86,161.49,136.81,191.78z
				 M205.07,283.71c-21.71,0.03-39.68,18.02-39.69,39.72c-0.02,21.88,18.02,39.87,39.84,39.74c21.77-0.13,39.7-18.15,39.61-39.8
				C244.74,301.62,226.74,283.68,205.07,283.71z M316.89,220.95c-21.89,0-39.68,17.73-39.71,39.57
				c-0.03,21.95,17.81,39.82,39.75,39.8c21.74-0.02,39.62-17.95,39.62-39.73C356.55,238.8,338.69,220.95,316.89,220.95z
				 M201.02,255.52c0.74,6.43,1.46,12.63,2.18,18.89c18-0.02,32.08,7.28,42.5,21.79c8.94-4.97,17.82-9.9,26.77-14.88
				c-5.99-13.59-6.04-27.05-0.27-40.59c-8.82-4.73-17.5-9.38-26.26-14.07C234.94,242.53,220.19,252.28,201.02,255.52z"/>
			<path d="M191.77,200.22c2.76-2.11,5.31-4.12,7.94-6.01c0.66-0.47,1.71-0.93,2.41-0.74c7.52,2.08,14.46,5.26,19.87,11.11
				c2.67,2.89,4.42,6.28,5.21,10.14c0.62,3.03-0.08,4.66-2.73,6.28c-7.05,4.29-14.85,6.21-22.95,7c-11.36,1.1-22.64,0.7-33.56-2.98
				c-3.12-1.05-6.1-2.58-9.01-4.14c-2.58-1.38-3.13-3.06-2.63-5.87c1.2-6.78,5.09-11.82,10.8-15.19c4.3-2.54,9.09-4.28,13.75-6.17
				c0.81-0.33,2.22,0.08,3.02,0.63C186.55,196.11,189.07,198.16,191.77,200.22z"/>
			<path d="M191.46,155.13c9.98-0.03,18.07,8.41,18.01,18.8c-0.06,10.33-8.03,18.63-17.93,18.65c-9.99,0.02-18.08-8.42-18.01-18.79
				C173.59,163.43,181.55,155.15,191.46,155.13z"/>
			<path d="M203.76,347.4c-6.2-0.19-13.42-0.76-20.12-3.89c-5.36-2.5-7.01-3.28-3.46-10.51c2.38-4.84,6.8-7.54,11.56-9.69
				c6.09-2.75,6.17-2.82,11.23,1.47c1.68,1.42,2.91,1.59,4.27-0.08c3.34-4.09,7.06-3.66,11.31-1.43c4.33,2.28,8.44,4.69,11.09,8.97
				c0.24,0.38,0.47,0.77,0.68,1.17c2.72,5.46,2.07,7.34-3.43,9.87C221.09,345.98,213.29,347.43,203.76,347.4z"/>
			<path d="M205.13,292.48c7.32,0.16,13.17,6.57,13.05,14.29c-0.12,7.82-6.26,14.09-13.66,13.95c-7.35-0.14-13.17-6.65-13.01-14.56
				C191.66,298.45,197.77,292.32,205.13,292.48z"/>
			<path d="M317.16,265.76c2.07-1.65,3.85-3.16,5.75-4.53c0.59-0.43,1.56-0.78,2.21-0.6c5.33,1.4,10.41,3.51,14.06,7.75
				c1.9,2.21,3.24,5.04,4.3,7.79c1.05,2.73,0.33,3.86-2.31,5.32c-5.65,3.15-11.82,4.48-18.19,4.98c-8.27,0.65-16.45,0.2-24.39-2.46
				c-1.71-0.57-3.37-1.33-4.95-2.19c-3.38-1.83-3.76-2.9-2.65-6.62c1.1-3.7,3.26-6.8,6.47-8.75c3.7-2.25,7.76-3.93,11.73-5.71
				c0.56-0.25,1.61,0.07,2.18,0.48C313.32,262.62,315.16,264.17,317.16,265.76z"/>
			<path d="M330.21,245.64c0,7.83-6.11,14.27-13.44,14.17c-7.31-0.1-13.24-6.44-13.24-14.15c0-7.79,6.12-14.24,13.46-14.17
				C324.26,231.55,330.21,237.92,330.21,245.64z"/>
		</g>
	</g>
</g>
<g id="spider_diagram">
</g>
<g id="text">
</g>
</svg>
