<svg xmlns="http://www.w3.org/2000/svg" viewBox="0 0 1920 1080"><defs><style>.cls-1{opacity:0.5;}.cls-11,.cls-2{fill:#2effce;}.cls-12,.cls-16,.cls-2{stroke:#fff;}.cls-12,.cls-14,.cls-16,.cls-18,.cls-2,.cls-9{stroke-miterlimit:10;}.cls-3{opacity:0.55;}.cls-4{fill:#e0d536;}.cls-5{opacity:0.7;}.cls-6{opacity:0.4;}.cls-7{fill:#bf2dff;}.cls-8{opacity:0.3;}.cls-12,.cls-16,.cls-9{fill:none;}.cls-9{stroke:#b3b3b3;}.cls-10{font-size:17.38px;}.cls-10,.cls-15,.cls-17{fill:#fff;}.cls-10,.cls-13,.cls-15,.cls-19{font-family:Montserrat-Regular, Montserrat;}.cls-12,.cls-14{stroke-width:0.5px;}.cls-12{stroke-dasharray:5;}.cls-13{font-size:43.46px;}.cls-14,.cls-18{stroke:#000;}.cls-15{font-size:43px;}.cls-18{stroke-width:3px;}.cls-19{font-size:50px;}.cls-20{letter-spacing:0em;}.cls-21{letter-spacing:-0.01em;}.cls-22{letter-spacing:0em;}.cls-23{letter-spacing:-0.01em;}.cls-24{letter-spacing:-0.01em;}</style></defs><title>Challenges</title><g id="Layer_2" data-name="Layer 2"><rect width="1920" height="1080"/></g><g id="Layer_1" data-name="Layer 1"><g class="cls-1"><path class="cls-2" d="M959.85,539.51,675.32,369.11c41.78-69.77,99.24-116.44,176.09-143Z"/></g><g class="cls-3"><path class="cls-4" d="M959.85,539.51,632.36,591.87c-12.84-80.3,1.17-153,43-222.76Z"/></g><g class="cls-5"><path class="cls-4" d="M959.85,539.51,742.63,790.13c-61.45-53.26-97.43-118-110.27-198.26Z"/></g><g class="cls-6"><path class="cls-4" d="M959.85,539.51l-5.3,331.61c-81.32-1.3-150.46-27.72-211.92-81Z"/></g><g class="cls-6"><path class="cls-7" d="M959.85,539.51,1169,797c-63.13,51.27-133.08,75.47-214.4,74.17Z"/></g><g class="cls-5"><path class="cls-7" d="M959.85,539.51l325.65,62.81C1270.1,682.17,1232.07,745.68,1169,797Z"/></g><g class="cls-1"><path class="cls-7" d="M959.85,539.51,1249.69,378.3c39.53,71.07,51.22,144.16,35.81,224Z"/></g><g class="cls-8"><path class="cls-2" d="M959.85,539.51l118.4-309.8c76,29,131.9,77.51,171.44,148.59Z"/></g><g class="cls-5"><path class="cls-2" d="M959.85,539.51,851.41,226.08c76.86-26.59,150.87-25.4,226.84,3.63Z"/></g><g class="cls-1"><polyline class="cls-9" points="831.81 169.43 960.07 540.14 623.53 338.6"/></g><g class="cls-3"><polyline class="cls-9" points="623.53 338.6 960.07 540.14 572.72 602.07"/></g><g class="cls-5"><polyline class="cls-9" points="572.72 602.07 960.07 540.14 703.15 836.57"/></g><g class="cls-6"><polyline class="cls-9" points="703.15 836.57 960.07 540.14 953.8 932.36"/></g><g class="cls-6"><polyline class="cls-9" points="953.8 932.36 960.07 540.14 1207.38 844.63"/></g><g class="cls-5"><polyline class="cls-9" points="1207.38 844.63 960.07 540.14 1345.24 614.42"/></g><g class="cls-1"><polyline class="cls-9" points="1345.24 614.42 960.07 540.14 1302.88 349.46"/></g><g class="cls-8"><polyline class="cls-9" points="1302.88 349.46 960.07 540.14 1100.11 173.72"/></g><g class="cls-5"><polyline class="cls-9" points="1100.11 173.72 960.07 540.14 831.81 169.43"/></g><text class="cls-10" transform="translate(678.9 300.25) rotate(-49.24)">R</text><text class="cls-10" transform="matrix(0.68, -0.74, 0.74, 0.68, 687.06, 290.81)">e</text><text class="cls-10" transform="translate(694.09 283.15) rotate(-45.6)">d</text><text class="cls-10" transform="matrix(0.72, -0.69, 0.69, 0.72, 702.26, 274.8)">u</text><text class="cls-10" transform="matrix(0.74, -0.67, 0.67, 0.74, 710.66, 266.79)">c</text><text class="cls-10" transform="matrix(0.76, -0.65, 0.65, 0.76, 717.78, 260.4)">e</text><text class="cls-10" transform="matrix(0.78, -0.63, 0.63, 0.78, 725.75, 253.7)"> </text><text class="cls-10" transform="translate(729.22 250.84) rotate(-37.53)">A</text><text class="cls-10" transform="matrix(0.81, -0.59, 0.59, 0.81, 739.06, 243.33)">i</text><text class="cls-10" transform="matrix(0.82, -0.58, 0.58, 0.82, 742.79, 240.61)">r</text><text class="cls-10" transform="matrix(0.83, -0.56, 0.56, 0.83, 748.46, 236.63)"> </text><text class="cls-10" transform="matrix(0.84, -0.54, 0.54, 0.84, 752.17, 234.06)">p</text><text class="cls-10" transform="translate(761.97 227.74) rotate(-30.99)">o</text><text class="cls-10" transform="translate(771.28 222.19) rotate(-29.74)">l</text><text class="cls-10" transform="translate(775.31 219.88) rotate(-29)">l</text><text class="cls-10" transform="translate(779.31 217.63) rotate(-27.72)">u</text><text class="cls-10" transform="translate(789.62 212.24) rotate(-26.28)">t</text><text class="cls-10" transform="translate(795.91 209.14) rotate(-25.4)">i</text><text class="cls-10" transform="translate(800.08 207.13) rotate(-24.25)">o</text><text class="cls-10" transform="matrix(0.92, -0.38, 0.38, 0.92, 809.92, 202.69)">n</text><text class="cls-10" transform="translate(591.08 547.71) rotate(-91.52)">I</text><text class="cls-10" transform="translate(590.84 542.57) rotate(-89.69)">m</text><text class="cls-10" transform="translate(591.01 524.23) rotate(-87.28)">p</text><text class="cls-10" transform="translate(591.59 512.56) rotate(-85.77)">r</text><text class="cls-10" transform="matrix(0.1, -1, 1, 0.1, 592.06, 505.88)">o</text><text class="cls-10" transform="matrix(0.13, -0.99, 0.99, 0.13, 593.1, 495.4)">v</text><text class="cls-10" transform="matrix(0.16, -0.99, 0.99, 0.16, 594.24, 486.38)">e</text><text class="cls-10" transform="translate(595.89 476.1) rotate(-79.82)"> </text><text class="cls-10" transform="matrix(0.2, -0.98, 0.98, 0.2, 596.64, 471.67)">g</text><text class="cls-10" transform="translate(599.04 460.08) rotate(-76.86)">r</text><text class="cls-10" transform="translate(600.53 453.58) rotate(-75.44)">e</text><text class="cls-10" transform="matrix(0.28, -0.96, 0.96, 0.28, 603.15, 443.5)">e</text><text class="cls-10" transform="translate(606.06 433.5) rotate(-71.88)">n</text><text class="cls-10" transform="translate(609.71 422.39) rotate(-70.09)">e</text><text class="cls-10" transform="translate(613.28 412.59) rotate(-68.7)">r</text><text class="cls-10" transform="translate(615.87 405.91) rotate(-67.39)">y</text><text class="cls-10" transform="translate(676.68 776.04) rotate(-130.11)">I</text><text class="cls-10" transform="matrix(-0.63, -0.78, 0.78, -0.63, 673.31, 772.11)">n</text><text class="cls-10" transform="matrix(-0.6, -0.8, 0.8, -0.6, 665.99, 762.97)">c</text><text class="cls-10" transform="matrix(-0.58, -0.81, 0.81, -0.58, 660.15, 755.2)">r</text><text class="cls-10" transform="translate(656.23 749.79) rotate(-124.29)">e</text><text class="cls-10" transform="matrix(-0.54, -0.84, 0.84, -0.54, 650.51, 741.42)">a</text><text class="cls-10" transform="translate(645.03 732.83) rotate(-121.05)">s</text><text class="cls-10" transform="matrix(-0.49, -0.87, 0.87, -0.49, 640.68, 725.64)">e</text><text class="cls-10" transform="translate(635.57 716.53) rotate(-118.2)"> </text><text class="cls-10" transform="matrix(-0.45, -0.89, 0.89, -0.45, 633.42, 712.59)">S</text><text class="cls-10" transform="matrix(-0.43, -0.9, 0.9, -0.43, 628.63, 703.16)">a</text><text class="cls-10" transform="translate(624.31 693.91) rotate(-113.85)">f</text><text class="cls-10" transform="translate(621.99 688.73) rotate(-112.53)">e</text><text class="cls-10" transform="matrix(-0.36, -0.93, 0.93, -0.36, 618.02, 679.11)">t</text><text class="cls-10" transform="translate(615.55 672.75) rotate(-109.81)">y</text><text class="cls-10" transform="translate(892.37 902.32) rotate(-169.12)">R</text><text class="cls-10" transform="translate(880.12 899.95) rotate(-167.28)">e</text><text class="cls-10" transform="translate(869.97 897.68) rotate(-165.48)">d</text><text class="cls-10" transform="translate(858.67 894.75) rotate(-163.55)">u</text><text class="cls-10" transform="translate(847.54 891.45) rotate(-161.76)">c</text><text class="cls-10" transform="matrix(-0.94, -0.34, 0.34, -0.94, 838.45, 888.46)">e</text><text class="cls-10" transform="matrix(-0.93, -0.36, 0.36, -0.93, 828.65, 884.88)"> </text><text class="cls-10" transform="translate(824.47 883.33) rotate(-157.26)">N</text><text class="cls-10" transform="matrix(-0.91, -0.42, 0.42, -0.91, 811.54, 877.88)">o</text><text class="cls-10" transform="translate(801.73 873.31) rotate(-153.89)">i</text><text class="cls-10" transform="translate(797.57 871.29) rotate(-152.81)">s</text><text class="cls-10" transform="translate(790.07 867.45) rotate(-151.26)">e</text><text class="cls-10" transform="matrix(-0.8, 0.6, -0.6, -0.8, 1179.3, 835.58)">i</text><text class="cls-10" transform="translate(1175.63 838.35) rotate(144.6)">n</text><text class="cls-10" transform="matrix(-0.83, 0.56, -0.56, -0.83, 1166.06, 845.13)">c</text><text class="cls-10" transform="matrix(-0.84, 0.54, -0.54, -0.84, 1157.99, 850.53)">r</text><text class="cls-10" transform="matrix(-0.85, 0.52, -0.52, -0.85, 1152.35, 854.16)">e</text><text class="cls-10" transform="translate(1143.7 859.42) rotate(150.26)">a</text><text class="cls-10" transform="translate(1134.83 864.47) rotate(151.75)">s</text><text class="cls-10" transform="matrix(-0.89, 0.45, -0.45, -0.89, 1127.44, 868.46)">e</text><text class="cls-10" transform="translate(1118.09 873.13) rotate(154.5)"> </text><text class="cls-10" transform="translate(1114.07 875.11) rotate(155.84)">p</text><text class="cls-10" transform="translate(1103.4 879.88) rotate(157.72)">o</text><text class="cls-10" transform="translate(1093.37 883.96) rotate(159.02)">i</text><text class="cls-10" transform="translate(1089.09 885.65) rotate(160.39)">n</text><text class="cls-10" transform="translate(1078.06 889.54) rotate(161.97)">t</text><text class="cls-10" transform="translate(1071.42 891.71) rotate(163.27)">s</text><text class="cls-10" transform="translate(1063.33 894.13) rotate(164.36)"> </text><text class="cls-10" transform="translate(1059.03 895.37) rotate(165.64)">o</text><text class="cls-10" transform="matrix(-0.97, 0.22, -0.22, -0.97, 1048.52, 898.03)">f</text><text class="cls-10" transform="translate(1042.81 899.33) rotate(167.88)"> </text><text class="cls-10" transform="translate(1038.4 900.28) rotate(168.63)">i</text><text class="cls-10" transform="matrix(-0.98, 0.17, -0.17, -0.98, 1033.88, 901.23)">n</text><text class="cls-10" transform="translate(1022.38 903.24) rotate(171.43)">t</text><text class="cls-10" transform="matrix(-0.99, 0.13, -0.13, -0.99, 1015.81, 904.26)">e</text><text class="cls-10" transform="translate(1005.46 905.55) rotate(174.08)">r</text><text class="cls-10" transform="matrix(-1, 0.08, -0.08, -1, 998.82, 906.27)">e</text><text class="cls-10" transform="translate(988.42 907.1) rotate(176.73)">s</text><text class="cls-10" transform="translate(979.97 907.58) rotate(177.84)">t</text><text class="cls-10" transform="translate(1317.49 628.5) rotate(103.92)">i</text><text class="cls-10" transform="translate(1316.42 632.98) rotate(105.09)">n</text><text class="cls-10" transform="translate(1313.36 644.3) rotate(106.66)">c</text><text class="cls-10" transform="translate(1310.55 653.61) rotate(107.92)">r</text><text class="cls-10" transform="translate(1308.52 659.97) rotate(109.22)">e</text><text class="cls-10" transform="translate(1305.19 669.55) rotate(110.79)">a</text><text class="cls-10" transform="matrix(-0.38, 0.93, -0.93, -0.38, 1301.56, 679.06)">s</text><text class="cls-10" transform="translate(1298.39 686.86) rotate(113.82)">e</text><text class="cls-10" transform="translate(1294.14 696.39) rotate(115.05)"> </text><text class="cls-10" transform="matrix(-0.44, 0.9, -0.9, -0.44, 1292.27, 700.49)">p</text><text class="cls-10" transform="translate(1287.08 710.95) rotate(118.35)">u</text><text class="cls-10" transform="translate(1281.58 721.15) rotate(120.31)">b</text><text class="cls-10" transform="matrix(-0.53, 0.85, -0.85, -0.53, 1275.63, 731.26)">l</text><text class="cls-10" transform="translate(1273.2 735.19) rotate(122.47)">i</text><text class="cls-10" transform="translate(1270.75 739.1) rotate(123.68)">c</text><text class="cls-10" transform="translate(1265.33 747.18) rotate(124.87)"> </text><text class="cls-10" transform="translate(1262.77 750.87) rotate(125.83)">t</text><text class="cls-10" transform="matrix(-0.6, 0.8, -0.8, -0.6, 1258.67, 756.55)">r</text><text class="cls-10" transform="translate(1254.62 761.96) rotate(128.37)">a</text><text class="cls-10" transform="translate(1248.32 769.93) rotate(130.14)">n</text><text class="cls-10" transform="translate(1240.78 778.85) rotate(131.74)">s</text><text class="cls-10" transform="matrix(-0.69, 0.73, -0.73, -0.69, 1235.2, 785.13)">p</text><text class="cls-10" transform="matrix(-0.71, 0.71, -0.71, -0.71, 1227.17, 793.65)">o</text><text class="cls-10" transform="translate(1219.48 801.3) rotate(136.32)">r</text><text class="cls-10" transform="matrix(-0.74, 0.68, -0.68, -0.74, 1214.31, 806.24)">t</text><text class="cls-10" transform="translate(1301.46 400.58) rotate(67.64)">I</text><text class="cls-10" transform="matrix(0.35, 0.94, -0.94, 0.35, 1303.52, 405.31)">m</text><text class="cls-10" transform="translate(1309.89 422.49) rotate(71.82)">p</text><text class="cls-10" transform="translate(1313.51 433.63) rotate(73.33)">r</text><text class="cls-10" transform="matrix(0.26, 0.96, -0.96, 0.26, 1315.45, 439.99)">o</text><text class="cls-10" transform="translate(1318.22 450.18) rotate(76.38)">v</text><text class="cls-10" transform="translate(1320.38 459.02) rotate(77.99)">e</text><text class="cls-10" transform="translate(1322.51 469.21) rotate(79.25)"> </text><text class="cls-10" transform="translate(1323.38 473.62) rotate(80.49)">a</text><text class="cls-10" transform="translate(1325.06 483.67) rotate(82.17)">c</text><text class="cls-10" transform="translate(1326.37 493.13) rotate(83.78)">c</text><text class="cls-10" transform="matrix(0.08, 1, -1, 0.08, 1327.41, 502.63)">e</text><text class="cls-10" transform="translate(1328.23 513.02) rotate(87)">s</text><text class="cls-10" transform="translate(1328.67 521.43) rotate(88.39)">s</text><text class="cls-10" transform="translate(1328.89 529.88) rotate(89.45)">i</text><text class="cls-10" transform="translate(1328.97 534.47) rotate(90.76)">b</text><text class="cls-10" transform="translate(1328.78 546.18) rotate(92.05)">i</text><text class="cls-10" transform="translate(1328.61 550.83) rotate(92.77)">l</text><text class="cls-10" transform="translate(1328.39 555.45) rotate(93.49)">i</text><text class="cls-10" transform="translate(1328.12 560.1) rotate(94.38)">t</text><text class="cls-10" transform="translate(1327.61 566.88) rotate(95.57)">y</text><text class="cls-10" transform="translate(1132.64 213.62) rotate(28.57)">M</text><text class="cls-10" transform="translate(1147.1 221.59) rotate(30.21)">i</text><text class="cls-10" transform="matrix(0.85, 0.52, -0.52, 0.85, 1151.12, 223.88)">n</text><text class="cls-10" transform="translate(1161.06 230.02) rotate(32.83)">i</text><text class="cls-10" transform="translate(1164.97 232.41) rotate(34.71)">m</text><text class="cls-10" transform="matrix(0.8, 0.6, -0.6, 0.8, 1179.98, 242.94)">i</text><text class="cls-10" transform="translate(1183.7 245.68) rotate(37.73)">z</text><text class="cls-10" transform="translate(1190.55 250.96) rotate(39.33)">e</text><text class="cls-10" transform="matrix(0.76, 0.65, -0.65, 0.76, 1198.59, 257.59)"> </text><text class="cls-10" transform="translate(1202.02 260.49) rotate(41.83)">a</text><text class="cls-10" transform="matrix(0.73, 0.69, -0.69, 0.73, 1209.63, 267.3)">c</text><text class="cls-10" transform="translate(1216.56 273.87) rotate(45.11)">c</text><text class="cls-10" transform="matrix(0.69, 0.72, -0.72, 0.69, 1223.4, 280.77)">i</text><text class="cls-10" transform="matrix(0.67, 0.74, -0.74, 0.67, 1226.61, 284.08)">d</text><text class="cls-10" transform="translate(1234.48 292.73) rotate(49.46)">e</text><text class="cls-10" transform="matrix(0.63, 0.78, -0.78, 0.63, 1241.26, 300.64)">n</text><text class="cls-10" transform="translate(1248.56 309.77) rotate(52.69)">t</text><text class="cls-10" transform="matrix(0.59, 0.81, -0.81, 0.59, 1252.81, 315.33)">s</text><text class="cls-10" transform="translate(852.78 186.89) rotate(-16.82)">I</text><text class="cls-10" transform="translate(857.69 185.3) rotate(-15.15)">m</text><text class="cls-10" transform="translate(875.39 180.57) rotate(-12.95)">p</text><text class="cls-10" transform="matrix(0.98, -0.2, 0.2, 0.98, 886.83, 177.97)">r</text><text class="cls-10" transform="translate(893.34 176.61) rotate(-10.19)">o</text><text class="cls-10" transform="translate(903.75 174.75) rotate(-8.63)">v</text><text class="cls-10" transform="translate(912.74 173.37) rotate(-7.08)">e</text><text class="cls-10" transform="matrix(0.99, -0.1, 0.1, 0.99, 923.09, 172.12)"> </text><text class="cls-10" transform="translate(927.58 171.65) rotate(-4.91)">t</text><text class="cls-10" transform="translate(934.51 171.02) rotate(-3.36)">h</text><text class="cls-10" transform="translate(946.2 170.34) rotate(-1.5)">e</text><text class="cls-10" transform="translate(956.63 170.09) rotate(-0.04)">r</text><text class="cls-10" transform="matrix(1, 0.04, -0.04, 1, 963.35, 169.98)">m</text><text class="cls-10" transform="translate(981.65 170.72) rotate(4.46)">a</text><text class="cls-10" transform="matrix(1, 0.1, -0.1, 1, 991.81, 171.54)">l</text><text class="cls-10" transform="matrix(0.99, 0.11, -0.11, 0.99, 996.43, 172)"> </text><text class="cls-10" transform="translate(1000.88 172.48) rotate(7.63)">c</text><text class="cls-10" transform="matrix(0.99, 0.16, -0.16, 0.99, 1010.35, 173.74)">o</text><text class="cls-10" transform="matrix(0.98, 0.2, -0.2, 0.98, 1021, 175.4)">m</text><text class="cls-10" transform="translate(1038.94 179.19) rotate(13.49)">f</text><text class="cls-10" transform="matrix(0.97, 0.25, -0.25, 0.97, 1044.48, 180.49)">o</text><text class="cls-10" transform="matrix(0.96, 0.28, -0.28, 0.96, 1054.94, 183.27)">r</text><text class="cls-10" transform="translate(1061.83 185.25) rotate(17.1)">t</text><path class="cls-4" d="M960,539.81l-3.6,303C789,840.8,655,703.54,657,536.2c.67-55.72,14-103.09,42.4-151Z"/><path class="cls-7" d="M960,539.81l264.2-148.37c81.95,145.91,30.09,330.62-115.82,412.57-48.59,27.28-96.26,39.45-152,38.79Z"/><path class="cls-11" d="M960,539.81,699.37,385.19c85.39-143.92,271.29-191.37,415.21-106,47.93,28.44,82.3,63.64,109.58,112.23Z"/><path class="cls-12" d="M960,539.87l-5.1,428.52C718.2,965.58,528.62,771.44,531.44,534.77c.94-78.81,19.74-145.8,60-213.58Z"/><path class="cls-12" d="M960,539.87,1333.63,330c115.9,206.37,42.55,467.62-163.82,583.51-68.72,38.6-136.13,55.8-214.94,54.86Z"/><path class="cls-12" d="M960,539.87,591.4,321.19C712.18,117.63,975.09,50.53,1178.65,171.3c67.78,40.22,116.39,90,155,158.72Z"/><text class="cls-13" transform="translate(1191.15 590.93) rotate(105.05)">s</text><text class="cls-13" transform="matrix(-0.35, 0.93, -0.93, -0.35, 1186, 610.78)">o</text><text class="cls-13" transform="matrix(-0.45, 0.89, -0.89, -0.45, 1176.57, 635.54)">c</text><text class="cls-13" transform="matrix(-0.52, 0.86, -0.86, -0.52, 1165.58, 656.8)">i</text><text class="cls-13" transform="translate(1160.03 666.53) rotate(124.94)">a</text><text class="cls-13" transform="matrix(-0.63, 0.77, -0.77, -0.63, 1145.47, 686.95)">l</text><text class="cls-13" transform="matrix(0.99, -0.13, 0.13, 0.99, 914.85, 307.34)">p</text><text class="cls-13" transform="translate(943.23 303.64) rotate(-0.48)">h</text><text class="cls-13" transform="translate(971.5 303.49) rotate(5.13)">y</text><text class="cls-13" transform="translate(994.06 305.51) rotate(10.4)">s</text><text class="cls-13" transform="translate(1014.38 309.39) rotate(14.56)">i</text><text class="cls-13" transform="translate(1025.22 311.92) rotate(19.21)">c</text><text class="cls-13" transform="translate(1047.61 319.66) rotate(25.33)">a</text><text class="cls-13" transform="translate(1070.21 330.63) rotate(29.44)">l</text><text class="cls-13" transform="matrix(-0.74, -0.68, 0.68, -0.74, 816.97, 729.6)">m</text><text class="cls-13" transform="matrix(-0.63, -0.78, 0.78, -0.63, 784.23, 698.59)">e</text><text class="cls-13" transform="translate(768.17 678.84) rotate(-122.3)">n</text><text class="cls-13" transform="translate(753.04 654.4) rotate(-117.13)">t</text><text class="cls-13" transform="translate(745.07 639.33) rotate(-112.26)">a</text><text class="cls-13" transform="translate(735.81 616.05) rotate(-107.65)">l</text><path class="cls-14" d="M224.06,132.66v-3.37a3.37,3.37,0,1,1-3.36,3.37,3.37,3.37,0,0,1,3.36-3.37h0Z"/><text class="cls-15" transform="translate(1383.44 694.1) rotate(110.72)">i</text><text class="cls-15" transform="matrix(-0.39, 0.92, -0.92, -0.39, 1379.64, 704.71)">n</text><text class="cls-15" transform="matrix(-0.45, 0.89, -0.89, -0.45, 1368.23, 731.1)">c</text><text class="cls-15" transform="matrix(-0.48, 0.88, -0.88, -0.48, 1357.58, 752.15)">l</text><text class="cls-15" transform="matrix(-0.52, 0.85, -0.85, -0.52, 1352.35, 762.08)">u</text><text class="cls-15" transform="translate(1337.43 786.43) rotate(124.44)">s</text><text class="cls-15" transform="translate(1325.62 803.51) rotate(126.48)">i</text><text class="cls-15" transform="translate(1319.06 812.67) rotate(128.91)">o</text><text class="cls-15" transform="matrix(-0.67, 0.74, -0.74, -0.67, 1302.45, 833.32)">n</text><text class="cls-15" transform="translate(838.38 105.84) rotate(-14.3)">s</text><text class="cls-15" transform="matrix(0.98, -0.19, 0.19, 0.98, 858.34, 100.63)">u</text><text class="cls-15" transform="translate(886.37 95.18) rotate(-8.09)">s</text><text class="cls-15" transform="translate(906.89 92.29) rotate(-5.69)">t</text><text class="cls-15" transform="translate(923.9 90.5) rotate(-3.02)">a</text><text class="cls-15" transform="translate(948.94 89.31) rotate(-0.72)">i</text><text class="cls-15" transform="translate(960.19 88.96) rotate(1.83)">n</text><text class="cls-15" transform="translate(988.85 89.92) rotate(5.24)">a</text><text class="cls-15" transform="matrix(0.99, 0.15, -0.15, 0.99, 1013.67, 92.13)">b</text><text class="cls-15" transform="matrix(0.98, 0.19, -0.19, 0.98, 1042.15, 96.66)">i</text><text class="cls-15" transform="matrix(0.98, 0.22, -0.22, 0.98, 1053.31, 98.87)">l</text><text class="cls-15" transform="translate(1064.43 101.37) rotate(14.15)">i</text><text class="cls-15" transform="matrix(0.96, 0.28, -0.28, 0.96, 1075.4, 104.09)">t</text><text class="cls-15" transform="translate(1091.49 108.61) rotate(18.49)">y</text><text class="cls-15" transform="translate(608.12 821.76) rotate(-127.19)">c</text><text class="cls-15" transform="matrix(-0.56, -0.83, 0.83, -0.56, 593.9, 803.12)">o</text><text class="cls-15" transform="translate(578.8 781.47) rotate(-119.52)">m</text><text class="cls-15" transform="translate(557 741.97) rotate(-115.75)">f</text><text class="cls-15" transform="matrix(-0.39, -0.92, 0.92, -0.39, 550.83, 729.54)">o</text><text class="cls-15" transform="matrix(-0.35, -0.94, 0.94, -0.35, 540.45, 705.04)">r</text><text class="cls-15" transform="matrix(-0.31, -0.95, 0.95, -0.31, 534.32, 688.54)">t</text><polyline class="cls-16" points="561.83 303.64 959.97 539.86 954.46 1002.77"/><polyline class="cls-16" points="954.46 1002.77 959.97 539.86 1363.61 313.18"/><polyline class="cls-16" points="1363.61 313.18 959.97 539.86 561.83 303.64"/></g><g id="Logo"><circle class="cls-17" cx="960" cy="540" r="170"/><path class="cls-18" d="M1007.05,560.36c4.52-5.25,8.73-10.22,13.06-15.09a4.29,4.29,0,0,1,2.79-1.41c15.48-.09,30.95-.07,46.42-.06.39,0,.79.06,1.35.1v11.5h-2.93c-12.82,0-25.63,0-38.44,0a4.78,4.78,0,0,0-4.11,1.87c-7.14,8.41-14.37,16.74-21.9,25.47-10.36-26.31-20.58-52.29-31-78.89-12.54,35.85-24.89,71.17-37.43,107l-34.82-78c-1.14,1.73-2.08,3.15-3,4.58-3.57,5.45-7.1,10.94-10.77,16.34a3.8,3.8,0,0,1-2.58,1.58c-12,.1-24,.07-36,.06a10.62,10.62,0,0,1-1.1-.14V543.91c.81,0,1.66-.11,2.5-.11,9.11,0,18.22-.09,27.32.05a4.53,4.53,0,0,0,4.42-2.45c6.38-10,12.9-19.86,19.37-29.77.52-.81,1.07-1.59,1.92-2.84,10.56,23.62,21,46.9,31.61,70.71,12.7-36.46,25.22-72.38,37.74-108.3l.55-.05C983.59,500.74,995.23,530.32,1007.05,560.36Z"/><polygon points="831 549.15 854.3 569.13 854.3 549.15 854.3 529.18 831 549.15"/><polygon points="1089 549.15 1065.7 529.18 1065.7 549.15 1065.7 569.13 1089 549.15"/></g><g id="text"><text class="cls-19" transform="translate(866.4 456.06)"><tspan class="cls-20">h</tspan><tspan class="cls-21" x="33.95" y="0">e</tspan><tspan x="63.4" y="0">a</tspan><tspan class="cls-22" x="92.9" y="0">l</tspan><tspan x="106.45" y="0">t</tspan><tspan class="cls-23" x="126.75" y="0">h</tspan><tspan x="160.1" y="0">y</tspan></text><text class="cls-19" transform="translate(857.18 656.06)"><tspan class="cls-20">m</tspan><tspan x="53.15" y="0">obili</tspan><tspan class="cls-24" x="158.75" y="0">t</tspan><tspan x="178.55" y="0">y</tspan></text></g></svg>