<svg xmlns="http://www.w3.org/2000/svg" viewBox="0 0 1920 1080"><defs><style>.cls-1{opacity:0.5;}.cls-11,.cls-2{fill:#2effce;}.cls-12,.cls-16,.cls-2{stroke:#fff;}.cls-12,.cls-14,.cls-16,.cls-18,.cls-2,.cls-9{stroke-miterlimit:10;}.cls-3{opacity:0.55;}.cls-4{fill:#e0d536;}.cls-5{opacity:0.7;}.cls-6{opacity:0.4;}.cls-7{fill:#bf2dff;}.cls-8{opacity:0.3;}.cls-12,.cls-16,.cls-9{fill:none;}.cls-9{stroke:#b3b3b3;}.cls-10{font-size:17.38px;font-family:Montserrat-Bold, Montserrat;font-weight:700;}.cls-10,.cls-15,.cls-17{fill:#fff;}.cls-12{stroke-dasharray:5;}.cls-13,.cls-15{font-size:43px;}.cls-13,.cls-15,.cls-19{font-family:Montserrat-Regular, Montserrat;}.cls-14,.cls-18{stroke:#000;}.cls-14{stroke-width:0.5px;}.cls-16{stroke-width:2px;}.cls-18{stroke-width:3px;}.cls-19{font-size:50px;}.cls-20{letter-spacing:0em;}.cls-21{letter-spacing:-0.01em;}.cls-22{letter-spacing:0em;}.cls-23{letter-spacing:-0.01em;}.cls-24{letter-spacing:-0.01em;}</style></defs><title>Challenges</title><g id="Layer_1" data-name="Layer 1"><g class="cls-1"><path class="cls-2" d="M959.85,539.51,675.32,369.11c41.78-69.77,99.24-116.44,176.09-143Z"/></g><g class="cls-3"><path class="cls-4" d="M959.85,539.51,632.36,591.87c-12.84-80.3,1.17-153,43-222.76Z"/></g><g class="cls-5"><path class="cls-4" d="M959.85,539.51,742.63,790.13c-61.45-53.26-97.43-118-110.27-198.26Z"/></g><g class="cls-6"><path class="cls-4" d="M959.85,539.51l-5.3,331.61c-81.32-1.3-150.46-27.72-211.92-81Z"/></g><g class="cls-6"><path class="cls-7" d="M959.85,539.51,1169,797c-63.13,51.27-133.08,75.47-214.4,74.17Z"/></g><g class="cls-5"><path class="cls-7" d="M959.85,539.51l325.65,62.81C1270.1,682.17,1232.07,745.68,1169,797Z"/></g><g class="cls-1"><path class="cls-7" d="M959.85,539.51,1249.69,378.3c39.53,71.07,51.22,144.16,35.81,224Z"/></g><g class="cls-8"><path class="cls-2" d="M959.85,539.51l118.4-309.8c76,29,131.9,77.51,171.44,148.59Z"/></g><g class="cls-5"><path class="cls-2" d="M959.85,539.51,851.41,226.08c76.86-26.59,150.87-25.4,226.84,3.63Z"/></g><g class="cls-1"><polyline class="cls-9" points="831.81 169.43 960.07 540.14 623.53 338.6"/></g><g class="cls-3"><polyline class="cls-9" points="623.53 338.6 960.07 540.14 572.72 602.07"/></g><g class="cls-5"><polyline class="cls-9" points="572.72 602.07 960.07 540.14 703.15 836.57"/></g><g class="cls-6"><polyline class="cls-9" points="703.15 836.57 960.07 540.14 953.8 932.36"/></g><g class="cls-6"><polyline class="cls-9" points="953.8 932.36 960.07 540.14 1207.38 844.63"/></g><g class="cls-5"><polyline class="cls-9" points="1207.38 844.63 960.07 540.14 1345.24 614.42"/></g><g class="cls-1"><polyline class="cls-9" points="1345.24 614.42 960.07 540.14 1302.88 349.46"/></g><g class="cls-8"><polyline class="cls-9" points="1302.88 349.46 960.07 540.14 1100.11 173.72"/></g><g class="cls-5"><polyline class="cls-9" points="1100.11 173.72 960.07 540.14 831.81 169.43"/></g><text class="cls-10" transform="matrix(0.6, -0.8, 0.8, 0.6, 664.43, 318.86)">r</text><text class="cls-10" transform="matrix(0.62, -0.79, 0.79, 0.62, 668.76, 313.03)">e</text><text class="cls-10" transform="matrix(0.64, -0.77, 0.77, 0.64, 675.45, 304.47)">d</text><text class="cls-10" transform="matrix(0.67, -0.75, 0.75, 0.67, 683.09, 295.31)">u</text><text class="cls-10" transform="matrix(0.69, -0.73, 0.73, 0.69, 690.99, 286.48)">c</text><text class="cls-10" transform="translate(697.92 279.17) rotate(-44.75)">e</text><text class="cls-10" transform="matrix(0.73, -0.69, 0.69, 0.73, 705.69, 271.52)"> </text><text class="cls-10" transform="matrix(0.74, -0.67, 0.67, 0.74, 709.17, 268.14)">A</text><text class="cls-10" transform="matrix(0.76, -0.65, 0.65, 0.76, 719.05, 259.34)">i</text><text class="cls-10" transform="translate(722.99 255.98) rotate(-39.31)">r</text><text class="cls-10" transform="translate(728.75 251.28) rotate(-38.27)"> </text><text class="cls-10" transform="translate(732.51 248.25) rotate(-36.86)">p</text><text class="cls-10" transform="translate(742.03 241.12) rotate(-34.91)">o</text><text class="cls-10" transform="translate(751.33 234.67) rotate(-33.54)">l</text><text class="cls-10" transform="translate(755.67 231.79) rotate(-32.68)">l</text><text class="cls-10" transform="translate(759.97 228.98) rotate(-31.29)">u</text><text class="cls-10" transform="matrix(0.87, -0.5, 0.5, 0.87, 770.14, 222.84)">t</text><text class="cls-10" transform="translate(776.65 219.13) rotate(-28.71)">i</text><text class="cls-10" transform="matrix(0.89, -0.46, 0.46, 0.89, 781.16, 216.63)">o</text><text class="cls-10" transform="translate(791.18 211.42) rotate(-25.64)">n</text><text class="cls-10" transform="translate(591.21 551.14) rotate(-92.04)">i</text><text class="cls-10" transform="translate(590.93 546) rotate(-90.24)">m</text><text class="cls-10" transform="translate(590.91 527.91) rotate(-87.86)">p</text><text class="cls-10" transform="matrix(0.06, -1, 1, 0.06, 591.38, 516)">r</text><text class="cls-10" transform="translate(591.83 508.73) rotate(-84.77)">o</text><text class="cls-10" transform="matrix(0.12, -0.99, 0.99, 0.12, 592.83, 497.77)">v</text><text class="cls-10" transform="translate(594.04 487.8) rotate(-81.28)">e</text><text class="cls-10" transform="matrix(0.17, -0.98, 0.98, 0.17, 595.73, 477.04)"> </text><text class="cls-10" transform="translate(596.53 472.25) rotate(-78.52)">g</text><text class="cls-10" transform="matrix(0.23, -0.97, 0.97, 0.23, 598.96, 460.42)">r</text><text class="cls-10" transform="translate(600.59 453.33) rotate(-75.36)">e</text><text class="cls-10" transform="translate(603.34 442.8) rotate(-73.55)">e</text><text class="cls-10" transform="translate(606.41 432.38) rotate(-71.67)">n</text><text class="cls-10" transform="matrix(0.35, -0.94, 0.94, 0.35, 610.19, 421)">e</text><text class="cls-10" transform="translate(613.97 410.76) rotate(-68.35)">r</text><text class="cls-10" transform="translate(616.79 403.62) rotate(-66.93)">y</text><text class="cls-10" transform="translate(679.13 778.88) rotate(-130.7)">i</text><text class="cls-10" transform="matrix(-0.63, -0.77, 0.77, -0.63, 675.74, 775)">n</text><text class="cls-10" transform="translate(668.11 765.68) rotate(-127.57)">c</text><text class="cls-10" transform="matrix(-0.59, -0.81, 0.81, -0.59, 661.91, 757.6)">r</text><text class="cls-10" transform="translate(657.61 751.74) rotate(-124.65)">e</text><text class="cls-10" transform="matrix(-0.54, -0.84, 0.84, -0.54, 651.58, 743.02)">a</text><text class="cls-10" transform="translate(645.8 734.08) rotate(-121.24)">s</text><text class="cls-10" transform="translate(641.04 726.27) rotate(-119.55)">e</text><text class="cls-10" transform="matrix(-0.47, -0.88, 0.88, -0.47, 635.7, 716.78)"> </text><text class="cls-10" transform="translate(633.38 712.52) rotate(-116.88)">S</text><text class="cls-10" transform="matrix(-0.42, -0.91, 0.91, -0.42, 628.4, 702.71)">a</text><text class="cls-10" transform="translate(623.92 693.06) rotate(-113.62)">f</text><text class="cls-10" transform="translate(621.27 687.08) rotate(-112.19)">e</text><text class="cls-10" transform="translate(617.18 676.98) rotate(-110.69)">t</text><text class="cls-10" transform="translate(614.57 670.14) rotate(-109.29)">y</text><text class="cls-10" transform="translate(891.96 902.22) rotate(-169.46)">r</text><text class="cls-10" transform="matrix(-0.98, -0.21, 0.21, -0.98, 884.85, 900.92)">e</text><text class="cls-10" transform="translate(874.21 898.67) rotate(-166.17)">d</text><text class="cls-10" transform="translate(862.61 895.82) rotate(-164.21)">u</text><text class="cls-10" transform="matrix(-0.95, -0.3, 0.3, -0.95, 851.23, 892.59)">c</text><text class="cls-10" transform="translate(841.63 889.55) rotate(-160.61)">e</text><text class="cls-10" transform="translate(831.37 885.9) rotate(-159.29)"> </text><text class="cls-10" transform="translate(826.83 884.25) rotate(-157.7)">N</text><text class="cls-10" transform="translate(813.92 878.93) rotate(-155.57)">o</text><text class="cls-10" transform="translate(803.64 874.22) rotate(-154.2)">i</text><text class="cls-10" transform="matrix(-0.89, -0.45, 0.45, -0.89, 798.98, 871.99)">s</text><text class="cls-10" transform="translate(790.83 867.85) rotate(-151.36)">e</text><text class="cls-10" transform="matrix(-0.79, 0.61, -0.61, -0.79, 1184.57, 831.56)">i</text><text class="cls-10" transform="translate(1180.49 834.73) rotate(143.76)">n</text><text class="cls-10" transform="matrix(-0.82, 0.57, -0.57, -0.82, 1170.76, 841.84)">c</text><text class="cls-10" transform="translate(1162.36 847.63) rotate(146.66)">r</text><text class="cls-10" transform="matrix(-0.85, 0.53, -0.53, -0.85, 1156.3, 851.65)">e</text><text class="cls-10" transform="translate(1147.31 857.26) rotate(149.64)">a</text><text class="cls-10" transform="translate(1138.11 862.64) rotate(151.21)">s</text><text class="cls-10" transform="translate(1130.11 867.06) rotate(152.82)">e</text><text class="cls-10" transform="matrix(-0.9, 0.44, -0.44, -0.9, 1120.39, 872.01)"> </text><text class="cls-10" transform="translate(1116.05 874.17) rotate(155.49)">p</text><text class="cls-10" transform="translate(1105.23 879.1) rotate(157.42)">o</text><text class="cls-10" transform="translate(1094.77 883.41) rotate(158.81)">i</text><text class="cls-10" transform="translate(1089.98 885.31) rotate(160.25)">n</text><text class="cls-10" transform="translate(1078.74 889.31) rotate(161.89)">t</text><text class="cls-10" transform="translate(1071.62 891.65) rotate(163.3)">s</text><text class="cls-10" transform="matrix(-0.96, 0.27, -0.27, -0.96, 1062.85, 894.26)"> </text><text class="cls-10" transform="translate(1058.17 895.6) rotate(165.83)">o</text><text class="cls-10" transform="matrix(-0.98, 0.22, -0.22, -0.98, 1047.21, 898.34)">f</text><text class="cls-10" transform="matrix(-0.98, 0.2, -0.2, -0.98, 1040.7, 899.8)"> </text><text class="cls-10" transform="translate(1035.91 900.79) rotate(169.09)">i</text><text class="cls-10" transform="translate(1030.86 901.81) rotate(170.46)">n</text><text class="cls-10" transform="matrix(-0.99, 0.14, -0.14, -0.99, 1019.08, 903.76)">t</text><text class="cls-10" transform="translate(1011.96 904.79) rotate(173.38)">e</text><text class="cls-10" transform="matrix(-1, 0.09, -0.09, -1, 1001.15, 906.02)">r</text><text class="cls-10" transform="translate(993.9 906.71) rotate(176.11)">e</text><text class="cls-10" transform="matrix(-1, 0.04, -0.04, -1, 983.03, 907.43)">s</text><text class="cls-10" transform="translate(973.87 907.82) rotate(178.73)">t</text><text class="cls-10" transform="matrix(-0.23, 0.97, -0.97, -0.23, 1318.77, 623.04)">i</text><text class="cls-10" transform="translate(1317.63 628.08) rotate(104.38)">n</text><text class="cls-10" transform="translate(1314.63 639.74) rotate(106)">c</text><text class="cls-10" transform="matrix(-0.3, 0.95, -0.95, -0.3, 1311.81, 649.52)">r</text><text class="cls-10" transform="translate(1309.67 656.46) rotate(108.68)">e</text><text class="cls-10" transform="matrix(-0.35, 0.94, -0.94, -0.35, 1306.27, 666.53)">a</text><text class="cls-10" transform="translate(1302.56 676.53) rotate(111.9)">s</text><text class="cls-10" transform="translate(1299.16 685.02) rotate(113.53)">e</text><text class="cls-10" transform="matrix(-0.42, 0.91, -0.91, -0.42, 1294.78, 694.99)"> </text><text class="cls-10" transform="matrix(-0.44, 0.9, -0.9, -0.44, 1292.79, 699.4)">p</text><text class="cls-10" transform="translate(1287.54 710.08) rotate(118.2)">u</text><text class="cls-10" transform="translate(1281.95 720.5) rotate(120.2)">b</text><text class="cls-10" transform="translate(1275.92 730.78) rotate(121.65)">l</text><text class="cls-10" transform="translate(1273.2 735.19) rotate(122.52)">i</text><text class="cls-10" transform="translate(1270.45 739.56) rotate(123.81)">c</text><text class="cls-10" transform="translate(1264.73 748.04) rotate(125.08)"> </text><text class="cls-10" transform="translate(1261.95 752.02) rotate(126.11)">t</text><text class="cls-10" transform="translate(1257.54 758.07) rotate(127.34)">r</text><text class="cls-10" transform="translate(1253.12 763.9) rotate(128.81)">a</text><text class="cls-10" transform="matrix(-0.65, 0.76, -0.76, -0.65, 1246.47, 772.19)">n</text><text class="cls-10" transform="translate(1238.69 781.23) rotate(132.29)">s</text><text class="cls-10" transform="matrix(-0.69, 0.72, -0.72, -0.69, 1232.55, 788)">p</text><text class="cls-10" transform="matrix(-0.72, 0.7, -0.7, -0.72, 1224.3, 796.57)">o</text><text class="cls-10" transform="matrix(-0.73, 0.68, -0.68, -0.73, 1216.18, 804.48)">r</text><text class="cls-10" transform="matrix(-0.74, 0.67, -0.67, -0.74, 1210.56, 809.71)">t</text><text class="cls-10" transform="translate(1299.45 395.9) rotate(66.87)">i</text><text class="cls-10" transform="translate(1301.57 400.59) rotate(68.64)">m</text><text class="cls-10" transform="translate(1308.1 417.46) rotate(70.99)">p</text><text class="cls-10" transform="translate(1311.96 428.74) rotate(72.54)">r</text><text class="cls-10" transform="translate(1314.16 435.65) rotate(74.04)">o</text><text class="cls-10" transform="translate(1317.2 446.26) rotate(75.78)">v</text><text class="cls-10" transform="translate(1319.68 456.01) rotate(77.51)">e</text><text class="cls-10" transform="translate(1322 466.66) rotate(78.84)"> </text><text class="cls-10" transform="translate(1322.97 471.41) rotate(80.15)">a</text><text class="cls-10" transform="translate(1324.8 481.97) rotate(81.92)">c</text><text class="cls-10" transform="matrix(0.11, 0.99, -0.99, 0.11, 1326.22, 491.95)">c</text><text class="cls-10" transform="translate(1327.35 501.94) rotate(85.36)">e</text><text class="cls-10" transform="matrix(0.05, 1, -1, 0.05, 1328.22, 512.78)">s</text><text class="cls-10" transform="matrix(0.03, 1, -1, 0.03, 1328.69, 521.94)">s</text><text class="cls-10" transform="translate(1328.91 531.09) rotate(89.69)">i</text><text class="cls-10" transform="matrix(-0.02, 1, -1, -0.02, 1328.98, 536.24)">b</text><text class="cls-10" transform="translate(1328.72 548.16) rotate(92.4)">i</text><text class="cls-10" transform="matrix(-0.06, 1, -1, -0.06, 1328.5, 553.35)">l</text><text class="cls-10" transform="translate(1328.21 558.54) rotate(94.01)">i</text><text class="cls-10" transform="matrix(-0.09, 1, -1, -0.09, 1327.86, 563.71)">t</text><text class="cls-10" transform="translate(1327.24 571.01) rotate(96.26)">y</text><text class="cls-10" transform="translate(1128.63 211.56) rotate(28)">m</text><text class="cls-10" transform="translate(1144.6 220.17) rotate(29.81)">i</text><text class="cls-10" transform="matrix(0.86, 0.52, -0.52, 0.86, 1149.11, 222.7)">n</text><text class="cls-10" transform="translate(1159.3 228.91) rotate(32.54)">i</text><text class="cls-10" transform="translate(1163.69 231.58) rotate(34.44)">m</text><text class="cls-10" transform="matrix(0.81, 0.59, -0.59, 0.81, 1178.59, 241.92)">i</text><text class="cls-10" transform="translate(1182.76 244.97) rotate(37.59)">z</text><text class="cls-10" transform="matrix(0.77, 0.63, -0.63, 0.77, 1190.08, 250.59)">e</text><text class="cls-10" transform="translate(1198.5 257.51) rotate(40.59)"> </text><text class="cls-10" transform="translate(1202.22 260.65) rotate(41.91)">a</text><text class="cls-10" transform="matrix(0.72, 0.69, -0.69, 0.72, 1210.2, 267.82)">c</text><text class="cls-10" transform="translate(1217.48 274.77) rotate(45.37)">c</text><text class="cls-10" transform="matrix(0.69, 0.73, -0.73, 0.69, 1224.63, 282.06)">i</text><text class="cls-10" transform="translate(1228.2 285.77) rotate(48.06)">d</text><text class="cls-10" transform="matrix(0.64, 0.77, -0.77, 0.64, 1236.17, 294.65)">e</text><text class="cls-10" transform="matrix(0.62, 0.78, -0.78, 0.62, 1243.17, 302.95)">n</text><text class="cls-10" transform="translate(1250.56 312.36) rotate(53.24)">t</text><text class="cls-10" transform="matrix(0.58, 0.81, -0.81, 0.58, 1255.04, 318.34)">s</text><text class="cls-10" transform="translate(853.27 186.74) rotate(-16.75)">i</text><text class="cls-10" transform="translate(858.16 185.16) rotate(-15.1)">m</text><text class="cls-10" transform="translate(875.69 180.5) rotate(-12.88)">p</text><text class="cls-10" transform="translate(887.29 177.87) rotate(-11.41)">r</text><text class="cls-10" transform="matrix(0.98, -0.17, 0.17, 0.98, 894.42, 176.4)">o</text><text class="cls-10" transform="translate(905.3 174.49) rotate(-8.3)">v</text><text class="cls-10" transform="translate(915.24 173.03) rotate(-6.63)">e</text><text class="cls-10" transform="matrix(1, -0.09, 0.09, 1, 926.07, 171.8)"> </text><text class="cls-10" transform="matrix(1, -0.08, 0.08, 1, 930.91, 171.34)">t</text><text class="cls-10" transform="translate(938.34 170.75) rotate(-2.69)">h</text><text class="cls-10" transform="translate(950.35 170.19) rotate(-0.76)">e</text><text class="cls-10" transform="matrix(1, 0.01, -0.01, 1, 961.24, 170.07)">r</text><text class="cls-10" transform="translate(968.57 170.07) rotate(2.93)">m</text><text class="cls-10" transform="translate(986.65 171.07) rotate(5.34)">a</text><text class="cls-10" transform="translate(997.25 172.09) rotate(6.66)">l</text><text class="cls-10" transform="translate(1002.4 172.69) rotate(7.49)"> </text><text class="cls-10" transform="translate(1007.23 173.3) rotate(8.72)">c</text><text class="cls-10" transform="translate(1017.17 174.81) rotate(10.44)">o</text><text class="cls-10" transform="matrix(0.98, 0.22, -0.22, 0.98, 1028.25, 176.78)">m</text><text class="cls-10" transform="matrix(0.97, 0.25, -0.25, 0.97, 1045.91, 180.88)">f</text><text class="cls-10" transform="translate(1052.26 182.5) rotate(15.97)">o</text><text class="cls-10" transform="translate(1063.14 185.64) rotate(17.33)">r</text><text class="cls-10" transform="translate(1070.49 187.93) rotate(18.42)">t</text><path class="cls-4" d="M960,539.81l-3.6,303C789,840.8,655,703.54,657,536.2c.67-55.72,14-103.09,42.4-151Z"/><path class="cls-7" d="M960,539.81l264.2-148.37c81.95,145.91,30.09,330.62-115.82,412.57-48.59,27.28-96.26,39.45-152,38.79Z"/><path class="cls-11" d="M960,539.81,699.37,385.19c85.39-143.92,271.29-191.37,415.21-106,47.93,28.44,82.3,63.64,109.58,112.23Z"/><path class="cls-12" d="M960,539.87l-5.1,428.52C718.2,965.58,528.62,771.44,531.44,534.77c.94-78.81,19.74-145.8,60-213.58Z"/><path class="cls-12" d="M960,539.87,1333.63,330c115.9,206.37,42.55,467.62-163.82,583.51-68.72,38.6-136.13,55.8-214.94,54.86Z"/><path class="cls-12" d="M960,539.87,591.4,321.19C712.18,117.63,975.09,50.53,1178.65,171.3c67.78,40.22,116.39,90,155,158.72Z"/><text class="cls-13" transform="matrix(-0.32, 0.95, -0.95, -0.32, 1187.35, 605.3)">s</text><text class="cls-13" transform="translate(1181.05 624.6) rotate(114.19)">o</text><text class="cls-13" transform="translate(1170.28 648.51) rotate(120.2)">c</text><text class="cls-13" transform="matrix(-0.57, 0.82, -0.82, -0.57, 1158.19, 668.86)">i</text><text class="cls-13" transform="translate(1152.21 678.1) rotate(128.77)">a</text><text class="cls-13" transform="matrix(-0.68, 0.73, -0.73, -0.68, 1136.48, 697.29)">l</text><text class="cls-13" transform="matrix(0.96, -0.29, 0.29, 0.96, 877.71, 317.75)">p</text><text class="cls-13" transform="translate(904.82 309.53) rotate(-9.97)">h</text><text class="cls-13" transform="translate(932.32 304.78) rotate(-3.93)">y</text><text class="cls-13" transform="translate(954.67 303.26) rotate(1.22)">s</text><text class="cls-13" transform="matrix(1, 0.09, -0.09, 1, 975.19, 303.84)">i</text><text class="cls-13" transform="translate(986.22 304.56) rotate(9.29)">c</text><text class="cls-13" transform="matrix(0.97, 0.26, -0.26, 0.97, 1009.41, 308.28)">a</text><text class="cls-13" transform="translate(1033.27 315) rotate(19.52)">l</text><text class="cls-13" transform="translate(801.3 716.58) rotate(-132.58)">m</text><text class="cls-13" transform="matrix(-0.56, -0.83, 0.83, -0.56, 771.55, 683.25)">e</text><text class="cls-13" transform="matrix(-0.46, -0.89, 0.89, -0.46, 757.3, 662.51)">n</text><text class="cls-13" transform="translate(744.32 637.26) rotate(-112.22)">t</text><text class="cls-13" transform="matrix(-0.29, -0.96, 0.96, -0.29, 737.76, 621.73)">a</text><text class="cls-13" transform="translate(730.68 597.98) rotate(-102.77)">l</text><path class="cls-14" d="M224.06,132.66v-3.37a3.37,3.37,0,1,1-3.36,3.37,3.37,3.37,0,0,1,3.36-3.37h0Z"/><text class="cls-15" transform="translate(1383.44 694.1) rotate(110.72)">i</text><text class="cls-15" transform="matrix(-0.39, 0.92, -0.92, -0.39, 1379.64, 704.71)">n</text><text class="cls-15" transform="matrix(-0.45, 0.89, -0.89, -0.45, 1368.23, 731.1)">c</text><text class="cls-15" transform="matrix(-0.48, 0.88, -0.88, -0.48, 1357.58, 752.15)">l</text><text class="cls-15" transform="matrix(-0.52, 0.85, -0.85, -0.52, 1352.35, 762.08)">u</text><text class="cls-15" transform="translate(1337.43 786.43) rotate(124.44)">s</text><text class="cls-15" transform="translate(1325.62 803.51) rotate(126.48)">i</text><text class="cls-15" transform="translate(1319.06 812.67) rotate(128.91)">o</text><text class="cls-15" transform="matrix(-0.67, 0.74, -0.74, -0.67, 1302.45, 833.32)">n</text><text class="cls-15" transform="translate(838.38 105.84) rotate(-14.3)">s</text><text class="cls-15" transform="matrix(0.98, -0.19, 0.19, 0.98, 858.34, 100.63)">u</text><text class="cls-15" transform="translate(886.37 95.18) rotate(-8.09)">s</text><text class="cls-15" transform="translate(906.89 92.29) rotate(-5.69)">t</text><text class="cls-15" transform="translate(923.9 90.5) rotate(-3.02)">a</text><text class="cls-15" transform="translate(948.94 89.31) rotate(-0.72)">i</text><text class="cls-15" transform="translate(960.19 88.96) rotate(1.83)">n</text><text class="cls-15" transform="translate(988.85 89.92) rotate(5.24)">a</text><text class="cls-15" transform="matrix(0.99, 0.15, -0.15, 0.99, 1013.67, 92.13)">b</text><text class="cls-15" transform="matrix(0.98, 0.19, -0.19, 0.98, 1042.15, 96.66)">i</text><text class="cls-15" transform="matrix(0.98, 0.22, -0.22, 0.98, 1053.31, 98.87)">l</text><text class="cls-15" transform="translate(1064.43 101.37) rotate(14.15)">i</text><text class="cls-15" transform="matrix(0.96, 0.28, -0.28, 0.96, 1075.4, 104.09)">t</text><text class="cls-15" transform="translate(1091.49 108.61) rotate(18.49)">y</text><text class="cls-15" transform="translate(608.12 821.76) rotate(-127.19)">c</text><text class="cls-15" transform="matrix(-0.56, -0.83, 0.83, -0.56, 593.9, 803.12)">o</text><text class="cls-15" transform="translate(578.8 781.47) rotate(-119.52)">m</text><text class="cls-15" transform="translate(557 741.97) rotate(-115.75)">f</text><text class="cls-15" transform="matrix(-0.39, -0.92, 0.92, -0.39, 550.83, 729.54)">o</text><text class="cls-15" transform="matrix(-0.35, -0.94, 0.94, -0.35, 540.45, 705.04)">r</text><text class="cls-15" transform="matrix(-0.31, -0.95, 0.95, -0.31, 534.32, 688.54)">t</text><polyline class="cls-16" points="561.83 303.64 959.97 539.86 954.46 1002.77"/><polyline class="cls-16" points="954.46 1002.77 959.97 539.86 1363.61 313.18"/><polyline class="cls-16" points="1363.61 313.18 959.97 539.86 561.83 303.64"/></g><g id="Logo"><circle class="cls-17" cx="960" cy="540" r="170"/><path class="cls-18" d="M1007.05,560.36c4.52-5.25,8.73-10.22,13.06-15.09a4.29,4.29,0,0,1,2.79-1.41c15.48-.09,30.95-.07,46.42-.06.39,0,.79.06,1.35.1v11.5h-2.93c-12.82,0-25.63,0-38.44,0a4.78,4.78,0,0,0-4.11,1.87c-7.14,8.41-14.37,16.74-21.9,25.47-10.36-26.31-20.58-52.29-31-78.89-12.54,35.85-24.89,71.17-37.43,107l-34.82-78c-1.14,1.73-2.08,3.15-3,4.58-3.57,5.45-7.1,10.94-10.77,16.34a3.8,3.8,0,0,1-2.58,1.58c-12,.1-24,.07-36,.06a10.62,10.62,0,0,1-1.1-.14V543.91c.81,0,1.66-.11,2.5-.11,9.11,0,18.22-.09,27.32.05a4.53,4.53,0,0,0,4.42-2.45c6.38-10,12.9-19.86,19.37-29.77.52-.81,1.07-1.59,1.92-2.84,10.56,23.62,21,46.9,31.61,70.71,12.7-36.46,25.22-72.38,37.74-108.3l.55-.05C983.59,500.74,995.23,530.32,1007.05,560.36Z"/><polygon points="831 549.15 854.3 569.13 854.3 549.15 854.3 529.18 831 549.15"/><polygon points="1089 549.15 1065.7 529.18 1065.7 549.15 1065.7 569.13 1089 549.15"/></g><g id="text"><text class="cls-19" transform="translate(866.4 456.06)"><tspan class="cls-20">h</tspan><tspan class="cls-21" x="33.95" y="0">e</tspan><tspan x="63.4" y="0">a</tspan><tspan class="cls-22" x="92.9" y="0">l</tspan><tspan x="106.45" y="0">t</tspan><tspan class="cls-23" x="126.75" y="0">h</tspan><tspan x="160.1" y="0">y</tspan></text><text class="cls-19" transform="translate(857.18 656.06)"><tspan class="cls-20">m</tspan><tspan x="53.15" y="0">obili</tspan><tspan class="cls-24" x="158.75" y="0">t</tspan><tspan x="178.55" y="0">y</tspan></text></g></svg>