<svg xmlns="http://www.w3.org/2000/svg" viewBox="0 0 1920 1080"><defs><style>.cls-1,.cls-10{fill:#e0d536;}.cls-16,.cls-2{fill:#bf2dff;}.cls-17,.cls-3{fill:#2effce;}.cls-15,.cls-4{fill:#2bbce3;}.cls-25,.cls-26,.cls-27,.cls-28,.cls-5,.cls-6,.cls-72,.cls-8{fill:none;stroke:#fff;}.cls-28,.cls-5,.cls-6,.cls-8{stroke-linecap:round;stroke-linejoin:round;}.cls-5,.cls-6{stroke-width:0.75px;}.cls-6{stroke-dasharray:3.01 3.01;}.cls-18,.cls-19,.cls-29,.cls-34,.cls-56,.cls-7{fill:#fff;}.cls-8{stroke-width:0.25px;}.cls-13,.cls-14,.cls-15,.cls-16,.cls-17,.cls-9{opacity:0.3;}.cls-10{opacity:0.4;}.cls-11,.cls-14{fill:#f06367;}.cls-12,.cls-13{fill:#f99b06;}.cls-18{font-size:45px;}.cls-18,.cls-19,.cls-29,.cls-34,.cls-50,.cls-56{font-family:Montserrat-Regular, Montserrat;}.cls-19{font-size:12px;}.cls-20{letter-spacing:-0.01em;}.cls-21{letter-spacing:-0.02em;}.cls-22{letter-spacing:-0.01em;}.cls-23{letter-spacing:-0.01em;}.cls-24{letter-spacing:-0.07em;}.cls-25,.cls-26,.cls-27,.cls-72,.cls-73{stroke-miterlimit:10;}.cls-25,.cls-27{stroke-dasharray:3;}.cls-26,.cls-28{stroke-dasharray:3 3;}.cls-27,.cls-72{stroke-width:2px;}.cls-29{font-size:19.71px;}.cls-30{letter-spacing:0em;}.cls-31{letter-spacing:-0.02em;}.cls-32{letter-spacing:0em;}.cls-33{letter-spacing:-0.01em;}.cls-34{font-size:18.99px;}.cls-35{letter-spacing:-0.01em;}.cls-36{letter-spacing:-0.01em;}.cls-37{letter-spacing:-0.06em;}.cls-38{letter-spacing:-0.01em;}.cls-39{letter-spacing:-0.02em;}.cls-40{letter-spacing:-0.04em;}.cls-41{letter-spacing:-0.01em;}.cls-42{letter-spacing:-0.01em;}.cls-43{letter-spacing:-0.03em;}.cls-44{letter-spacing:-0.01em;}.cls-45{letter-spacing:-0.02em;}.cls-46{letter-spacing:-0.02em;}.cls-47{letter-spacing:-0.03em;}.cls-48{letter-spacing:0em;}.cls-49{fill:#eeeaeb;}.cls-50{font-size:17.67px;fill:#231f20;}.cls-51{letter-spacing:0em;}.cls-52{letter-spacing:-0.02em;}.cls-53{letter-spacing:0em;}.cls-54{letter-spacing:-0.01em;}.cls-55{opacity:0.6;}.cls-56{font-size:11.78px;}.cls-57{letter-spacing:-0.01em;}.cls-58{letter-spacing:-0.01em;}.cls-59{letter-spacing:-0.01em;}.cls-60{letter-spacing:0em;}.cls-61{letter-spacing:-0.02em;}.cls-62{letter-spacing:-0.02em;}.cls-63{letter-spacing:-0.05em;}.cls-64{letter-spacing:-0.01em;}.cls-65{letter-spacing:0.01em;}.cls-66{letter-spacing:-0.01em;}.cls-67{letter-spacing:-0.01em;}.cls-68{letter-spacing:0.02em;}.cls-69{letter-spacing:0em;}.cls-70{letter-spacing:-0.02em;}.cls-71{letter-spacing:-0.02em;}.cls-73{stroke:#000;stroke-width:3px;}</style></defs><title>Methodology</title><g id="Layer_3" data-name="Layer 3"><rect x="1" y="-1" width="1920" height="1093"/><rect x="1097" y="477" width="30" height="149"/></g><g id="Layer_1" data-name="Layer 1"><circle class="cls-1" cx="539.28" cy="706.05" r="32.83"/><path d="M532.08,699c3.15-.28,5.3-2.75,5.41-6.14.08-2.21,0-4.42,0-6.63,0-1.46.72-2.37,1.82-2.25,1.33.15,1.66,1.08,1.65,2.28,0,2.21-.06,4.42,0,6.63a6,6,0,0,0,5.44,6.12c0-1.68.09-3.36,0-5-.29-4.44,4.05-5.84,6.93-3.95a21.16,21.16,0,0,1,4.94,4.55c3.77,4.69,5.11,10.34,5.72,16.19a55.39,55.39,0,0,1,.29,6,8.75,8.75,0,0,1-.62,3.07c-1.3,3.27-3.4,4.3-6.75,3.29a15.21,15.21,0,0,1-9.37-7.6,10.67,10.67,0,0,1-1.07-4.25c-.17-2.77,0-5.56,0-8.42-2.78-.74-5.3-1.85-7.2-4.42-1.77,2.56-4.33,3.67-7.16,4.42,0,2.71-.06,5.35,0,8a9.46,9.46,0,0,1-2,6.17,16,16,0,0,1-9.62,6.37,4,4,0,0,1-4.7-1.91,9.17,9.17,0,0,1-1.5-4.12c-.15-6.28.57-12.46,3.2-18.28a19.65,19.65,0,0,1,6.85-8.54,7.81,7.81,0,0,1,3.72-1.24,3.69,3.69,0,0,1,4,3.92C532.12,695.21,532.08,697.12,532.08,699Z"/><circle class="cls-2" cx="540.82" cy="956.48" r="33.02"/><path d="M557.25,967.25c-4.65,1.56-8.43.39-11.46-3.47l-5,2.83a9.43,9.43,0,1,1-10.39-5.25l-.42-3.72a12.22,12.22,0,0,1-9.18-3.79,12,12,0,0,1-3.45-7.76,12.35,12.35,0,0,1,23.53-6l2.88-.79c.7-.19,1.4-.39,2.1-.56.29-.07.38-.18.38-.49a3.34,3.34,0,1,1,5.22,2.71,3.39,3.39,0,0,1-4.49-.6.57.57,0,0,0-.69-.21c-1.59.45-3.19.86-4.83,1.3a12.27,12.27,0,0,1-.63,9.21l5,2.71a9.39,9.39,0,0,1,8.1-4.27,9.05,9.05,0,0,1,6.95,3.29,9.38,9.38,0,0,1-2.2,14.12c.11.3.23.61.35.91l1.21,3.07c.1.25.2.35.5.31a3.35,3.35,0,1,1-2.78,4.74,3.4,3.4,0,0,1,.78-3.88.52.52,0,0,0,.15-.39C558.31,969.94,557.77,968.59,557.25,967.25Zm-38.2-22a10.57,10.57,0,1,0,10.57-10.57A10.59,10.59,0,0,0,519.05,945.29ZM532.18,963a7.64,7.64,0,1,0,7.64,7.62A7.69,7.69,0,0,0,532.18,963Zm21.5-12.07a7.63,7.63,0,1,0,7.62,7.62A7.64,7.64,0,0,0,553.68,950.9Zm-22.28,6.64.42,3.64a9.49,9.49,0,0,1,8.17,4.19l5.15-2.86a9.42,9.42,0,0,1,0-7.81L540,952A12.68,12.68,0,0,1,531.4,957.54Z"/><path d="M529.62,946.91c.53-.4,1-.79,1.53-1.15a.64.64,0,0,1,.46-.15,7.91,7.91,0,0,1,3.82,2.14,4.05,4.05,0,0,1,1,2,1,1,0,0,1-.52,1.21,10.3,10.3,0,0,1-4.42,1.34,15.15,15.15,0,0,1-6.45-.57,11.28,11.28,0,0,1-1.73-.8.9.9,0,0,1-.51-1.13,4.15,4.15,0,0,1,2.08-2.92,20.21,20.21,0,0,1,2.64-1.18.69.69,0,0,1,.58.12C528.62,946.12,529.1,946.51,529.62,946.91Z"/><path d="M529.56,938.24a3.6,3.6,0,1,1-3.45,3.59A3.52,3.52,0,0,1,529.56,938.24Z"/><path d="M531.92,975.21a9.65,9.65,0,0,1-3.87-.74c-1-.48-1.34-.63-.66-2a4.18,4.18,0,0,1,2.22-1.87c1.17-.53,1.19-.54,2.16.29.32.27.56.3.82,0,.64-.79,1.36-.7,2.18-.27a5,5,0,0,1,2.13,1.72,1.71,1.71,0,0,1,.13.23c.52,1.05.4,1.41-.66,1.89A10.5,10.5,0,0,1,531.92,975.21Z"/><path d="M532.19,964.65a2.72,2.72,0,1,1-2.62,2.63A2.62,2.62,0,0,1,532.19,964.65Z"/><path d="M553.73,959.51c.4-.31.74-.6,1.11-.87a.55.55,0,0,1,.42-.11A5.07,5.07,0,0,1,558,960a4.89,4.89,0,0,1,.83,1.5c.2.52.06.74-.44,1a8.44,8.44,0,0,1-3.5,1,11.63,11.63,0,0,1-4.69-.48,5.38,5.38,0,0,1-.95-.42c-.65-.35-.73-.55-.51-1.27a2.83,2.83,0,0,1,1.24-1.68,19.67,19.67,0,0,1,2.26-1.1.51.51,0,0,1,.42.09C553,958.91,553.35,959.21,553.73,959.51Z"/><path d="M556.24,955.65a2.57,2.57,0,1,1-2.54-2.73A2.65,2.65,0,0,1,556.24,955.65Z"/><circle class="cls-3" cx="539.28" cy="831.27" r="32.92"/><path d="M551.83,810.09a4.9,4.9,0,0,1,2.11,9.34,4.82,4.82,0,0,1-3.71.2l-.3-.11a.5.5,0,0,0-.74.27c-.15.36,0,.59.36.71a5.81,5.81,0,0,0,4.81-.1,5.75,5.75,0,0,0,2.77-2.65l.24-.44a4.94,4.94,0,0,1,.71,8.3,6,6,0,0,0-6.79-1.6c-.35.13-.58.34-.45.75s.41.4.84.23a4.91,4.91,0,1,1,.41,9.22.68.68,0,0,1-.36-.43,6,6,0,0,0-5.37-4.76,4.1,4.1,0,0,0-.5,0,.53.53,0,0,0,0,1.06,11.32,11.32,0,0,1,1.17.14,4.92,4.92,0,1,1-6,5.47,5.54,5.54,0,0,1-.07-.81V810.31a4.92,4.92,0,1,1,5.4,4.78l-.5,0a.49.49,0,0,0-.48.55.45.45,0,0,0,.53.48,8.83,8.83,0,0,0,2.13-.41,5.82,5.82,0,0,0,3.82-5.32C551.84,810.32,551.83,810.22,551.83,810.09Z"/><path d="M520.49,825.62a4.85,4.85,0,0,1-1.92-4.43,4.78,4.78,0,0,1,2.63-3.87c.09.16.16.29.22.42a6,6,0,0,0,7.33,2.87,2,2,0,0,0,.37-.16.48.48,0,0,0,.25-.68.51.51,0,0,0-.68-.27,10.85,10.85,0,0,1-2.08.38,4.86,4.86,0,0,1-4.79-4.65,4.91,4.91,0,0,1,4.48-5.14h.28a16.57,16.57,0,0,0,.72,2.61,5.76,5.76,0,0,0,5,3.47c.63.06.89-.1.91-.47s-.19-.53-.83-.59a4.7,4.7,0,0,1-4.29-3.26,4.89,4.89,0,0,1,6.17-6.28,4.69,4.69,0,0,1,3.3,4,5.52,5.52,0,0,1,.06.81q0,12.25,0,24.5a4.88,4.88,0,0,1-3.75,4.9,4.9,4.9,0,0,1-5.66-6.73,4.73,4.73,0,0,1,4.25-2.94h.18c.36,0,.59-.2.57-.57a.49.49,0,0,0-.59-.49,10.2,10.2,0,0,0-2.28.51,5.69,5.69,0,0,0-3.47,4.2.62.62,0,0,1-.5.54,4.92,4.92,0,1,1,.31-9.34l.3.12a.53.53,0,1,0,.38-1,5.83,5.83,0,0,0-3.86-.3A5.91,5.91,0,0,0,520.49,825.62Z"/><path d="M523.27,842.9v5.82c0,.15,0,.34,0,.44s-.32.36-.49.36-.37-.2-.5-.36,0-.26,0-.39V837a2.44,2.44,0,0,1,0-.27.53.53,0,1,1,1.06,0c0,.13,0,.27,0,.4Z"/><path d="M555.3,842.9V837c0-.12,0-.27,0-.35s.31-.44.5-.48.5.17.55.47a2.62,2.62,0,0,1,0,.28q0,5.89,0,11.81c0,.12,0,.28,0,.35s-.34.4-.51.4-.37-.23-.51-.4,0-.27,0-.4Z"/><path d="M545.84,848.4v-5.58c0-.16,0-.35,0-.45s.32-.36.49-.36.37.19.49.35,0,.29,0,.44V854c0,.13,0,.31,0,.4s-.34.43-.49.41-.39-.26-.53-.44,0-.27,0-.4Z"/><path d="M532.73,848.4V854c0,.15,0,.34,0,.44s-.33.37-.5.37-.37-.21-.49-.37,0-.3,0-.45V842.8c0-.13,0-.31,0-.39s.34-.4.51-.4.38.23.51.4,0,.26,0,.4Z"/><path d="M526.93,846.44v-5c0-.13,0-.31,0-.4s.33-.43.49-.42.38.26.53.44,0,.23,0,.35v10c0,.12,0,.28,0,.35s-.34.43-.5.41-.38-.25-.53-.43,0-.26,0-.4Z"/><path d="M551.64,846.5v4.94c0,.14,0,.32,0,.4s-.34.41-.53.42-.36-.24-.49-.42,0-.26,0-.4V841.5c0-.12-.05-.28,0-.36s.31-.43.51-.48.49.17.54.48a2.17,2.17,0,0,1,0,.36Z"/><path d="M537.46,846.45c0,1.63,0,3.27,0,4.9,0,.15,0,.35,0,.44a.89.89,0,0,1-.53.38c-.15,0-.35-.21-.47-.38s0-.29,0-.44q0-4.94,0-9.85c0-.14,0-.31,0-.4s.33-.44.49-.43.39.25.53.43,0,.26,0,.4Z"/><path d="M542.18,846.45v4.95c0,.15,0,.34,0,.44a.89.89,0,0,1-.51.34c-.15,0-.35-.2-.46-.35a.88.88,0,0,1,0-.44v-9.94c0-.11,0-.25,0-.31s.31-.43.5-.48.5.17.54.48a2.17,2.17,0,0,1,0,.36Z"/><path d="M522.2,853v-1.18c0-.35.16-.6.54-.59s.53.25.53.6v2.37c0,.35-.15.61-.52.61s-.55-.25-.55-.63Z"/><path d="M555.3,853.05c0-.4,0-.81,0-1.22s.17-.56.52-.56a.49.49,0,0,1,.54.54c0,.84,0,1.67,0,2.5a.53.53,0,1,1-1.06,0C555.29,853.87,555.3,853.46,555.3,853.05Z"/></g><g id="icons"><circle class="cls-4" cx="541.17" cy="214.51" r="34.91"/></g><g id="spider_diagram" data-name="spider diagram"><line class="cls-5" x1="1114.5" y1="900.82" x2="1114.5" y2="899.32"/><line class="cls-6" x1="1114.5" y1="896.31" x2="1114.5" y2="236.18"/><line class="cls-5" x1="1114.5" y1="234.68" x2="1114.5" y2="233.18"/><circle class="cls-7" cx="1114.5" cy="900.68" r="2.82"/><path class="cls-7" d="M1117.32,233.32a2.82,2.82,0,1,0-2.82,2.82A2.82,2.82,0,0,0,1117.32,233.32Z"/><polygon class="cls-8" points="1250.25 360.37 1198.92 449.75 1301.98 449.51 1250.25 360.37"/><polygon class="cls-8" points="1250.3 380.99 1216.75 439.4 1284.11 439.25 1250.3 380.99"/><polygon class="cls-8" points="1250.34 401.6 1234.58 429.05 1266.24 428.98 1250.34 401.6"/><line class="cls-8" x1="1250.25" y1="360.37" x2="1250.39" y2="419.88"/><line class="cls-8" x1="1250.39" y1="419.88" x2="1198.92" y2="449.75"/><line class="cls-8" x1="1250.39" y1="419.88" x2="1301.99" y2="449.51"/><circle class="cls-1" cx="1250.17" cy="344.82" r="10.63"/><path d="M1247.84,342.55a1.92,1.92,0,0,0,1.74-2c0-.72,0-1.43,0-2.15,0-.47.23-.76.58-.72s.54.34.54.73c0,.72,0,1.43,0,2.15a2,2,0,0,0,1.77,2c0-.55,0-1.09,0-1.63a1.4,1.4,0,0,1,2.24-1.28,6.94,6.94,0,0,1,1.6,1.46,9.7,9.7,0,0,1,1.86,5.24,18.25,18.25,0,0,1,.1,2,2.61,2.61,0,0,1-.2,1,1.56,1.56,0,0,1-2.18,1.07,4.94,4.94,0,0,1-3-2.45,3.61,3.61,0,0,1-.35-1.38c0-.9,0-1.8,0-2.72a3.93,3.93,0,0,1-2.33-1.43,3.82,3.82,0,0,1-2.32,1.44c0,.87,0,1.73,0,2.58a3.05,3.05,0,0,1-.64,2,5.23,5.23,0,0,1-3.11,2.07,1.3,1.3,0,0,1-1.53-.62,3,3,0,0,1-.48-1.33,13.24,13.24,0,0,1,1-5.92,6.39,6.39,0,0,1,2.21-2.77,2.45,2.45,0,0,1,1.2-.4,1.19,1.19,0,0,1,1.31,1.26C1247.85,341.31,1247.83,341.93,1247.84,342.55Z"/><g class="cls-9"><circle class="cls-2" cx="1315.95" cy="454.73" r="10.64"/><path d="M1321.25,458.18a3.07,3.07,0,0,1-3.7-1.11l-1.62.92a3,3,0,1,1-3.35-1.68l-.14-1.2a4,4,0,0,1-3-1.22,3.79,3.79,0,0,1-1.11-2.49,4,4,0,0,1,7.57-1.95l.93-.25.67-.19c.09,0,.13-.05.12-.16a1.07,1.07,0,0,1,2-.52,1.07,1.07,0,0,1-.34,1.39,1.09,1.09,0,0,1-1.45-.18.17.17,0,0,0-.22-.07l-1.56.42a4,4,0,0,1-.19,3l1.61.86a3,3,0,0,1,2.6-1.37,2.9,2.9,0,0,1,2.24,1,3,3,0,0,1-.7,4.55l.12.29.39,1a.13.13,0,0,0,.16.1,1.08,1.08,0,0,1,1.19,1,1.09,1.09,0,0,1-1,1.19,1.08,1.08,0,0,1-.83-1.87.18.18,0,0,0,0-.13Zm-12.32-7a3.41,3.41,0,1,0,3.39-3.41A3.4,3.4,0,0,0,1308.93,451.14Zm4.24,5.68a2.46,2.46,0,1,0,2.47,2.45A2.49,2.49,0,0,0,1313.17,456.82Zm6.91-3.9a2.46,2.46,0,1,0,2.47,2.45A2.45,2.45,0,0,0,1320.08,452.92Zm-7.17,2.15.14,1.17a3.08,3.08,0,0,1,2.64,1.35l1.65-.93a3.05,3.05,0,0,1,0-2.51l-1.63-.87A4.05,4.05,0,0,1,1312.91,455.07Z"/><path d="M1312.33,451.65c.17-.13.33-.26.49-.37a.23.23,0,0,1,.15,0,2.51,2.51,0,0,1,1.23.69,1.29,1.29,0,0,1,.33.62.32.32,0,0,1-.17.39,3.28,3.28,0,0,1-1.42.44,4.89,4.89,0,0,1-2.08-.18,3.15,3.15,0,0,1-.56-.26c-.16-.08-.19-.18-.16-.36a1.31,1.31,0,0,1,.67-.94,5,5,0,0,1,.85-.38.2.2,0,0,1,.18,0Z"/><path d="M1312.31,448.86a1.13,1.13,0,0,1,1.12,1.16,1.12,1.12,0,1,1-2.23,0A1.13,1.13,0,0,1,1312.31,448.86Z"/><path d="M1313.1,460.77a3.34,3.34,0,0,1-1.25-.24c-.33-.16-.44-.2-.22-.65a1.33,1.33,0,0,1,.72-.6c.37-.18.38-.18.69.08.11.09.18.1.27,0,.2-.25.43-.23.7-.09a1.69,1.69,0,0,1,.69.55s0,.05,0,.08c.17.33.13.45-.21.61A3.55,3.55,0,0,1,1313.1,460.77Z"/><path d="M1313.17,457.36a.88.88,0,1,1-.84.85A.85.85,0,0,1,1313.17,457.36Z"/><path d="M1320.11,455.69l.35-.28a.19.19,0,0,1,.14,0,1.67,1.67,0,0,1,.87.48,1.75,1.75,0,0,1,.27.48c.07.17,0,.24-.14.33a2.62,2.62,0,0,1-1.13.31,3.67,3.67,0,0,1-1.51-.14l-.31-.14c-.21-.11-.23-.18-.16-.41a.92.92,0,0,1,.4-.54,6.91,6.91,0,0,1,.72-.36.24.24,0,0,1,.14,0Z"/><path d="M1320.91,454.44a.83.83,0,1,1-1.65,0,.87.87,0,0,1,.83-.88A.85.85,0,0,1,1320.91,454.44Z"/></g><g class="cls-9"><circle class="cls-3" cx="1184.9" cy="455.02" r="10.54"/><path d="M1188.9,448.23a1.57,1.57,0,0,1,.68,3,1.53,1.53,0,0,1-1.19.07l-.09,0c-.11,0-.2,0-.24.09s0,.19.12.23a1.82,1.82,0,0,0,1.53,0,1.8,1.8,0,0,0,.89-.85l.08-.14a1.58,1.58,0,0,1,.23,2.66,1.9,1.9,0,0,0-1.07-.62,2,2,0,0,0-1.1.11c-.12,0-.19.11-.15.24s.13.13.27.07A1.57,1.57,0,1,1,1189,456s-.1-.08-.12-.13a1.92,1.92,0,0,0-1.72-1.52H1187a.17.17,0,0,0,0,.34c.12,0,.25,0,.37.05a1.57,1.57,0,1,1-1.92,1.75,2.28,2.28,0,0,1,0-.26q0-3.93,0-7.86a1.58,1.58,0,1,1,1.73,1.53H1187a.15.15,0,0,0-.15.18.14.14,0,0,0,.17.15,2.56,2.56,0,0,0,.68-.13,1.88,1.88,0,0,0,1.22-1.71Z"/><path d="M1178.87,453.23a1.57,1.57,0,0,1-.61-1.42,1.52,1.52,0,0,1,.84-1.24c0,.05.05.09.07.13a1.92,1.92,0,0,0,2.35.92l.12-.05a.16.16,0,0,0,.07-.22c0-.09-.11-.11-.21-.09a3.15,3.15,0,0,1-.67.12,1.55,1.55,0,0,1-1.54-1.48,1.58,1.58,0,0,1,1.43-1.65h.09a5,5,0,0,0,.24.83,1.83,1.83,0,0,0,1.6,1.11c.21,0,.29,0,.3-.15s-.07-.17-.27-.19a1.51,1.51,0,0,1-1.38-1,1.57,1.57,0,0,1,2-2,1.5,1.5,0,0,1,1.06,1.27,1.18,1.18,0,0,1,0,.26c0,2.62,0,5.23,0,7.85a1.56,1.56,0,0,1-1.2,1.57,1.57,1.57,0,0,1-1.81-2.15,1.52,1.52,0,0,1,1.35-.95h.06c.12,0,.19-.06.18-.18a.15.15,0,0,0-.18-.16,3.62,3.62,0,0,0-.74.17,1.81,1.81,0,0,0-1.1,1.35.22.22,0,0,1-.16.17,1.58,1.58,0,1,1,.09-3l.1,0a.16.16,0,0,0,.23-.09.17.17,0,0,0-.11-.23,1.89,1.89,0,0,0-1.24-.09A1.92,1.92,0,0,0,1178.87,453.23Z"/><path d="M1179.78,458.76v1.86c0,.05,0,.11,0,.14s-.1.12-.16.12-.11-.07-.16-.12,0-.08,0-.12c0-1.26,0-2.51,0-3.77v-.09a.17.17,0,0,1,.18-.17c.1,0,.15.07.16.17a.57.57,0,0,1,0,.13Z"/><path d="M1190,458.74v-1.88s0-.09,0-.11.1-.14.16-.16.16.06.18.15v.09c0,1.26,0,2.52,0,3.78,0,0,0,.09,0,.12s-.11.12-.16.12-.12-.07-.17-.13,0-.08,0-.12C1190,460,1190,459.36,1190,458.74Z"/><path d="M1187,460.5v-1.79a.17.17,0,0,1,0-.14.29.29,0,0,1,.15-.12c.06,0,.12.07.16.12s0,.09,0,.14c0,1.2,0,2.39,0,3.59,0,0,0,.1,0,.13s-.11.14-.16.13-.13-.08-.17-.14,0-.08,0-.13Z"/><path d="M1182.81,460.51v1.8c0,.05,0,.11,0,.15s-.1.11-.16.11a.22.22,0,0,1-.15-.12s0-.09,0-.14c0-1.19,0-2.39,0-3.59,0,0,0-.1,0-.13s.11-.12.17-.12.11.07.16.12,0,.09,0,.13Z"/><path d="M1181,459.89V458.3s0-.09,0-.12.1-.14.15-.14.13.08.18.14a.4.4,0,0,1,0,.11c0,1.07,0,2.15,0,3.22,0,0,0,.09,0,.11s-.11.14-.16.13-.12-.08-.17-.13,0-.09,0-.13C1181,461,1181,460.42,1181,459.89Z"/><path d="M1188.86,459.89c0,.53,0,1.05,0,1.58,0,0,0,.1,0,.13s-.11.13-.17.14-.12-.08-.16-.14,0-.08,0-.13v-3.18s0-.09,0-.11.1-.14.16-.16.16.05.18.15v1.72Z"/><path d="M1184.32,459.88c0,.53,0,1.05,0,1.57,0,.05,0,.11,0,.14a.34.34,0,0,1-.17.13c-.05,0-.12-.07-.16-.12a.37.37,0,0,1,0-.15V458.3s0-.1,0-.13.11-.14.16-.14.12.08.17.14,0,.09,0,.13Z"/><path d="M1185.84,459.88v1.59s0,.11,0,.14a.23.23,0,0,1-.16.1c-.05,0-.11-.06-.15-.11s0-.09,0-.14c0-1.06,0-2.12,0-3.18a.33.33,0,0,1,0-.1c0-.06.1-.14.17-.15s.15.05.17.15a.48.48,0,0,1,0,.12C1185.83,458.83,1185.84,459.35,1185.84,459.88Z"/><path d="M1179.44,462v-.38c0-.11,0-.19.18-.19s.16.08.17.19v.76a.18.18,0,0,1-.17.2c-.12,0-.17-.09-.18-.21Z"/><path d="M1190,462v-.4a.17.17,0,1,1,.34,0v.8a.15.15,0,0,1-.17.17.16.16,0,0,1-.17-.18Z"/></g><polygon class="cls-10" points="1250.32 360.72 1235.27 429.56 1283.82 439.59 1250.32 360.72"/><polygon class="cls-8" points="1483.31 360.37 1431.77 449.63 1534.84 449.63 1483.31 360.37"/><polygon class="cls-8" points="1483.31 380.99 1449.62 439.32 1516.99 439.32 1483.31 380.99"/><polygon class="cls-8" points="1483.31 401.6 1467.47 429.02 1499.13 429.02 1483.31 401.6"/><line class="cls-8" x1="1483.3" y1="360.37" x2="1483.3" y2="419.88"/><line class="cls-8" x1="1483.3" y1="419.88" x2="1431.77" y2="449.63"/><line class="cls-8" x1="1483.3" y1="419.88" x2="1534.84" y2="449.63"/><g class="cls-9"><circle class="cls-11" cx="1552.19" cy="454.88" r="10.86"/><path d="M1546.2,453.38l-.17,0h-1a.45.45,0,0,1-.5-.52,4.34,4.34,0,0,1,0-.51.45.45,0,0,1,.44-.46,1.26,1.26,0,0,1,1.27.69c0,.06.07.11.12.19,0-.15.08-.27.11-.39a8.09,8.09,0,0,1,1-2.3,2.08,2.08,0,0,1,1.55-1,13.91,13.91,0,0,1,2.41-.19c.85,0,1.7,0,2.55.06a9.06,9.06,0,0,1,1.56.25,1.58,1.58,0,0,1,1,.72,8.15,8.15,0,0,1,1.16,2.67c0,.05,0,.11,0,.19a.93.93,0,0,1,.13-.18,5.19,5.19,0,0,1,.37-.45,1.13,1.13,0,0,1,1-.23.43.43,0,0,1,.34.41v.62a.44.44,0,0,1-.45.44H1558l-.15,0c.14.14.27.27.39.41A3.12,3.12,0,0,1,1559,456a12.49,12.49,0,0,1-.22,2.36,5.36,5.36,0,0,1-.26.77.6.6,0,0,1-.41.38c-.05,0-.1.1-.1.15,0,.23,0,.46,0,.7a.53.53,0,0,1-.59.59h-.83a.52.52,0,0,1-.58-.59v-.53c-1.35,0-2.68.1-4,.1s-2.67-.07-4-.1v.5c0,.44-.18.61-.61.62h-.82a.51.51,0,0,1-.56-.56v-.73c0-.08,0-.14-.11-.16a.54.54,0,0,1-.39-.34,3.55,3.55,0,0,1-.36-1.28c-.05-.51-.09-1-.13-1.54a3.35,3.35,0,0,1,1-2.73Zm1-.3a56.46,56.46,0,0,1,9.73,0,1.57,1.57,0,0,0,0-.16,9.5,9.5,0,0,0-.88-2.31,1,1,0,0,0-.65-.51,10.55,10.55,0,0,0-2-.27,19.59,19.59,0,0,0-3.51.09,11.33,11.33,0,0,0-1.29.26.49.49,0,0,0-.33.27,8.9,8.9,0,0,0-.94,2.33A2.21,2.21,0,0,0,1547.15,453.08Zm4.87,4.82h2l.22,0a.33.33,0,0,0,.22-.49,1.81,1.81,0,0,0-.6-.63.63.63,0,0,0-.3-.07h-3.14a.64.64,0,0,0-.36.11,4,4,0,0,0-.53.56.33.33,0,0,0,.22.52.68.68,0,0,0,.2,0Zm-5.64-2.25a1.06,1.06,0,1,0,1.07-1A1,1,0,0,0,1546.38,455.65Zm11.28,0a1.06,1.06,0,1,0-1.08,1.06A1.06,1.06,0,0,0,1557.66,455.66Z"/></g><g class="cls-9"><circle class="cls-4" cx="1414.34" cy="454.58" r="10.57"/><path d="M1412.26,453.35l-.57,1.8a.77.77,0,0,1-.51.55.73.73,0,0,1-.83-.93c.16-.62.39-1.22.56-1.84a4.14,4.14,0,0,1,.93-1.74c.47-.52.91-1.07,1.34-1.63a1,1,0,0,1,1.29-.23,1.21,1.21,0,0,1,.5,1.36,17.24,17.24,0,0,0-.61,3.43c0,.18,0,.36,0,.54a2.1,2.1,0,0,0,.16.7,10.5,10.5,0,0,0,1.34,2.6,6.44,6.44,0,0,1,.37,1c.31,1,.61,2,.91,3a.93.93,0,0,1-.85,1.28.85.85,0,0,1-.73-.6c-.39-1.09-.79-2.18-1.19-3.26a2.94,2.94,0,0,0-.2-.44c-.58-1-1.15-1.93-1.73-2.9a1.43,1.43,0,0,1-.21-.76,15.22,15.22,0,0,1,.09-1.79.76.76,0,0,0,0-.15Z"/><path d="M1410.3,462.25a1.14,1.14,0,0,1,.15-.58c.51-1,1-2,1.52-3a2,2,0,0,0,.14-.84c0-.35,0-.71,0-1.06,0,0,0-.1,0-.12s0,0,.07.08c.42.83.84,1.67,1.25,2.51a.3.3,0,0,1,0,.33l-1.82,3.23a.67.67,0,0,1-.78.38.84.84,0,0,1-.58-.69A1.64,1.64,0,0,1,1410.3,462.25Z"/><path d="M1414.82,446.18a1.24,1.24,0,0,1,1.23,1.27,1.26,1.26,0,0,1-1.26,1.27,1.28,1.28,0,0,1-1.24-1.28A1.25,1.25,0,0,1,1414.82,446.18Z"/><path d="M1417.19,454.85a.76.76,0,0,1-.58.72,1,1,0,0,1-1-.17c-.3-.3-.56-.62-.84-.94a.28.28,0,0,1,0-.25,14.29,14.29,0,0,1,.26-1.84c0-.05,0-.11,0-.13s.11.05.14.09l1.84,2.1A.66.66,0,0,1,1417.19,454.85Z"/></g><circle class="cls-12" cx="1483.82" cy="343.4" r="10.8"/><path d="M1479.29,341.94c.23-.36.43-.73.68-1.07a1.52,1.52,0,0,0,.32-1.12,2.47,2.47,0,0,1,0-.39h-.52a.59.59,0,0,1-.64-.59.59.59,0,0,1,.64-.57h1.61a.58.58,0,1,1,.14,1.16l0,0v.56h4.62c.15,0,.2-.05.24-.19l.37-1.11a.6.6,0,0,1,.63-.45h1a.58.58,0,1,1,0,1.16h-.56a.16.16,0,0,0-.17.13c-.09.29-.2.57-.28.85a.25.25,0,0,0,0,.17c.29.48.59.95.88,1.41.3-.07.58-.15.88-.2a3.49,3.49,0,1,1-3,3.88,3.41,3.41,0,0,1,1-3,.13.13,0,0,0,0-.19c-.18-.27-.35-.55-.53-.84-.3.47-.58.93-.86,1.38-.5.8-1,1.6-1.5,2.41a.69.69,0,0,1-.64.35h-2.27a3.47,3.47,0,0,1-2,2.56,3.38,3.38,0,0,1-2.63.16,3.5,3.5,0,1,1,2.46-6.54Zm8.62,1.64a2.34,2.34,0,1,0,1-.61l.09.15c.35.57.71,1.14,1.07,1.71a.58.58,0,1,1-1,.61c-.28-.43-.55-.87-.82-1.31C1488.14,344,1488,343.77,1487.91,343.58Zm-9.26-.61a2.28,2.28,0,0,0-2.45.69,2.32,2.32,0,0,0,2.27,3.78,2.25,2.25,0,0,0,1.72-1.68H1478a.57.57,0,0,1-.59-.67.58.58,0,0,1,.12-.28C1477.88,344.2,1478.26,343.59,1478.65,343Zm3.27-1.86,1.85,3,1.86-3Zm-1.05.51c-.2.31-.38.6-.55.89,0,0,0,.1,0,.13a3.47,3.47,0,0,1,1,1.83c0,.1.06.13.16.13h1.19Zm-1.23,1.95-.62,1h1.19A2.43,2.43,0,0,0,1479.64,343.57Z"/><polygon class="cls-13" points="1483.58 360.72 1449.54 439.66 1503.86 431.7 1483.58 360.72"/><circle class="cls-11" cx="1551.93" cy="627.99" r="10.86"/><path d="M1545.94,626.49l-.17,0h-1a.47.47,0,0,1-.51-.52v-.52a.46.46,0,0,1,.45-.45,1.23,1.23,0,0,1,1.27.69,1.77,1.77,0,0,0,.12.19l.1-.39a8.47,8.47,0,0,1,1-2.31,2.13,2.13,0,0,1,1.54-1,15.08,15.08,0,0,1,2.42-.18c.85,0,1.7,0,2.55.06a10.52,10.52,0,0,1,1.56.24,1.61,1.61,0,0,1,1,.73,8.15,8.15,0,0,1,1.16,2.67c0,.05,0,.1,0,.19a2.2,2.2,0,0,1,.12-.19,4,4,0,0,1,.38-.44,1.07,1.07,0,0,1,1-.23.41.41,0,0,1,.33.4q0,.32,0,.63a.43.43,0,0,1-.45.43h-1.23l.39.41a3.21,3.21,0,0,1,.79,2.17,12.31,12.31,0,0,1-.22,2.35,5.54,5.54,0,0,1-.27.78.6.6,0,0,1-.41.38.18.18,0,0,0-.09.15c0,.23,0,.46,0,.69a.51.51,0,0,1-.58.59h-.84c-.39,0-.57-.19-.57-.58v-.54c-1.35,0-2.69.1-4,.1s-2.68-.06-4-.1v.51c0,.43-.18.61-.62.61h-.81a.5.5,0,0,1-.56-.56q0-.36,0-.72c0-.08,0-.15-.11-.16a.58.58,0,0,1-.4-.35,4,4,0,0,1-.36-1.27c0-.52-.08-1-.12-1.55a3.33,3.33,0,0,1,1-2.72Zm1-.31a56.34,56.34,0,0,1,9.72,0c0-.06,0-.11,0-.16a10.1,10.1,0,0,0-.88-2.31.92.92,0,0,0-.65-.5,10,10,0,0,0-2-.27,19.72,19.72,0,0,0-3.52.08c-.43.06-.86.17-1.28.26a.49.49,0,0,0-.33.28,8.86,8.86,0,0,0-1,2.32Zm4.86,4.82h2a.82.82,0,0,0,.22,0,.34.34,0,0,0,.22-.49,1.81,1.81,0,0,0-.61-.62.61.61,0,0,0-.3-.08h-3.13a.58.58,0,0,0-.36.12,2.82,2.82,0,0,0-.53.56.33.33,0,0,0,.22.52h2.23Zm-5.64-2.24a1.06,1.06,0,1,0,1.07-1.06A1.07,1.07,0,0,0,1546.11,628.76Zm11.28,0a1.06,1.06,0,1,0-1.07,1.05A1.05,1.05,0,0,0,1557.39,628.77Z"/><g class="cls-9"><circle class="cls-4" cx="1414.08" cy="627.69" r="10.57"/><path d="M1412,626.46l-.57,1.79a.7.7,0,1,1-1.35-.37c.16-.62.4-1.22.56-1.84a4.19,4.19,0,0,1,.94-1.75c.47-.51.91-1.07,1.34-1.63a1,1,0,0,1,1.29-.23,1.23,1.23,0,0,1,.5,1.37,17.91,17.91,0,0,0-.62,3.42c0,.18,0,.37,0,.55s.12.46.17.7a10.44,10.44,0,0,0,1.34,2.59,6.19,6.19,0,0,1,.36,1.05c.31,1,.62,2,.92,3a.92.92,0,0,1-.85,1.27.82.82,0,0,1-.73-.6c-.4-1.08-.8-2.17-1.19-3.26a3.42,3.42,0,0,0-.21-.43c-.57-1-1.15-1.94-1.73-2.9a1.46,1.46,0,0,1-.21-.77,15.34,15.34,0,0,1,.1-1.79.71.71,0,0,0,0-.14Z"/><path d="M1410,635.36a1.22,1.22,0,0,1,.16-.58c.5-1,1-2,1.52-3a2,2,0,0,0,.14-.84c0-.35,0-.71,0-1.07,0,0,0-.1,0-.12s.06,0,.08.08l1.25,2.51a.34.34,0,0,1,0,.34l-1.83,3.22a.65.65,0,0,1-.77.38.8.8,0,0,1-.58-.68A2.08,2.08,0,0,1,1410,635.36Z"/><path d="M1414.55,619.28a1.25,1.25,0,0,1,1.24,1.27,1.27,1.27,0,0,1-1.26,1.28,1.3,1.3,0,0,1-1.25-1.28A1.27,1.27,0,0,1,1414.55,619.28Z"/><path d="M1416.92,628a.75.75,0,0,1-.57.72,1,1,0,0,1-1-.17c-.3-.3-.57-.63-.84-.94-.07-.08,0-.17,0-.26a16.62,16.62,0,0,1,.26-1.84s0-.1.06-.12.1,0,.14.09l1.83,2.09A.57.57,0,0,1,1416.92,628Z"/></g><g class="cls-9"><circle class="cls-12" cx="1483.56" cy="516.5" r="10.8"/><path d="M1479,515.05c.22-.36.43-.73.68-1.07a1.54,1.54,0,0,0,.31-1.13c0-.12,0-.24,0-.38h-.53a.59.59,0,1,1,0-1.17h1.61a.59.59,0,0,1,.65.54.6.6,0,0,1-.52.63h0v.57h4.63a.21.21,0,0,0,.24-.18c.11-.38.24-.75.37-1.12a.59.59,0,0,1,.63-.45h1a.59.59,0,1,1,0,1.17h-.56c-.1,0-.14,0-.17.13-.09.28-.19.56-.28.85a.25.25,0,0,0,0,.17L1488,515c.3-.07.58-.16.87-.2a3.49,3.49,0,1,1-3,3.88,3.44,3.44,0,0,1,1.06-3c.06-.07.08-.11,0-.2l-.52-.83-.87,1.38-1.5,2.4a.68.68,0,0,1-.64.36h-2.27a3.47,3.47,0,0,1-2,2.57,3.36,3.36,0,0,1-2.62.15,3.49,3.49,0,1,1,2.46-6.53Zm8.61,1.64a2.32,2.32,0,1,0,3.66.37,2.26,2.26,0,0,0-2.66-1l.09.15,1.06,1.7a.58.58,0,0,1-.16.83.57.57,0,0,1-.82-.21l-.83-1.32Zm-9.25-.62a2.32,2.32,0,0,0-2.68,3.42,2.34,2.34,0,0,0,2.5,1.06,2.28,2.28,0,0,0,1.72-1.69h-2.22a.56.56,0,0,1-.58-.67.75.75,0,0,1,.11-.28Zm3.27-1.85,1.85,3,1.85-3Zm-1.06.51-.55.88a.2.2,0,0,0,0,.14,3.5,3.5,0,0,1,1,1.83.13.13,0,0,0,.15.12h1.2Zm-1.22,1.95-.63,1h1.19A2.25,2.25,0,0,0,1479.38,516.68Z"/></g><polygon class="cls-14" points="1482 569 1449.28 612.77 1534.74 624.36 1482 569"/><g class="cls-9"><circle class="cls-11" cx="1551.93" cy="797.47" r="10.86"/><path d="M1545.94,796l-.17,0h-1a.46.46,0,0,1-.51-.52v-.51a.46.46,0,0,1,.45-.46,1.26,1.26,0,0,1,1.27.69,1.14,1.14,0,0,0,.12.19l.1-.39a8.6,8.6,0,0,1,1-2.31,2.09,2.09,0,0,1,1.54-1,14,14,0,0,1,2.42-.19c.85,0,1.7,0,2.55.06a10.52,10.52,0,0,1,1.56.24,1.68,1.68,0,0,1,1,.73,8.15,8.15,0,0,1,1.16,2.67c0,.05,0,.1,0,.19a2.2,2.2,0,0,1,.12-.19,5.2,5.2,0,0,1,.38-.44,1.13,1.13,0,0,1,1-.23.41.41,0,0,1,.33.41c0,.21,0,.42,0,.62a.43.43,0,0,1-.45.44h-1.08l-.15,0c.14.14.27.27.39.41a3.17,3.17,0,0,1,.79,2.16,12.49,12.49,0,0,1-.22,2.36,5.41,5.41,0,0,1-.27.77.58.58,0,0,1-.41.38s-.09.1-.09.15c0,.23,0,.46,0,.69a.52.52,0,0,1-.58.6h-.84a.51.51,0,0,1-.57-.59v-.53c-1.35,0-2.69.1-4,.1s-2.68-.07-4-.1v.5c0,.43-.18.61-.62.62h-.81a.51.51,0,0,1-.56-.57q0-.36,0-.72c0-.08,0-.14-.11-.16a.57.57,0,0,1-.4-.34,4.07,4.07,0,0,1-.36-1.28c0-.51-.08-1-.12-1.54a3.34,3.34,0,0,1,1-2.73Zm1-.3a56.34,56.34,0,0,1,9.72,0c0-.07,0-.12,0-.16a9.92,9.92,0,0,0-.88-2.31,1,1,0,0,0-.65-.51,10.76,10.76,0,0,0-2-.27,19.73,19.73,0,0,0-3.52.09,11.16,11.16,0,0,0-1.28.26.45.45,0,0,0-.33.27,8.92,8.92,0,0,0-1,2.33C1546.93,795.46,1546.91,795.55,1546.89,795.67Zm4.86,4.82h2a.83.83,0,0,0,.22,0,.33.33,0,0,0,.22-.49,1.9,1.9,0,0,0-.61-.62.6.6,0,0,0-.3-.07h-3.13a.57.57,0,0,0-.36.11,3.12,3.12,0,0,0-.53.56.33.33,0,0,0,.22.52l.19,0Zm-5.64-2.25a1.06,1.06,0,1,0,1.07-1A1.05,1.05,0,0,0,1546.11,798.24Zm11.28,0a1.06,1.06,0,1,0-1.07,1A1,1,0,0,0,1557.39,798.25Z"/></g><circle class="cls-4" cx="1414.08" cy="797.17" r="10.57"/><path d="M1412,795.94l-.57,1.8a.76.76,0,0,1-.52.55.73.73,0,0,1-.83-.93c.16-.62.4-1.22.56-1.84a4.1,4.1,0,0,1,.94-1.74c.47-.52.91-1.07,1.34-1.63a1,1,0,0,1,1.29-.23,1.21,1.21,0,0,1,.5,1.36,18,18,0,0,0-.62,3.43c0,.18,0,.36,0,.54s.12.46.17.7a10.68,10.68,0,0,0,1.34,2.6,6.4,6.4,0,0,1,.36,1c.31,1,.62,2,.92,3a.92.92,0,0,1-.85,1.27.81.81,0,0,1-.73-.59c-.4-1.09-.8-2.18-1.19-3.26a3,3,0,0,0-.21-.44l-1.73-2.9a1.43,1.43,0,0,1-.21-.76,15.51,15.51,0,0,1,.1-1.8.61.61,0,0,0,0-.14Z"/><path d="M1410,804.84a1.26,1.26,0,0,1,.16-.58c.5-1,1-2,1.52-3a2,2,0,0,0,.14-.84c0-.35,0-.71,0-1.06,0,0,0-.1,0-.12s.06,0,.08.08c.42.83.83,1.67,1.25,2.5a.34.34,0,0,1,0,.34l-1.83,3.23a.66.66,0,0,1-.77.38.81.81,0,0,1-.58-.69A1.6,1.6,0,0,1,1410,804.84Z"/><path d="M1414.55,788.76a1.28,1.28,0,0,1,0,2.55,1.28,1.28,0,0,1,0-2.55Z"/><path d="M1416.92,797.44a.75.75,0,0,1-.57.72,1,1,0,0,1-1-.17c-.3-.3-.57-.62-.84-.94-.07-.07,0-.17,0-.25a16.8,16.8,0,0,1,.26-1.85s0-.1.06-.12.1,0,.14.09l1.83,2.09A.61.61,0,0,1,1416.92,797.44Z"/><g class="cls-9"><circle class="cls-12" cx="1483.56" cy="685.99" r="10.8"/><path d="M1479,684.53c.22-.36.43-.73.68-1.07a1.51,1.51,0,0,0,.31-1.12c0-.12,0-.25,0-.39h-.53a.59.59,0,0,1-.63-.59.58.58,0,0,1,.64-.57h1.61a.58.58,0,1,1,.13,1.16h0v.57h4.63c.14,0,.2,0,.24-.19.11-.37.24-.74.37-1.11a.59.59,0,0,1,.63-.45h1a.58.58,0,0,1,.63.57.59.59,0,0,1-.64.59h-.56c-.1,0-.14,0-.17.13l-.28.85a.25.25,0,0,0,0,.17c.29.48.59.95.88,1.41.3-.07.58-.16.87-.2a3.49,3.49,0,1,1-1.93.93c.06-.06.08-.11,0-.19l-.52-.84-.87,1.38-1.5,2.41a.69.69,0,0,1-.64.35h-2.27a3.45,3.45,0,0,1-2,2.56,3.36,3.36,0,0,1-2.62.16,3.5,3.5,0,1,1,2.46-6.54Zm8.61,1.64a2.32,2.32,0,1,0,3.66.37,2.29,2.29,0,0,0-2.66-1l.09.15,1.06,1.71a.58.58,0,0,1-.16.83.58.58,0,0,1-.82-.22l-.83-1.31Zm-9.25-.61a2.29,2.29,0,0,0-2.46.69,2.32,2.32,0,0,0,2.28,3.78,2.28,2.28,0,0,0,1.72-1.68h-2.22a.57.57,0,0,1-.58-.67.79.79,0,0,1,.11-.29Zm3.27-1.86,1.85,3,1.85-3Zm-1.06.51-.55.89a.2.2,0,0,0,0,.13,3.54,3.54,0,0,1,1,1.83c0,.1.06.13.15.12h1.2Zm-1.22,1.95-.63,1h1.19A2.3,2.3,0,0,0,1479.38,686.16Z"/></g><polygon class="cls-15" points="1483.32 726.48 1430.44 796.01 1499.25 774.29 1483.32 726.48"/><polygon class="cls-8" points="1250.46 534.93 1198.93 624.18 1302 624.18 1250.46 534.93"/><polygon class="cls-8" points="1250.46 555.54 1216.78 613.88 1284.15 613.88 1250.46 555.54"/><polygon class="cls-8" points="1250.46 576.15 1234.63 603.57 1266.3 603.57 1250.46 576.15"/><line class="cls-8" x1="1250.46" y1="534.93" x2="1250.46" y2="594.43"/><line class="cls-8" x1="1250.46" y1="594.43" x2="1198.93" y2="624.18"/><line class="cls-8" x1="1250.46" y1="594.43" x2="1302" y2="624.18"/><g class="cls-9"><circle class="cls-1" cx="1250.42" cy="519.37" r="10.63"/><path d="M1248.09,517.1a1.92,1.92,0,0,0,1.75-2c0-.71,0-1.43,0-2.15,0-.47.23-.76.59-.72s.54.35.53.74c0,.71,0,1.43,0,2.14a2,2,0,0,0,1.76,2c0-.54,0-1.08,0-1.62a1.4,1.4,0,0,1,2.24-1.28,7,7,0,0,1,1.6,1.47,9.69,9.69,0,0,1,1.85,5.24,16.07,16.07,0,0,1,.09,2,2.61,2.61,0,0,1-.2,1,1.57,1.57,0,0,1-2.18,1.07,4.91,4.91,0,0,1-3-2.46,3.43,3.43,0,0,1-.35-1.38c-.06-.9,0-1.8,0-2.73a2.6,2.6,0,0,0-4.65,0c0,.87,0,1.73,0,2.58a3.12,3.12,0,0,1-.65,2,5.16,5.16,0,0,1-3.12,2.06,1.31,1.31,0,0,1-1.52-.62,3.06,3.06,0,0,1-.48-1.33,13.34,13.34,0,0,1,1-5.92,6.41,6.41,0,0,1,2.22-2.77,2.56,2.56,0,0,1,1.2-.4,1.2,1.2,0,0,1,1.31,1.27C1248.1,515.86,1248.09,516.48,1248.09,517.1Z"/></g><circle class="cls-2" cx="1315.95" cy="629.43" r="10.64"/><path d="M1321.24,632.9a3.07,3.07,0,0,1-3.69-1.12l-1.63.91a3,3,0,1,1-3.35-1.69l-.13-1.2a4,4,0,0,1-3-1.22,3.91,3.91,0,0,1-1.11-2.5,4,4,0,0,1,7.58-1.93l.93-.25.68-.18c.09,0,.12-.06.12-.16a1.08,1.08,0,0,1,.8-1.07,1.08,1.08,0,0,1,.88,1.94,1.08,1.08,0,0,1-1.45-.19.19.19,0,0,0-.22-.07c-.51.15-1,.28-1.56.42a3.93,3.93,0,0,1-.2,3l1.61.87a3,3,0,0,1,2.61-1.37,2.91,2.91,0,0,1,2.24,1.06,3,3,0,0,1-.71,4.55c0,.09.07.19.11.29l.39,1a.13.13,0,0,0,.16.1,1.06,1.06,0,0,1,1.18,1,1.09,1.09,0,1,1-1.82-.69s.06-.09,0-.12C1321.58,633.76,1321.41,633.33,1321.24,632.9Zm-12.3-7.08a3.4,3.4,0,1,0,3.4-3.4A3.41,3.41,0,0,0,1308.94,625.82Zm4.22,5.7a2.46,2.46,0,1,0,2.47,2.45A2.48,2.48,0,0,0,1313.16,631.52Zm6.93-3.89a2.46,2.46,0,1,0,2.46,2.45A2.46,2.46,0,0,0,1320.09,627.63Zm-7.18,2.14.14,1.17a3.07,3.07,0,0,1,2.63,1.35l1.66-.92a3,3,0,0,1,0-2.52l-1.62-.87A4.09,4.09,0,0,1,1312.91,629.77Z"/><path d="M1312.34,626.34l.49-.37a.21.21,0,0,1,.15,0,2.44,2.44,0,0,1,1.23.69,1.2,1.2,0,0,1,.32.62.31.31,0,0,1-.17.39,3.19,3.19,0,0,1-1.42.44,5.06,5.06,0,0,1-2.08-.19,3.06,3.06,0,0,1-.55-.26.29.29,0,0,1-.17-.36,1.36,1.36,0,0,1,.67-.94,5.82,5.82,0,0,1,.85-.38.22.22,0,0,1,.19,0C1312,626.09,1312.17,626.22,1312.34,626.34Z"/><path d="M1312.32,623.55a1.16,1.16,0,1,1-1.11,1.16A1.14,1.14,0,0,1,1312.32,623.55Z"/><path d="M1313.08,635.46a3.14,3.14,0,0,1-1.24-.24c-.34-.15-.44-.2-.22-.65a1.33,1.33,0,0,1,.72-.6c.37-.17.38-.18.69.09.11.09.18.1.27,0,.2-.26.43-.23.7-.09a1.69,1.69,0,0,1,.69.55.3.3,0,0,0,0,.08c.17.33.13.45-.21.61A3.61,3.61,0,0,1,1313.08,635.46Z"/><path d="M1313.17,632.06a.88.88,0,1,1-.85.85A.85.85,0,0,1,1313.17,632.06Z"/><path d="M1320.11,630.4l.35-.28a.24.24,0,0,1,.14,0,1.57,1.57,0,0,1,.87.48,1.61,1.61,0,0,1,.27.48c.06.17,0,.24-.15.33a2.76,2.76,0,0,1-1.12.31,3.67,3.67,0,0,1-1.51-.16,1.69,1.69,0,0,1-.31-.13c-.21-.11-.23-.18-.17-.41a.93.93,0,0,1,.41-.54,6.91,6.91,0,0,1,.72-.36.24.24,0,0,1,.14,0C1319.87,630.21,1320,630.31,1320.11,630.4Z"/><path d="M1320.91,629.16a.83.83,0,1,1-.81-.88A.86.86,0,0,1,1320.91,629.16Z"/><g class="cls-9"><circle class="cls-3" cx="1184.9" cy="629.43" r="10.54"/><path d="M1188.91,622.65a1.57,1.57,0,0,1,1.54,1.19,1.6,1.6,0,0,1-.86,1.8,1.54,1.54,0,0,1-1.19.06l-.09,0c-.11,0-.2,0-.24.08s0,.19.11.23a1.91,1.91,0,0,0,2.43-.88l.08-.14a1.58,1.58,0,0,1,.23,2.65,2,2,0,0,0-1.08-.61,1.88,1.88,0,0,0-1.1.1c-.11,0-.18.11-.14.24s.13.13.27.08a1.57,1.57,0,1,1,.13,3,.21.21,0,0,1-.12-.14,1.92,1.92,0,0,0-1.72-1.52H1187a.17.17,0,0,0,0,.34c.12,0,.25,0,.37.05a1.56,1.56,0,0,1,1.19,1.73,1.58,1.58,0,0,1-1.53,1.37,1.56,1.56,0,0,1-1.58-1.35,1.18,1.18,0,0,1,0-.26q0-3.93,0-7.86a1.58,1.58,0,1,1,1.73,1.53H1187a.15.15,0,0,0-.15.18.14.14,0,0,0,.17.15,2.56,2.56,0,0,0,.68-.13,1.86,1.86,0,0,0,1.22-1.7A.41.41,0,0,0,1188.91,622.65Z"/><path d="M1178.88,627.62a1.54,1.54,0,0,1-.61-1.42,1.52,1.52,0,0,1,.84-1.24s.05.09.07.14a1.92,1.92,0,0,0,2.34.92.45.45,0,0,0,.12-.06.15.15,0,0,0,.08-.22c0-.09-.11-.1-.22-.08a3.06,3.06,0,0,1-.66.12,1.57,1.57,0,0,1-.1-3.13h.09a5,5,0,0,0,.23.83,1.85,1.85,0,0,0,1.6,1.11c.21,0,.29,0,.3-.15s-.07-.17-.27-.19a1.57,1.57,0,1,1,.6-3,1.51,1.51,0,0,1,1.06,1.27,2.11,2.11,0,0,1,0,.26v7.84a1.57,1.57,0,0,1-1.2,1.57,1.49,1.49,0,0,1-1.57-.51,1.48,1.48,0,0,1-.24-1.65,1.51,1.51,0,0,1,1.36-.94h0c.12,0,.19-.06.19-.18a.15.15,0,0,0-.19-.15,2.87,2.87,0,0,0-.73.16,1.8,1.8,0,0,0-1.11,1.34.21.21,0,0,1-.17.18,1.6,1.6,0,0,1-1.74-.63,1.58,1.58,0,0,1,.07-1.86,1.59,1.59,0,0,1,1.78-.51l.09,0a.16.16,0,0,0,.23-.08c0-.1,0-.18-.11-.23a1.9,1.9,0,0,0-2.2.5Z"/><path d="M1179.77,633.15V635a.37.37,0,0,1,0,.15.17.17,0,0,1-.32,0s0-.09,0-.13v-3.85a.17.17,0,0,1,.18-.18.17.17,0,0,1,.16.17v2Z"/><path d="M1190,633.15v-1.87s0-.09,0-.12.1-.14.16-.15.16,0,.17.15a.28.28,0,0,1,0,.09V635s0,.09,0,.11-.11.13-.17.13-.12-.07-.16-.13,0-.08,0-.13Z"/><path d="M1187,634.91v-1.79s0-.1,0-.14.1-.11.15-.11.12.06.16.11,0,.09,0,.14v3.59s0,.1,0,.13-.11.14-.16.13-.12-.08-.17-.14,0-.08,0-.13Z"/><path d="M1182.8,634.91v1.8a.25.25,0,0,1,0,.15s-.1.11-.15.11-.12-.06-.16-.12,0-.09,0-.14v-3.59s0-.1,0-.13.11-.12.17-.12.12.07.16.13,0,.08,0,.12Z"/><path d="M1180.94,634.29V632.7s0-.1,0-.13.11-.14.16-.13.12.08.17.14,0,.07,0,.11v3.21s0,.09,0,.12-.11.13-.16.13a.32.32,0,0,1-.17-.14s0-.08,0-.13Z"/><path d="M1188.85,634.3v1.59s0,.1,0,.13-.11.13-.17.13-.11-.08-.15-.14,0-.08,0-.12V632.7a.4.4,0,0,1,0-.11c0-.06.1-.14.17-.16s.15.06.17.16a.4.4,0,0,1,0,.11Z"/><path d="M1184.31,634.29v1.57s0,.11,0,.14-.11.12-.17.12-.11-.07-.15-.12,0-.1,0-.14V632.7s0-.1,0-.13.1-.14.15-.13.13.08.17.14,0,.08,0,.12Z"/><path d="M1185.83,634.29c0,.53,0,1.05,0,1.58,0,0,0,.11,0,.14a.27.27,0,0,1-.17.11s-.11-.06-.14-.11,0-.09,0-.14v-3.18s0-.08,0-.1a.41.41,0,0,1,.16-.16c.1,0,.16.06.17.16a.4.4,0,0,1,0,.11C1185.83,633.23,1185.83,633.76,1185.83,634.29Z"/><path d="M1179.43,636.4V636c0-.11,0-.19.17-.19s.17.08.17.19v.76c0,.11,0,.2-.17.2s-.17-.08-.17-.2Z"/><path d="M1190,636.4V636c0-.11.06-.18.17-.18s.17.07.17.18,0,.53,0,.8a.16.16,0,0,1-.17.17c-.11,0-.16-.08-.17-.18Z"/></g><polygon class="cls-16" points="1250.53 554.83 1235.32 604.08 1298.34 622.18 1250.53 554.83"/><polygon class="cls-8" points="1483.41 534.93 1431.88 624.18 1534.94 624.18 1483.41 534.93"/><polygon class="cls-8" points="1483.41 555.54 1449.73 613.88 1517.09 613.88 1483.41 555.54"/><polygon class="cls-8" points="1483.41 576.15 1467.58 603.57 1499.24 603.57 1483.41 576.15"/><line class="cls-8" x1="1483.41" y1="534.93" x2="1483.41" y2="594.43"/><line class="cls-8" x1="1483.41" y1="594.43" x2="1431.87" y2="624.18"/><line class="cls-8" x1="1483.41" y1="594.43" x2="1534.94" y2="624.18"/><polygon class="cls-8" points="1250.46 705.86 1198.93 795.12 1302 795.12 1250.46 705.86"/><polygon class="cls-8" points="1250.46 726.47 1216.78 784.81 1284.15 784.81 1250.46 726.47"/><polygon class="cls-8" points="1250.46 747.09 1234.63 774.5 1266.3 774.5 1250.46 747.09"/><line class="cls-8" x1="1250.46" y1="705.86" x2="1250.46" y2="765.36"/><line class="cls-8" x1="1250.46" y1="765.36" x2="1198.93" y2="795.12"/><line class="cls-8" x1="1250.46" y1="765.36" x2="1302" y2="795.12"/><g class="cls-9"><circle class="cls-1" cx="1250.42" cy="690.3" r="10.63"/><path d="M1248.09,688a1.92,1.92,0,0,0,1.75-2c0-.71,0-1.43,0-2.14,0-.47.23-.77.59-.73s.54.35.53.74c0,.71,0,1.43,0,2.14a2,2,0,0,0,1.76,2c0-.55,0-1.09,0-1.63a1.4,1.4,0,0,1,2.24-1.28,7,7,0,0,1,1.6,1.47,9.69,9.69,0,0,1,1.85,5.25,15.82,15.82,0,0,1,.09,1.95,2.61,2.61,0,0,1-.2,1,1.57,1.57,0,0,1-2.18,1.07,4.91,4.91,0,0,1-3-2.46,3.43,3.43,0,0,1-.35-1.38c-.06-.89,0-1.8,0-2.72a3.93,3.93,0,0,1-2.33-1.43,3.78,3.78,0,0,1-2.32,1.43c0,.87,0,1.73,0,2.58a3.12,3.12,0,0,1-.65,2,5.16,5.16,0,0,1-3.12,2.06,1.29,1.29,0,0,1-1.52-.62,3,3,0,0,1-.48-1.33,13.39,13.39,0,0,1,1-5.92,6.32,6.32,0,0,1,2.22-2.76,2.45,2.45,0,0,1,1.2-.4,1.19,1.19,0,0,1,1.31,1.26C1248.1,686.79,1248.09,687.41,1248.09,688Z"/></g><g class="cls-9"><circle class="cls-2" cx="1315.95" cy="800.36" r="10.64"/><path d="M1321.24,803.83a3.07,3.07,0,0,1-3.69-1.12l-1.63.91a3,3,0,1,1-3.35-1.69l-.13-1.2a4,4,0,0,1-4.07-3.72,4,4,0,0,1,7.58-1.92l.93-.26.68-.18c.09,0,.12-.06.12-.16a1.08,1.08,0,0,1,.8-1.07,1.09,1.09,0,0,1,.88,2,1.1,1.1,0,0,1-1.45-.2.17.17,0,0,0-.22-.06l-1.56.42a3.9,3.9,0,0,1-.2,3l1.61.87a3,3,0,0,1,2.61-1.37,2.91,2.91,0,0,1,2.24,1.06,3,3,0,0,1-.71,4.55c0,.09.07.19.11.29l.39,1a.13.13,0,0,0,.16.1,1.06,1.06,0,0,1,1.18,1,1.09,1.09,0,0,1-1,1.19,1.07,1.07,0,0,1-1.08-.63,1.09,1.09,0,0,1,.25-1.25s.06-.09,0-.12C1321.58,804.69,1321.41,804.26,1321.24,803.83Zm-12.3-7.08a3.4,3.4,0,1,0,3.4-3.4A3.4,3.4,0,0,0,1308.94,796.75Zm4.22,5.7a2.46,2.46,0,1,0,2.47,2.45A2.48,2.48,0,0,0,1313.16,802.45Zm6.93-3.89a2.46,2.46,0,1,0,2.46,2.46A2.46,2.46,0,0,0,1320.09,798.56Zm-7.18,2.14.14,1.17a3.07,3.07,0,0,1,2.63,1.35l1.66-.92a3,3,0,0,1,0-2.51l-1.62-.88A4.09,4.09,0,0,1,1312.91,800.7Z"/><path d="M1312.34,797.28l.49-.38a.28.28,0,0,1,.15,0,2.51,2.51,0,0,1,1.23.69,1.27,1.27,0,0,1,.32.63.3.3,0,0,1-.17.38,3.19,3.19,0,0,1-1.42.44,4.89,4.89,0,0,1-2.08-.19,3.87,3.87,0,0,1-.55-.25.3.3,0,0,1-.17-.37,1.36,1.36,0,0,1,.67-.94,7.13,7.13,0,0,1,.85-.38.22.22,0,0,1,.19,0C1312,797,1312.17,797.15,1312.34,797.28Z"/><path d="M1312.32,794.48a1.15,1.15,0,0,1,1.12,1.17,1.12,1.12,0,1,1-1.12-1.17Z"/><path d="M1313.08,806.39a3,3,0,0,1-1.24-.24c-.34-.15-.44-.2-.22-.65a1.33,1.33,0,0,1,.72-.6c.37-.17.38-.17.69.09.11.09.18.1.27,0,.2-.26.43-.23.7-.09a1.69,1.69,0,0,1,.69.55l0,.08c.17.34.13.45-.21.61A3.61,3.61,0,0,1,1313.08,806.39Z"/><path d="M1313.17,803a.88.88,0,0,1,0,1.75.88.88,0,0,1,0-1.75Z"/><path d="M1320.11,801.34a2.86,2.86,0,0,1,.35-.28.19.19,0,0,1,.14,0,1.71,1.71,0,0,1,.87.48,1.75,1.75,0,0,1,.27.48c.06.17,0,.24-.15.33a2.61,2.61,0,0,1-1.12.31,3.84,3.84,0,0,1-1.51-.15l-.31-.14c-.21-.11-.23-.18-.17-.41a.93.93,0,0,1,.41-.54,6.82,6.82,0,0,1,.72-.35.15.15,0,0,1,.14,0C1319.87,801.14,1320,801.24,1320.11,801.34Z"/><path d="M1320.91,800.09a.85.85,0,0,1-.83.88.88.88,0,1,1,.83-.88Z"/></g><circle class="cls-3" cx="1184.9" cy="800.36" r="10.54"/><path d="M1188.91,793.58a1.57,1.57,0,0,1,.68,3,1.54,1.54,0,0,1-1.19.06l-.09,0a.16.16,0,0,0-.24.09c0,.11,0,.18.11.22a1.88,1.88,0,0,0,1.54,0,1.84,1.84,0,0,0,.89-.85l.08-.14a1.59,1.59,0,0,1,.23,2.66,1.92,1.92,0,0,0-1.08-.62,2,2,0,0,0-1.1.1c-.11.05-.18.12-.14.25s.13.12.27.07a1.57,1.57,0,1,1,.13,2.95.21.21,0,0,1-.12-.14,1.93,1.93,0,0,0-1.72-1.52H1187a.15.15,0,0,0-.16.16.16.16,0,0,0,.16.17c.12,0,.25,0,.37,0a1.56,1.56,0,0,1,1.19,1.73,1.58,1.58,0,0,1-1.53,1.37,1.55,1.55,0,0,1-1.58-1.35,1.14,1.14,0,0,1,0-.26q0-3.93,0-7.86a1.58,1.58,0,0,1,3.1-.44,1.57,1.57,0,0,1-1.37,2H1187a.16.16,0,0,0-.15.18.14.14,0,0,0,.17.15,2.56,2.56,0,0,0,.68-.13,1.86,1.86,0,0,0,1.22-1.7A.41.41,0,0,0,1188.91,793.58Z"/><path d="M1178.88,798.55a1.54,1.54,0,0,1-.61-1.42,1.52,1.52,0,0,1,.84-1.24.91.91,0,0,0,.07.14,1.91,1.91,0,0,0,2.34.92l.12-.05a.15.15,0,0,0,.08-.22c0-.09-.11-.11-.22-.09a3.06,3.06,0,0,1-.66.12,1.54,1.54,0,0,1-1.53-1.48,1.56,1.56,0,0,1,1.43-1.65h.09a5,5,0,0,0,.23.83,1.82,1.82,0,0,0,1.6,1.11c.21,0,.29,0,.3-.15s-.07-.17-.27-.19a1.48,1.48,0,0,1-1.37-1,1.46,1.46,0,0,1,.35-1.62,1.48,1.48,0,0,1,1.62-.39,1.51,1.51,0,0,1,1.06,1.27,2.28,2.28,0,0,1,0,.26v7.84a1.57,1.57,0,0,1-1.2,1.57,1.57,1.57,0,0,1-1.81-2.15,1.49,1.49,0,0,1,1.36-.94h0c.12,0,.19-.07.19-.19a.15.15,0,0,0-.19-.15,3.38,3.38,0,0,0-.73.16,1.8,1.8,0,0,0-1.11,1.35.21.21,0,0,1-.17.17,1.57,1.57,0,1,1,.11-3l.09,0c.1,0,.19,0,.23-.08s0-.18-.11-.23a1.94,1.94,0,0,0-2.2.5Z"/><path d="M1179.77,804.08V806s0,.11,0,.14a.17.17,0,0,1-.32,0s0-.08,0-.13v-3.85c0-.11.07-.18.18-.17s.15.07.16.17v2Z"/><path d="M1190,804.09v-1.88s0-.09,0-.11a.41.41,0,0,1,.16-.16.15.15,0,0,1,.17.15.28.28,0,0,1,0,.09V806s0,.09,0,.12-.11.12-.17.12-.12-.07-.16-.13,0-.08,0-.12Z"/><path d="M1187,805.85v-1.79s0-.11,0-.14.1-.12.15-.12.12.06.16.11,0,.09,0,.14v3.59c0,.05,0,.1,0,.13s-.11.14-.16.13-.12-.08-.17-.14,0-.08,0-.13Z"/><path d="M1182.8,805.84v1.81c0,.05,0,.11,0,.14s-.1.12-.15.12-.12-.07-.16-.12,0-.1,0-.14v-3.6s0-.1,0-.12.11-.13.17-.13.12.07.16.13,0,.08,0,.13Z"/><path d="M1180.94,805.22v-1.59s0-.1,0-.12.11-.14.16-.14.12.08.17.14,0,.07,0,.11v3.22s0,.09,0,.11-.11.14-.16.13-.13-.08-.17-.14,0-.08,0-.12Z"/><path d="M1188.85,805.24v1.58s0,.1,0,.13-.11.13-.17.13-.11-.08-.15-.13,0-.09,0-.13v-3.19a.41.41,0,0,1,0-.11c0-.06.1-.14.17-.15s.15,0,.17.15a.48.48,0,0,1,0,.12Z"/><path d="M1184.31,805.22v1.57c0,.05,0,.11,0,.14s-.11.12-.17.12-.11-.07-.15-.12,0-.09,0-.14v-3.15s0-.1,0-.13.1-.14.15-.14.13.08.17.14,0,.08,0,.13Z"/><path d="M1185.83,805.22c0,.53,0,1.06,0,1.58,0,.05,0,.12,0,.15a.25.25,0,0,1-.17.1s-.11-.06-.14-.11,0-.09,0-.14v-3.18s0-.08,0-.1.1-.14.16-.15.16,0,.17.15a.48.48,0,0,1,0,.12C1185.83,804.16,1185.83,804.69,1185.83,805.22Z"/><path d="M1179.43,807.33V807c0-.11,0-.19.17-.19s.17.09.17.2v.75c0,.12,0,.2-.17.2s-.17-.08-.17-.2Z"/><path d="M1190,807.34v-.4c0-.1.06-.18.17-.18s.17.07.17.18,0,.53,0,.8c0,.11-.06.18-.17.17s-.16-.07-.17-.18Z"/><polygon class="cls-17" points="1250.53 725.76 1199.11 795.29 1283.85 785.15 1250.53 725.76"/><polygon class="cls-8" points="1483.41 705.86 1431.88 795.12 1534.94 795.12 1483.41 705.86"/><polygon class="cls-8" points="1483.41 726.47 1449.73 784.81 1517.09 784.81 1483.41 726.47"/><polygon class="cls-8" points="1483.41 747.09 1467.58 774.5 1499.24 774.5 1483.41 747.09"/><line class="cls-8" x1="1483.41" y1="705.86" x2="1483.41" y2="765.36"/><line class="cls-8" x1="1483.41" y1="765.36" x2="1431.87" y2="795.12"/><line class="cls-8" x1="1483.41" y1="765.36" x2="1534.94" y2="795.12"/><text class="cls-18" transform="translate(1353.94 577.39)">+</text><text class="cls-19" transform="translate(1199.64 303.08)"><tspan class="cls-20">L</tspan><tspan class="cls-21" x="6.9" y="0">O</tspan><tspan class="cls-22" x="16.72" y="0">W</tspan><tspan x="29.87" y="0">E</tspan><tspan class="cls-23" x="37.9" y="0">S</tspan><tspan x="45.16" y="0">T HEA</tspan><tspan class="cls-24" x="81.58" y="0">L</tspan><tspan x="87.86" y="0">TH</tspan></text><text class="cls-19" transform="translate(1436.6 303.28)">HIGHE<tspan class="cls-23" x="40.44" y="0">S</tspan><tspan x="47.7" y="0">T F</tspan><tspan class="cls-20" x="65.33" y="0">L</tspan><tspan class="cls-21" x="72.23" y="0">O</tspan><tspan x="82.04" y="0">W</tspan></text></g><g id="Isolation_Mode" data-name="Isolation Mode"><rect class="cls-25" x="1154.91" y="262.5" width="191.13" height="608.58" rx="36.85"/><rect class="cls-25" x="1387.84" y="261.49" width="191.13" height="608.58" rx="36.85"/><path class="cls-26" d="M356.5,255.37V132.5c0-8.6,11-47,51-47h1291c7.63,0,19.52-.42,33.1,2,40.64,7.1,70,42.89,70,84.15V470.43"/><polygon class="cls-7" points="362.63 250.4 361.54 249.38 356.5 254.8 351.46 249.38 350.37 250.4 356.5 257 362.63 250.4"/><circle class="cls-7" cx="1801.59" cy="470.24" r="3.76"/></g><g id="text"><polyline class="cls-26" points="356 668.57 356 798.35 467.37 798.35"/><circle class="cls-7" cx="356" cy="668.76" r="3.76"/><polygon class="cls-7" points="462.4 804.48 461.38 803.38 466.8 798.35 461.38 793.31 462.4 792.21 469 798.35 462.4 804.48"/><path class="cls-26" d="M467.08,288.74c-17.76.72-111.08-.09-111.08-.09V438.42"/><polygon class="cls-7" points="461.93 282.71 460.94 283.84 466.5 288.72 461.24 293.91 462.29 294.98 468.7 288.65 461.93 282.71"/><circle class="cls-7" cx="356" cy="438.24" r="3.76"/><ellipse class="cls-27" cx="356.14" cy="554.32" rx="85.32" ry="88.68"/><ellipse class="cls-27" cx="104.14" cy="554.32" rx="63.5" ry="66"/><circle class="cls-27" cx="1800.64" cy="555.11" r="63.86"/><circle class="cls-27" cx="1015.76" cy="810.17" r="63.86"/><circle class="cls-27" cx="1015.57" cy="557.55" r="63.86"/><circle class="cls-27" cx="1015.82" cy="299.3" r="63.86"/><line class="cls-28" x1="720.57" y1="305.66" x2="934.37" y2="305.66"/><path class="cls-7" d="M720.76,309.42a3.76,3.76,0,1,1,3.76-3.76A3.76,3.76,0,0,1,720.76,309.42Z"/><polygon class="cls-7" points="929.4 311.8 928.38 310.7 933.8 305.67 928.38 300.63 929.4 299.53 936 305.67 929.4 311.8"/><line class="cls-28" x1="720.57" y1="805.3" x2="934.37" y2="805.3"/><path class="cls-7" d="M720.76,809.06a3.76,3.76,0,1,1,3.76-3.76A3.76,3.76,0,0,1,720.76,809.06Z"/><polygon class="cls-7" points="929.4 811.43 928.38 810.34 933.8 805.3 928.38 800.26 929.4 799.17 936 805.3 929.4 811.43"/><line class="cls-28" x1="1017.17" y1="385.45" x2="1017.17" y2="471.37"/><circle class="cls-7" cx="1017.17" cy="385.64" r="3.76"/><polygon class="cls-7" points="1011.04 466.4 1012.14 465.38 1017.17 470.8 1022.21 465.38 1023.31 466.4 1017.17 473 1011.04 466.4"/><line class="cls-28" x1="1590.57" y1="552.85" x2="1726.37" y2="552.85"/><circle class="cls-7" cx="1590.76" cy="552.85" r="3.76"/><polygon class="cls-7" points="1721.4 558.99 1720.38 557.89 1725.8 552.85 1720.38 547.82 1721.4 546.72 1728 552.85 1721.4 558.99"/><line class="cls-28" x1="180.57" y1="553.19" x2="261.87" y2="553.19"/><path class="cls-7" d="M180.76,557a3.76,3.76,0,1,1,3.76-3.76A3.76,3.76,0,0,1,180.76,557Z"/><polygon class="cls-7" points="256.9 559.32 255.88 558.22 261.3 553.19 255.88 548.15 256.9 547.05 263.5 553.19 256.9 559.32"/><line class="cls-28" x1="1016.17" y1="725.43" x2="1016.17" y2="639.51"/><circle class="cls-7" cx="1016.17" cy="725.24" r="3.76"/><polygon class="cls-7" points="1022.31 644.48 1021.21 645.5 1016.17 640.08 1011.14 645.5 1010.04 644.48 1016.17 637.88 1022.31 644.48"/><text class="cls-29" transform="translate(304.67 507.7) scale(0.96 1)">NE<tspan class="cls-30" x="29.2" y="0">T</tspan><tspan class="cls-31" x="40.42" y="0">W</tspan><tspan x="61.9" y="0">ORK </tspan><tspan x="-2.5" y="23.65">S</tspan><tspan class="cls-32" x="9.62" y="23.65">E</tspan><tspan x="22.72" y="23.65">GMEN</tspan><tspan class="cls-33" x="85.98" y="23.65">T</tspan><tspan x="97.07" y="23.65">S</tspan></text><text class="cls-34" transform="translate(786.27 326.65)"><tspan class="cls-35">A</tspan><tspan x="13.43" y="0">GEN</tspan><tspan class="cls-36" x="56.25" y="0">T</tspan><tspan x="66.94" y="0">S </tspan><tspan class="cls-35" x="-32.95" y="22.79">P</tspan><tspan x="-19.5" y="22.79">REFERENCES</tspan></text><text class="cls-34" transform="translate(1616.47 580.09)">HEA<tspan class="cls-37" x="41.76" y="0">L</tspan><tspan x="51.71" y="0">TH </tspan><tspan class="cls-35" x="12.49" y="22.79">P</tspan><tspan x="25.93" y="22.79">IL</tspan><tspan class="cls-38" x="42.85" y="22.79">L</tspan><tspan x="53.89" y="22.79">S</tspan></text><text class="cls-34" transform="translate(1029.37 113.09)">R<tspan class="cls-39" x="13.73" y="0">E</tspan><tspan x="26.06" y="0">-</tspan><tspan class="cls-35" x="33.31" y="0">E</tspan><tspan class="cls-40" x="45.82" y="0">V</tspan><tspan x="58.4" y="0">A</tspan><tspan class="cls-41" x="72.01" y="0">L</tspan><tspan class="cls-42" x="82.95" y="0">U</tspan><tspan class="cls-43" x="97.71" y="0">A</tspan><tspan x="110.66" y="0">TE</tspan></text><text class="cls-34" transform="translate(976.51 293.9)"><tspan class="cls-35">A</tspan><tspan x="13.43" y="0">GEN</tspan><tspan class="cls-36" x="56.25" y="0">T</tspan><tspan x="66.94" y="0">S</tspan><tspan x="9.52" y="22.79">F</tspan><tspan class="cls-44" x="21.54" y="22.79">L</tspan><tspan class="cls-45" x="32.46" y="22.79">O</tspan><tspan x="48" y="22.79">W</tspan></text><text class="cls-34" transform="translate(976.73 804.03)">HEA<tspan class="cls-37" x="41.76" y="0">L</tspan><tspan x="51.71" y="0">TH </tspan><tspan x="5.32" y="22.79">S</tspan><tspan class="cls-42" x="17" y="22.79">C</tspan><tspan x="30.37" y="22.79">ORE</tspan></text><text class="cls-34" transform="translate(976.55 552.65)">HEA<tspan class="cls-37" x="41.76" y="0">L</tspan><tspan x="51.71" y="0">TH</tspan><tspan x="9.24" y="22.79">F</tspan><tspan class="cls-44" x="21.26" y="22.79">L</tspan><tspan class="cls-45" x="32.18" y="22.79">O</tspan><tspan x="47.71" y="22.79">W</tspan></text><text class="cls-34" transform="translate(786.55 772.68)">HEA<tspan class="cls-37" x="41.76" y="0">L</tspan><tspan x="51.71" y="0">TH </tspan><tspan x="-21.43" y="22.79">INDI</tspan><tspan class="cls-46" x="21.16" y="22.79">C</tspan><tspan class="cls-47" x="34.48" y="22.79">A</tspan><tspan class="cls-35" x="47.43" y="22.79">T</tspan><tspan x="58.14" y="22.79">ORS</tspan></text><text class="cls-34" transform="translate(1120.8 612.11) rotate(-90)"><tspan class="cls-35">E</tspan><tspan class="cls-40" x="12.51" y="0">V</tspan><tspan x="25.09" y="0">A</tspan><tspan class="cls-41" x="38.7" y="0">L</tspan><tspan class="cls-42" x="49.64" y="0">U</tspan><tspan class="cls-43" x="64.4" y="0">A</tspan><tspan x="77.35" y="0">TE</tspan></text><text class="cls-34" transform="translate(1750.28 555.87)">DESIGNER <tspan x="20.98" y="22.79">IN</tspan><tspan class="cls-48" x="42.16" y="22.79">P</tspan><tspan class="cls-44" x="55.7" y="22.79">U</tspan><tspan x="70.47" y="22.79">T</tspan></text><rect class="cls-49" x="503.16" y="259.46" width="170.77" height="34.13" rx="17.06"/><rect class="cls-49" x="503.16" y="380.6" width="170.77" height="34.13" rx="17.06"/><rect class="cls-49" x="504.84" y="136.64" width="169.09" height="33.28" rx="16.64"/><path d="M533.32,210.45c-.63,2-1.26,4-1.88,5.93a2.47,2.47,0,0,1-1.71,1.81,2.4,2.4,0,0,1-2.74-3.06c.54-2,1.31-4,1.85-6.07a13.56,13.56,0,0,1,3.1-5.76c1.54-1.71,3-3.53,4.41-5.38a3.19,3.19,0,0,1,4.26-.76,4,4,0,0,1,1.65,4.5,59.08,59.08,0,0,0-2,11.31c-.06.6-.06,1.2-.13,1.8a7,7,0,0,0,.55,2.31c.7,3.27,2.92,5.72,4.41,8.57a19.59,19.59,0,0,1,1.21,3.45q1.54,4.89,3,9.81c.66,2.22-.76,4.36-2.8,4.2a2.72,2.72,0,0,1-2.4-2q-2-5.38-4-10.76a8.11,8.11,0,0,0-.67-1.43q-2.85-4.78-5.71-9.58a4.77,4.77,0,0,1-.69-2.52,50.7,50.7,0,0,1,.32-5.92,3.85,3.85,0,0,0,0-.48Z"/><path d="M526.83,239.83a3.9,3.9,0,0,1,.51-1.92c1.67-3.32,3.3-6.65,5-9.94a6.72,6.72,0,0,0,.47-2.76c.07-1.17.08-2.34.12-3.52,0-.14-.05-.33.09-.39s.2.14.26.25q2.06,4.14,4.12,8.29a1.08,1.08,0,0,1,0,1.11c-2,3.54-4,7.1-6,10.64a2.18,2.18,0,0,1-2.57,1.26,2.71,2.71,0,0,1-1.91-2.26A6.53,6.53,0,0,1,526.83,239.83Z"/><path d="M541.75,186.75a4.12,4.12,0,0,1,4.07,4.2,4.17,4.17,0,0,1-4.15,4.21,4.25,4.25,0,0,1-4.11-4.23A4.17,4.17,0,0,1,541.75,186.75Z"/><path d="M549.57,215.39a2.5,2.5,0,0,1-1.9,2.39,3.42,3.42,0,0,1-3.33-.56c-1-1-1.86-2.07-2.78-3.11a1,1,0,0,1-.14-.83,50.42,50.42,0,0,1,.86-6.09c0-.15,0-.35.19-.4s.34.16.45.29q3,3.45,6.06,6.91A2,2,0,0,1,549.57,215.39Z"/><circle class="cls-12" cx="541.02" cy="335.65" r="34.91"/><path d="M526.37,330.94c.72-1.16,1.39-2.36,2.19-3.46a4.88,4.88,0,0,0,1-3.63,10.15,10.15,0,0,1,0-1.24h-1.69a1.89,1.89,0,1,1,0-3.77h5.21a1.89,1.89,0,1,1,.44,3.76l-.16.05v1.83H534q7.17,0,14.33,0a.7.7,0,0,0,.8-.59c.36-1.22.78-2.41,1.19-3.61a1.91,1.91,0,0,1,2-1.46h3.41a1.89,1.89,0,1,1,0,3.77c-.6,0-1.21,0-1.81,0-.33,0-.46.11-.55.41-.29.93-.62,1.84-.91,2.76a.79.79,0,0,0,0,.55c.94,1.54,1.9,3.06,2.84,4.56,1-.23,1.89-.51,2.84-.65a11.27,11.27,0,1,1-9.67,12.55,11,11,0,0,1,3.4-9.54c.21-.21.27-.36.09-.63-.58-.87-1.12-1.77-1.71-2.71l-2.79,4.47c-1.62,2.59-3.25,5.18-4.85,7.78a2.19,2.19,0,0,1-2.06,1.14c-2.26,0-4.51,0-6.77,0h-.57a11.22,11.22,0,0,1-6.31,8.29,10.87,10.87,0,0,1-8.48.49,11.29,11.29,0,1,1,8-21.12Zm27.85,5.3a7.51,7.51,0,1,0,11.83,1.2,7.35,7.35,0,0,0-8.61-3.16l.28.47,3.45,5.52a1.88,1.88,0,1,1-3.19,2L555.32,338Zm-29.92-2a7.41,7.41,0,0,0-7.94,2.24,7.51,7.51,0,0,0,7.36,12.22c2.77-.65,5.34-3.16,5.55-5.44h-.55c-2.2,0-4.4,0-6.61,0a1.84,1.84,0,0,1-1.89-2.17,2.59,2.59,0,0,1,.38-.91C521.82,338.22,523.05,336.26,524.3,334.26Zm10.57-6,6,9.59,6-9.59Zm-3.41,1.65c-.62,1-1.21,1.92-1.77,2.86-.06.09,0,.34.14.44a11.25,11.25,0,0,1,3.27,5.91c.07.31.18.4.49.4,1,0,2,0,3.06,0h.81Zm-4,6.31-2,3.25h3.85A7.51,7.51,0,0,0,527.51,336.22Z"/><circle class="cls-11" cx="541.02" cy="455.11" r="34.91"/><path d="M521.76,450.28c-.25,0-.4,0-.56,0h-3.3a1.48,1.48,0,0,1-1.64-1.67c0-.55,0-1.1,0-1.65a1.45,1.45,0,0,1,1.43-1.46,4,4,0,0,1,4.07,2.21l.39.61c.13-.48.25-.87.35-1.26a26.89,26.89,0,0,1,3.19-7.41,6.71,6.71,0,0,1,5-3.24,46,46,0,0,1,7.77-.59c2.74,0,5.48,0,8.2.18a34.13,34.13,0,0,1,5,.79,5.15,5.15,0,0,1,3.19,2.34,25.68,25.68,0,0,1,3.72,8.57c0,.18.1.34.17.62.17-.25.27-.44.4-.6a16.36,16.36,0,0,1,1.2-1.42,3.55,3.55,0,0,1,3.22-.75,1.35,1.35,0,0,1,1.08,1.31c0,.67,0,1.34,0,2a1.41,1.41,0,0,1-1.45,1.4c-1.16,0-2.32,0-3.48,0a4.81,4.81,0,0,0-.49,0c.45.47.87.88,1.25,1.32a10.13,10.13,0,0,1,2.55,7,40.21,40.21,0,0,1-.72,7.58,16.09,16.09,0,0,1-.84,2.48,1.89,1.89,0,0,1-1.32,1.22.64.64,0,0,0-.31.49c0,.74,0,1.48,0,2.23a1.66,1.66,0,0,1-1.88,1.9h-2.68a1.65,1.65,0,0,1-1.85-1.88v-1.72c-4.33.11-8.63.32-12.93.32s-8.59-.2-13-.32v1.62c0,1.4-.58,2-2,2H522.9a1.64,1.64,0,0,1-1.8-1.81c0-.77,0-1.54,0-2.32,0-.26-.05-.46-.36-.52a1.83,1.83,0,0,1-1.26-1.1,12.25,12.25,0,0,1-1.15-4.1c-.17-1.65-.28-3.31-.41-5a10.72,10.72,0,0,1,3.17-8.76C521.27,450.69,521.47,450.54,521.76,450.28Zm3-1a180.53,180.53,0,0,1,31.28,0c0-.21-.05-.37-.08-.52a31,31,0,0,0-2.84-7.43,3,3,0,0,0-2.07-1.63,34.38,34.38,0,0,0-6.53-.86,64.85,64.85,0,0,0-11.32.27c-1.39.17-2.76.54-4.13.84a1.65,1.65,0,0,0-1.07.88,29.36,29.36,0,0,0-3,7.49C524.94,448.64,524.88,449,524.8,449.31Zm15.64,15.5H547a3.35,3.35,0,0,0,.71-.07,1.07,1.07,0,0,0,.69-1.58,5.61,5.61,0,0,0-1.93-2,2.07,2.07,0,0,0-1-.25q-5,0-10.07,0a1.93,1.93,0,0,0-1.16.36,11.21,11.21,0,0,0-1.71,1.8,1.06,1.06,0,0,0,.72,1.67,2.56,2.56,0,0,0,.62.06Zm-18.13-7.22a3.41,3.41,0,1,0,3.44-3.39A3.4,3.4,0,0,0,522.31,457.59Zm36.28,0a3.41,3.41,0,1,0-3.45,3.39A3.38,3.38,0,0,0,558.59,457.62Z"/><rect class="cls-25" x="478.34" y="109.78" width="227.98" height="393.7" rx="36.85"/><text class="cls-50" transform="translate(565.5 281.79)">B<tspan class="cls-51" x="13.32" y="0">E</tspan><tspan x="25.07" y="0">QI</tspan></text><text class="cls-50" transform="translate(566.13 402.93)"><tspan class="cls-52">V</tspan><tspan class="cls-53" x="12.07" y="0">E</tspan><tspan x="23.81" y="0">QI</tspan></text><text class="cls-50" transform="translate(570.14 157.29)"><tspan class="cls-54">P</tspan><tspan class="cls-53" x="12.51" y="0">E</tspan><tspan x="24.26" y="0">QI</tspan></text><g class="cls-55"><text class="cls-56" transform="translate(588.93 198.28)"><tspan class="cls-57">P</tspan><tspan x="8.3" y="0">edest</tspan><tspan class="cls-58" x="41.06" y="0">r</tspan><tspan x="45.68" y="0">ian </tspan><tspan x="0" y="14.13">E</tspan><tspan class="cls-59" x="7.88" y="14.13">n</tspan><tspan x="15.73" y="14.13">vi</tspan><tspan class="cls-57" x="25.29" y="14.13">r</tspan><tspan x="29.86" y="14.13">on</tspan><tspan class="cls-60" x="45.21" y="14.13">m</tspan><tspan x="57.73" y="14.13">ental </tspan><tspan x="0" y="28.27">Quali</tspan><tspan class="cls-59" x="31.09" y="28.27">t</tspan><tspan x="35.75" y="28.27">y i</tspan><tspan class="cls-60" x="48.39" y="28.27">n</tspan><tspan x="56.39" y="28.27">d</tspan><tspan class="cls-61" x="64.37" y="28.27">e</tspan><tspan x="71.31" y="28.27">x</tspan></text></g><g class="cls-55"><text class="cls-56" transform="translate(588.93 321.94)">Bi<tspan class="cls-62" x="12.05" y="0">k</tspan><tspan x="18.88" y="0">e </tspan><tspan x="0" y="14.13">E</tspan><tspan class="cls-59" x="7.88" y="14.13">n</tspan><tspan x="15.73" y="14.13">vi</tspan><tspan class="cls-57" x="25.29" y="14.13">r</tspan><tspan x="29.86" y="14.13">on</tspan><tspan class="cls-60" x="45.21" y="14.13">m</tspan><tspan x="57.73" y="14.13">ental </tspan><tspan x="0" y="28.27">Quali</tspan><tspan class="cls-59" x="31.09" y="28.27">t</tspan><tspan x="35.75" y="28.27">y i</tspan><tspan class="cls-60" x="48.39" y="28.27">n</tspan><tspan x="56.39" y="28.27">d</tspan><tspan class="cls-61" x="64.37" y="28.27">e</tspan><tspan x="71.31" y="28.27">x</tspan></text></g><g class="cls-55"><text class="cls-56" transform="translate(588.93 439.71)"><tspan class="cls-63">V</tspan><tspan x="7.57" y="0">ehi</tspan><tspan class="cls-58" x="25.83" y="0">c</tspan><tspan x="32.36" y="0">le </tspan><tspan x="0" y="14.13">E</tspan><tspan class="cls-59" x="7.88" y="14.13">n</tspan><tspan x="15.73" y="14.13">vi</tspan><tspan class="cls-57" x="25.29" y="14.13">r</tspan><tspan x="29.86" y="14.13">on</tspan><tspan class="cls-60" x="45.21" y="14.13">m</tspan><tspan x="57.73" y="14.13">ental </tspan><tspan x="0" y="28.27">Quali</tspan><tspan class="cls-59" x="31.09" y="28.27">t</tspan><tspan x="35.75" y="28.27">y i</tspan><tspan class="cls-60" x="48.39" y="28.27">n</tspan><tspan x="56.39" y="28.27">d</tspan><tspan class="cls-61" x="64.37" y="28.27">e</tspan><tspan x="71.31" y="28.27">x</tspan></text></g><rect class="cls-49" x="511.66" y="756.01" width="163.2" height="34.13" rx="17.06"/><rect class="cls-49" x="511.66" y="879.88" width="163.2" height="34.13" rx="17.06"/><rect class="cls-49" x="513.34" y="631.71" width="161.52" height="33.28" rx="16.64"/><rect class="cls-25" x="479.27" y="604.85" width="227.98" height="393.7" rx="36.85"/><text class="cls-50" transform="translate(562.73 778.33)">Mental</text><text class="cls-50" transform="translate(567.75 902.21)">Social</text><text class="cls-50" transform="translate(557.43 653.2)">P<tspan class="cls-54" x="12.68" y="0">h</tspan><tspan class="cls-64" x="24.47" y="0">y</tspan><tspan x="33.94" y="0">sical</tspan></text><g class="cls-55"><text class="cls-56" transform="translate(588.93 682.89)"><tspan class="cls-57">P</tspan><tspan x="8.3" y="0">ollution (N</tspan><tspan class="cls-59" x="69.79" y="0">O</tspan><tspan x="79.55" y="0">2 )</tspan><tspan class="cls-57" x="0" y="14.13">P</tspan><tspan x="8.3" y="14.13">ollution (</tspan><tspan class="cls-59" x="60.22" y="14.13">P</tspan><tspan x="68.55" y="14.13">M10)</tspan><tspan class="cls-57" x="0" y="28.27">P</tspan><tspan x="8.3" y="28.27">ollution (</tspan><tspan class="cls-59" x="60.22" y="28.27">P</tspan><tspan x="68.55" y="28.27">M</tspan><tspan class="cls-65" x="79.8" y="28.27">2</tspan><tspan x="86.61" y="28.27">.5)</tspan><tspan x="0" y="42.4">T</tspan><tspan class="cls-60" x="6.76" y="42.4">h</tspan><tspan x="14.76" y="42.4">e</tspan><tspan class="cls-58" x="21.87" y="42.4">r</tspan><tspan x="26.5" y="42.4">mal </tspan><tspan class="cls-66" x="52.2" y="42.4">c</tspan><tspan x="58.72" y="42.4">om</tspan><tspan class="cls-67" x="78.6" y="42.4">f</tspan><tspan x="82.49" y="42.4">o</tspan><tspan class="cls-68" x="89.87" y="42.4">r</tspan><tspan x="94.77" y="42.4">t</tspan><tspan class="cls-69" x="0" y="56.53">A</tspan><tspan class="cls-67" x="8.39" y="56.53">c</tspan><tspan x="14.91" y="56.53">cidents</tspan></text></g><g class="cls-55"><text class="cls-56" transform="translate(588.93 819.64)">Noise<tspan x="0" y="14.13">Sa</tspan><tspan class="cls-67" x="14.19" y="14.13">f</tspan><tspan x="18.08" y="14.13">e</tspan><tspan class="cls-59" x="25.19" y="14.13">t</tspan><tspan x="29.85" y="14.13">y</tspan><tspan x="0" y="28.27">N</tspan><tspan class="cls-62" x="9.57" y="28.27">D</tspan><tspan class="cls-61" x="19.06" y="28.27">V</tspan><tspan x="27.1" y="28.27">I</tspan></text></g><g class="cls-55"><text class="cls-56" transform="translate(588.93 933.13)"><tspan class="cls-69">A</tspan><tspan class="cls-67" x="8.39" y="0">cc</tspan><tspan x="21.43" y="0">essibili</tspan><tspan class="cls-59" x="60.72" y="0">t</tspan><tspan x="65.39" y="0">y </tspan><tspan class="cls-70" x="0" y="14.13">P</tspan><tspan class="cls-57" x="8.19" y="14.13">r</tspan><tspan class="cls-71" x="12.75" y="14.13">o</tspan><tspan x="19.92" y="14.13">ximi</tspan><tspan class="cls-59" x="45.04" y="14.13">t</tspan><tspan x="49.7" y="14.13">y </tspan><tspan class="cls-71" x="59.17" y="14.13">t</tspan><tspan x="63.73" y="14.13">o </tspan><tspan x="0" y="28.27">public t</tspan><tspan class="cls-67" x="44.73" y="28.27">r</tspan><tspan x="49.35" y="28.27">anspo</tspan><tspan class="cls-68" x="85.4" y="28.27">r</tspan><tspan x="90.29" y="28.27">t</tspan><tspan class="cls-70" x="0" y="42.4">P</tspan><tspan class="cls-57" x="8.19" y="42.4">r</tspan><tspan class="cls-71" x="12.75" y="42.4">o</tspan><tspan x="19.92" y="42.4">ximi</tspan><tspan class="cls-59" x="45.04" y="42.4">t</tspan><tspan x="49.7" y="42.4">y </tspan><tspan class="cls-71" x="59.17" y="42.4">t</tspan><tspan x="63.73" y="42.4">o </tspan><tspan x="0" y="56.53">points of in</tspan><tspan class="cls-71" x="65.74" y="56.53">t</tspan><tspan x="70.3" y="56.53">e</tspan><tspan class="cls-57" x="77.41" y="56.53">r</tspan><tspan x="81.98" y="56.53">est</tspan></text></g><line class="cls-72" x1="309.5" y1="557.35" x2="330.5" y2="557.35"/><line class="cls-72" x1="312.55" y1="545.14" x2="401.9" y2="594.01"/><line class="cls-72" x1="375.94" y1="544.37" x2="375.94" y2="621.5"/><line class="cls-72" x1="352.26" y1="544.37" x2="352.26" y2="621.5"/><line class="cls-72" x1="309.5" y1="579.5" x2="375.94" y2="579.5"/><line class="cls-72" x1="309.5" y1="600.12" x2="397.32" y2="600.12"/><line class="cls-72" x1="330.27" y1="554.83" x2="330.27" y2="621.5"/><line class="cls-72" x1="398.08" y1="563.46" x2="352.26" y2="563.46"/><circle class="cls-73" cx="330.5" cy="556.5" r="2.5"/><circle class="cls-73" cx="330.5" cy="579.5" r="2.5"/><circle class="cls-73" cx="330.5" cy="600.5" r="2.5"/><circle class="cls-73" cx="352.5" cy="600.5" r="2.5"/><circle class="cls-73" cx="352.5" cy="579.5" r="2.5"/><circle class="cls-73" cx="352.5" cy="564.5" r="2.5"/><circle class="cls-73" cx="375.5" cy="564.5" r="2.5"/><circle class="cls-73" cx="375.5" cy="579.5" r="2.5"/><circle class="cls-73" cx="375.5" cy="600.5" r="2.5"/><line class="cls-72" x1="61.5" y1="531.35" x2="82.5" y2="531.35"/><line class="cls-72" x1="64.55" y1="519.14" x2="153.9" y2="568.01"/><line class="cls-72" x1="127.94" y1="518.37" x2="127.94" y2="595.5"/><line class="cls-72" x1="104.26" y1="518.37" x2="104.26" y2="595.5"/><line class="cls-72" x1="61.5" y1="553.5" x2="127.94" y2="553.5"/><line class="cls-72" x1="61.5" y1="574.12" x2="149.32" y2="574.12"/><line class="cls-72" x1="82.27" y1="528.83" x2="82.27" y2="595.5"/><line class="cls-72" x1="150.08" y1="537.46" x2="104.26" y2="537.46"/></g></svg>